<svg width="85" height="95" viewBox="0 0 85 95" fill="none" xmlns="http://www.w3.org/2000/svg">
<path d="M64.228 26.6795C70.025 26.6795 75.7889 26.6795 81.5529 26.6795C83.8123 26.6795 84.274 27.1496 84.274 29.4337C84.274 38.6115 84.2493 47.781 84.2988 56.9588C84.307 59.0203 83.8535 60.7025 81.9239 61.758C81.693 61.8899 81.5941 62.4507 81.5941 62.8052C81.5776 71.6449 81.5858 80.4764 81.5693 89.3161C81.5693 89.9181 81.5281 90.5447 81.3549 91.122C80.8849 92.7464 79.4584 93.8596 77.7762 93.9916C77.4381 94.0163 77.1 94.0163 76.7619 94.0163C53.6731 94.0163 30.5844 94.0163 7.4956 94.0246C6.07729 94.0246 4.81565 93.7442 3.81789 92.6557C2.92732 91.6827 2.71293 90.5283 2.71293 89.2666C2.72117 80.5011 2.71293 71.7274 2.72942 62.9619C2.72942 62.1868 2.58923 61.6838 1.84709 61.2467C0.527735 60.4551 0 59.144 0 57.6103C0 47.9954 0 38.3724 0 28.7575C0 27.265 0.601951 26.6713 2.11921 26.6713C7.71 26.6713 13.309 26.6713 18.8998 26.6713C19.2544 26.6713 19.609 26.6713 20.1614 26.6713C18.3803 24.4531 17.1764 22.169 16.5744 19.588C15.5932 15.3743 16.0632 11.342 18.1329 7.54884C22.19 0.0944638 31.0049 -2.20617 38.3274 2.30439C39.6715 3.12899 40.8506 4.21746 42.1865 5.24821C42.4009 5.04206 42.6895 4.7617 42.9781 4.49782C47.3567 0.539748 52.4198 -1.00225 58.1095 0.787128C63.5766 2.50229 66.4957 6.6995 67.6913 12.1006C68.8045 17.1554 67.6501 21.7979 64.5661 25.9539C64.4424 26.1188 64.327 26.2837 64.2115 26.4487C64.1951 26.4651 64.2115 26.5064 64.2198 26.6713L64.228 26.6795ZM6.22573 62.2445C6.19274 62.5579 6.1515 62.8135 6.1515 63.0773C6.1515 71.8428 6.1515 80.6083 6.1515 89.3738C6.1515 90.5777 6.29994 90.7014 7.62754 90.7014C30.6091 90.7014 53.5907 90.7014 76.5723 90.7014C78.0071 90.7014 78.2627 90.4375 78.2627 88.9615C78.2627 80.4352 78.2627 71.9006 78.2627 63.3742C78.2627 63.0114 78.2627 62.6486 78.2627 62.2363H6.22573V62.2445ZM42.0546 37.4571C43.712 37.4571 45.3777 37.4241 47.0351 37.4735C47.7278 37.49 48.2308 37.2921 48.7421 36.8056C52.6342 33.0207 56.5428 29.2523 60.4679 25.5004C64.0136 22.1113 65.2835 17.9718 64.4754 13.1809C63.1148 5.11627 55.3306 1.09223 48.3298 4.92662C46.6476 5.85017 45.2457 7.3262 43.7862 8.62907C42.5246 9.75877 41.7907 9.80824 40.562 8.67854C39.4158 7.6313 38.3109 6.49335 37.041 5.61103C32.3655 2.3786 26.1975 2.94758 22.7754 6.83144C18.1577 12.0841 18.4463 20.3301 23.4598 25.2118C27.4921 29.1368 31.5657 33.0372 35.6474 36.9128C35.969 37.2179 36.5215 37.4076 36.975 37.4241C38.6655 37.4818 40.3641 37.4488 42.0546 37.4488V37.4571ZM30.4689 37.5395C28.4239 35.3296 26.3212 33.0125 24.1525 30.7696C23.8062 30.415 23.1712 30.1676 22.66 30.1676C16.5909 30.1264 10.5219 30.1429 4.45283 30.1429C4.12299 30.1429 3.79315 30.1429 3.42208 30.1429V48.2346H80.7447V30.2088C80.5551 30.1758 80.4644 30.1511 80.3654 30.1511C73.9913 30.1511 67.6171 30.1346 61.243 30.1676C60.8637 30.1676 60.4019 30.4067 60.1215 30.6789C57.9858 32.7156 55.8831 34.7854 53.7721 36.8551C53.599 37.02 53.467 37.2344 53.2196 37.5478C54.8276 37.5478 56.2541 37.5478 57.6725 37.5478C58.6207 37.5478 59.5773 37.5148 60.5173 37.6055C61.4161 37.6879 62.0346 38.4218 61.9851 39.2629C61.9274 40.1535 61.4326 40.706 60.5586 40.8791C60.2617 40.9369 59.9484 40.9204 59.6433 40.9204C47.9422 40.9204 36.2494 40.9204 24.5483 40.9204C24.1772 40.9204 23.7897 40.9204 23.4433 40.8297C22.6187 40.607 22.1735 40.0133 22.2064 39.1805C22.2394 38.3559 22.693 37.7622 23.5505 37.622C24.0123 37.5478 24.4988 37.5478 24.9689 37.5478C26.9149 37.5478 28.8692 37.5478 30.4689 37.5478V37.5395ZM3.44682 51.6979C3.44682 53.5285 3.44682 55.2519 3.44682 56.9753C3.44682 58.1462 4.02679 58.7317 5.18672 58.7317C29.8257 58.7317 54.4648 58.7317 79.112 58.7317C79.3512 58.7317 79.5903 58.7152 79.8212 58.7317C80.5716 58.7812 80.8519 58.3936 80.8437 57.6845C80.8272 55.8539 80.8437 54.015 80.8272 52.1844C80.8272 52.0277 80.7448 51.8711 80.7035 51.6979H3.44682Z" fill="#FFAF01"/>
<path d="M43.2337 70.2513C50.5892 70.2513 57.9446 70.2348 65.3 70.2513C68.9447 70.2595 71.6412 72.9477 71.5835 76.4192C71.5257 79.8001 68.8705 82.5213 65.4897 82.5295C50.6799 82.5543 35.8701 82.546 21.0603 82.5295C17.6217 82.5295 14.9005 79.7589 14.9005 76.3863C14.9005 73.0384 17.5475 70.2925 20.9613 70.2677C28.3827 70.2183 35.8041 70.2513 43.2255 70.2513H43.2337ZM43.2502 73.5661C36.101 73.5661 28.9434 73.5661 21.7942 73.5661C21.4561 73.5661 21.1097 73.5496 20.7799 73.5909C19.3781 73.7475 18.3391 74.8525 18.2814 76.2296C18.2154 77.6974 19.1225 78.8683 20.5738 79.1322C21.0026 79.2064 21.4478 79.2146 21.8849 79.2146C36.1587 79.2146 50.4325 79.2146 64.6981 79.2146C65.0691 79.2146 65.4484 79.2229 65.8113 79.1734C67.1883 78.9673 68.1366 77.92 68.2026 76.5512C68.2933 74.7948 67.0482 73.5744 65.1021 73.5744C57.8127 73.5661 50.5232 73.5744 43.2337 73.5744L43.2502 73.5661Z" fill="#FFAF01"/>
</svg>
