<svg width="102" height="102" viewBox="0 0 102 102" fill="none" xmlns="http://www.w3.org/2000/svg">
<path d="M101.993 22.2844C101.862 22.6196 101.738 22.9475 101.606 23.2827C100.608 25.8552 98.7644 27.5239 96.0026 27.6624C92.3662 27.8446 88.7153 27.7717 85.0789 27.7426C83.7745 27.7353 83.0677 26.9555 83.0604 25.6511C83.0385 22.1751 83.0094 18.6918 83.0749 15.2157C83.1405 11.8636 85.6036 9.2766 89.0141 8.82479C92.0383 8.42399 95.1281 10.4426 96.0244 13.4886C96.2358 14.1955 96.52 14.538 97.2633 14.7566C99.4057 15.376 100.841 16.8116 101.614 18.9031C101.738 19.2383 101.869 19.5662 102 19.9014V22.2917L101.993 22.2844ZM87.0611 23.7856C88.3582 23.7856 89.6116 23.7929 90.8577 23.7856C92.4828 23.771 94.1079 23.822 95.7256 23.6908C97.0957 23.5815 98.043 22.35 97.9993 21.0018C97.9556 19.6828 96.9863 18.6189 95.6528 18.4586C95.2228 18.4076 94.7929 18.4294 94.3629 18.393C93.1095 18.2764 92.4609 17.5841 92.3881 16.338C92.3589 15.7769 92.3589 15.2012 92.2205 14.6619C91.9144 13.4814 90.6974 12.6725 89.5023 12.7745C88.2635 12.8765 87.1121 13.8166 87.0829 15.019C87.0101 17.8974 87.0611 20.7759 87.0611 23.7856Z" fill="#FFAF01"/>
<path d="M82.0985 0C83.9057 1.2024 84.0077 2.35379 82.441 3.92055C80.6629 5.70594 78.8848 7.49132 77.0994 9.26213C76.0355 10.3188 74.9278 10.4135 74.0387 9.56091C73.1205 8.67915 73.2153 7.53504 74.3084 6.43466C76.1302 4.59827 77.9593 2.76916 79.7957 0.954633C80.1382 0.604844 80.5317 0.313353 80.9033 0C81.3041 0 81.6977 0 82.0985 0Z" fill="#FFAF01"/>
<path d="M0 94.9241C0.233193 94.0351 0.386226 93.1096 0.72144 92.257C7.62978 74.527 14.5527 56.7971 21.4902 39.0817C22.9986 35.2267 27.1305 34.3596 30.0673 37.289C41.5885 48.7884 53.1024 60.3023 64.6017 71.8162C67.6696 74.8841 66.7806 78.965 62.7216 80.5463C45.1228 87.4255 27.5022 94.2683 9.92527 101.206C4.54726 103.326 0.0218618 99.2673 0 94.9168L0 94.9241ZM25.1338 41.3262C25.0755 41.3043 25.0099 41.2825 24.9516 41.2606C24.8715 41.4282 24.784 41.5812 24.7184 41.7561C22.0804 48.5042 19.4425 55.2522 16.819 62.0075C16.6587 62.4229 16.5931 62.9038 16.5931 63.3629C16.5786 73.31 16.5858 83.2499 16.5858 93.197C16.5858 93.5177 16.5858 93.8383 16.5858 94.3047C19.4133 93.197 22.095 92.1695 24.7476 91.0837C24.9589 90.9963 25.112 90.5007 25.1192 90.1874C25.1484 87.8044 25.1338 85.4142 25.1338 83.024C25.1338 80.5026 25.112 77.9885 25.1484 75.4671C25.163 74.0169 26.2342 73.1351 27.5532 73.4121C28.537 73.6161 29.1054 74.4469 29.1127 75.7586C29.12 79.905 29.1127 84.0442 29.1127 88.1907C29.1127 88.5477 29.1127 88.9048 29.1127 89.3712C29.5499 89.2182 29.856 89.1161 30.1547 88.9995C32.3409 88.1469 34.5198 87.2579 36.7279 86.449C37.4347 86.1939 37.6825 85.866 37.6825 85.1009C37.6534 73.8639 37.6752 62.6269 37.6388 51.3899C37.6388 50.8944 37.3837 50.2895 37.0412 49.9325C34.6874 47.5058 32.2753 45.1301 29.8851 42.7472C29.6884 42.5505 29.4697 42.3901 29.1127 42.0914C29.1127 42.6379 29.1127 42.995 29.1127 43.3521C29.1127 47.7609 29.1127 52.1697 29.1127 56.5785C29.1127 58.4513 28.4131 59.4351 27.0868 59.4205C25.797 59.4059 25.1338 58.4659 25.1338 56.6368C25.1338 51.5357 25.1338 46.4273 25.1338 41.3262ZM41.6978 54.538V84.4159C42.0767 84.2993 42.3974 84.2264 42.6961 84.1098C44.9188 83.2499 47.1268 82.3463 49.3567 81.5228C50.049 81.2678 50.2166 80.8888 50.2093 80.2038C50.1802 75.7659 50.0199 71.3133 50.2603 66.8827C50.4061 64.0989 49.6701 62.0658 47.5058 60.2804C45.4799 58.6043 43.7382 56.5857 41.6978 54.538ZM12.5778 73.259C12.4102 73.3683 12.3665 73.3829 12.3519 73.4048C9.6775 80.2402 6.99578 87.0684 4.32864 93.9039C3.87683 95.0699 4.08816 96.1338 4.97721 97.0083C5.86626 97.8827 6.9302 98.0649 8.09616 97.6131C9.35686 97.1249 10.6103 96.5929 11.8855 96.1411C12.4467 95.9443 12.6216 95.6455 12.6216 95.0553C12.5997 87.972 12.607 80.8815 12.607 73.7983C12.607 73.6453 12.5924 73.4922 12.5778 73.2517V73.259ZM54.2538 67.0648V79.5771C56.7825 78.5933 59.2164 77.6605 61.6358 76.6841C62.5831 76.2978 62.6924 75.5691 61.9491 74.8112C60.652 73.4849 59.3257 72.1878 58.0213 70.8761C56.8189 69.6664 55.6165 68.4421 54.2538 67.0648Z" fill="#FFAF01"/>
<path d="M59.9232 26.8898C58.2326 26.8898 56.542 26.9044 54.8586 26.8898C53.2044 26.8752 52.4757 26.1684 52.4684 24.5433C52.4611 21.264 52.4465 17.9848 52.4684 14.7055C52.4975 11.2149 54.9533 8.41657 58.3055 7.98662C61.6139 7.56396 64.6381 9.64812 65.6146 12.9493C65.7093 13.2699 66.081 13.6415 66.4016 13.7436C69.8267 14.7784 71.8015 17.7224 71.357 21.2349C70.9562 24.4194 68.1506 26.8169 64.6964 26.8825C63.1078 26.9117 61.5192 26.8825 59.9232 26.8825V26.8898ZM56.4691 22.8964C59.3767 22.8964 62.1532 22.9328 64.9296 22.8818C66.2923 22.8599 67.298 21.8106 67.4073 20.4989C67.5239 19.0997 66.7077 17.9483 65.345 17.6495C64.864 17.5475 64.3612 17.5694 63.8657 17.5402C62.605 17.4674 61.8762 16.7313 61.8107 15.4561C61.7961 15.1573 61.8107 14.8585 61.7961 14.5597C61.7232 13.0731 60.6447 11.98 59.2164 11.929C57.8318 11.8853 56.5347 12.8691 56.4909 14.2755C56.3962 17.1103 56.4618 19.9523 56.4618 22.8891L56.4691 22.8964Z" fill="#FFAF01"/>
<path d="M67.6041 56.7242C65.8843 56.7242 64.1572 56.7387 62.4374 56.7242C60.9799 56.7096 60.2221 55.9663 60.2148 54.5234C60.2002 51.1421 60.1856 47.7681 60.2148 44.3868C60.2512 41.0419 62.7362 38.2509 65.9936 37.8355C69.2437 37.4202 72.3335 39.4023 73.2371 42.5796C73.4266 43.2427 73.6962 43.5269 74.3594 43.7164C77.5949 44.6419 79.5188 47.6734 79.0961 51.0474C78.6953 54.2173 75.897 56.6659 72.5667 56.7314C70.9125 56.7606 69.251 56.7314 67.5968 56.7314L67.6041 56.7242ZM64.2009 52.7234C67.1523 52.7234 69.9943 52.7672 72.8363 52.7016C74.0387 52.6724 74.9934 51.6376 75.1464 50.4717C75.314 49.16 74.6217 47.9721 73.412 47.5713C73.0112 47.4402 72.574 47.3964 72.1441 47.3819C70.1546 47.3309 69.5935 46.7625 69.5571 44.7366C69.5571 44.569 69.5571 44.4014 69.5425 44.2411C69.3968 42.7909 68.2308 41.7415 66.8025 41.778C65.4179 41.8071 64.2446 42.8638 64.2155 44.2775C64.1572 47.0539 64.2009 49.8304 64.2009 52.7234Z" fill="#FFAF01"/>
<path d="M77.8937 69.2655C76.0864 69.2655 74.1845 68.5295 72.5885 67.0429C71.612 66.1392 71.5246 65.017 72.3043 64.1425C73.0841 63.2681 74.1917 63.2462 75.2265 64.0769C77.3617 65.804 79.3876 65.7384 81.4717 63.8875C84.802 60.9361 89.5169 60.8633 92.6941 63.7126C93.7799 64.6891 93.9403 65.8405 93.1241 66.7587C92.3298 67.6477 91.2294 67.6477 90.129 66.7514C88.1614 65.1409 85.9971 65.1627 84.1097 66.8825C82.4482 68.3983 80.5462 69.2582 77.8937 69.2655Z" fill="#FFAF01"/>
<path d="M38.9432 25.316C38.3165 24.7913 37.6533 24.4415 37.289 23.8876C36.808 23.1735 36.9829 22.35 37.5732 21.6942C38.6298 20.5064 39.0525 19.1655 38.4404 17.6643C38.1853 17.0449 37.7116 16.4911 37.2598 15.9664C34.7384 13.0515 34.7093 8.77384 37.2307 5.85893C38.178 4.75855 39.344 4.54722 40.2695 5.30509C41.1877 6.05568 41.2095 7.25808 40.3132 8.38032C38.9213 10.122 38.9942 11.9365 40.5391 13.6563C43.3374 16.768 43.4176 21.1622 40.6994 24.1136C40.2768 24.5727 39.6573 24.835 38.9432 25.316Z" fill="#FFAF01"/>
<path d="M83.2498 41.6832C83.3956 41.4355 83.585 40.8889 83.9567 40.51C86.0846 38.3311 88.2416 36.1741 90.4132 34.0389C91.3387 33.128 92.5265 33.0988 93.3354 33.9004C94.1443 34.6947 94.137 35.9117 93.2334 36.8226C91.0763 39.0234 88.8829 41.1877 86.6967 43.3593C86.0481 44.0006 85.2757 44.1901 84.4158 43.8038C83.6433 43.4613 83.279 42.8273 83.2425 41.6832H83.2498Z" fill="#FFAF01"/>
<path d="M48.7738 43.6071C48.2491 43.1918 47.5932 42.8565 47.207 42.3173C46.726 41.6469 46.8353 40.8015 47.411 40.204C49.2984 38.251 51.2223 36.3271 53.1826 34.4397C53.9186 33.7329 55.0991 33.8495 55.806 34.5345C56.5638 35.2705 56.6804 36.4292 55.9153 37.2235C54.057 39.1619 52.1478 41.0493 50.2166 42.9148C49.9106 43.2136 49.415 43.3084 48.7738 43.6071Z" fill="#FFAF01"/>
<path d="M94.4722 52.0532C94.4941 53.1536 93.6706 54.0426 92.5921 54.0937C91.5063 54.1374 90.5298 53.2046 90.5298 52.1115C90.5298 51.0476 91.4189 50.1512 92.4901 50.1367C93.5832 50.1221 94.4504 50.9674 94.4722 52.0605V52.0532Z" fill="#FFAF01"/>
<path d="M77.3544 32.4574C77.3763 33.5651 76.5601 34.4322 75.4597 34.4614C74.3229 34.4905 73.4047 33.6088 73.4047 32.4938C73.4047 31.4299 74.3083 30.5336 75.3723 30.519C76.4508 30.5044 77.3325 31.3716 77.3471 32.4574H77.3544Z" fill="#FFAF01"/>
<path d="M39.0088 34.4616C37.9157 34.4616 37.0631 33.6017 37.0558 32.5086C37.0558 31.4228 37.9084 30.541 38.9869 30.5192C40.0946 30.4973 41.0128 31.4155 40.9909 32.5378C40.9691 33.6308 40.1092 34.4689 39.0088 34.4616Z" fill="#FFAF01"/>
<path d="M25.1484 66.3362C25.1703 65.2358 26.0229 64.4124 27.1378 64.4269C28.2236 64.4415 29.0981 65.316 29.0981 66.3872C29.0981 67.4876 28.1216 68.4204 27.0431 68.3694C25.9646 68.3184 25.1338 67.4293 25.1557 66.3362H25.1484Z" fill="#FFAF01"/>
</svg>
