<svg width="86" height="85" viewBox="0 0 86 85" fill="none" xmlns="http://www.w3.org/2000/svg">
<path d="M76.2276 17.7643C77.4759 17.8584 78.6608 17.8222 79.7892 18.0539C83.379 18.7852 85.9391 21.9712 85.9743 25.7293C86.0167 30.3635 85.9955 35.0049 85.9884 39.6464C85.9884 43.6217 83.9291 46.4963 80.2476 47.72C80.0995 47.7707 79.9584 47.8142 79.7398 47.8866V49.0017C79.7398 58.2122 79.7469 67.4299 79.7398 76.6403C79.7398 80.7532 77.3701 83.903 73.6322 84.7719C72.8635 84.9529 72.0454 84.9891 71.2555 84.9891C52.4179 85.0036 33.5733 85.0036 14.7357 84.9891C10.3489 84.9891 7.1682 82.4693 6.40651 78.3782C6.27251 77.6758 6.27956 76.9372 6.27956 76.2131C6.27251 67.0968 6.26546 57.9732 6.29367 48.8569C6.29367 48.1183 6.13146 47.7924 5.39093 47.5462C2.18903 46.547 0.0450336 43.5275 0.0238757 40.0881C-0.00433488 35.3235 -0.0113875 30.559 0.0238757 25.7945C0.0591388 21.4065 3.4303 17.9598 7.69714 17.8656C8.36714 17.8512 9.03714 17.8656 9.78472 17.8656C9.78472 16.6057 9.74946 15.4472 9.79178 14.2959C9.90462 11.3922 10.631 8.65517 11.7806 5.99774C13.2828 2.50761 15.8782 0.762542 19.4962 0.255677C25.1595 -0.540827 30.4842 0.675651 35.6749 2.86241C36.8386 3.3548 37.9741 3.91235 39.0955 4.49887C39.6244 4.77402 40.0546 4.86091 40.64 4.61472C42.2057 3.94131 43.8207 3.9558 45.3935 4.62196C45.9365 4.85367 46.3456 4.7885 46.8534 4.52783C50.951 2.37727 55.2248 0.762542 59.8302 0.197749C62.9122 -0.17878 65.959 -0.0484427 68.9563 0.856675C70.6772 1.37802 72.0454 2.37727 73.0257 3.91235C75.4941 7.77177 76.3687 12.0512 76.2276 16.6057C76.2135 16.9822 76.2276 17.3588 76.2276 17.7787V17.7643ZM53.2783 54.722C53.0809 54.7437 52.961 54.7582 52.8411 54.7799C48.7012 55.5547 45.732 53.4621 44.9703 49.1972C44.526 46.6846 44.1381 44.1647 43.715 41.6521C43.5104 40.4429 43.2988 39.2336 43.0873 38.0317C42.8686 38.191 42.8263 38.3358 42.7981 38.4806C42.1845 42.1807 41.5851 45.8736 40.9574 49.5737C40.4637 52.4628 38.4114 54.5627 35.6185 54.9392C34.6735 55.0696 33.7002 54.961 32.7269 54.961V80.2029H53.2713V54.7437L53.2783 54.722ZM57.9119 80.2753C58.3069 80.2753 58.6101 80.2753 58.9063 80.2753C63.0533 80.2753 67.2002 80.2753 71.3542 80.2753C73.9214 80.2753 75.1203 79.0298 75.1203 76.3797C75.1203 67.2923 75.1203 58.2122 75.1203 49.1248C75.1203 48.7844 75.1203 48.4514 75.1203 48.0097C73.3713 48.0097 71.7139 48.0314 70.0636 47.9952C69.5276 47.9807 69.2596 48.1907 68.9775 48.6396C67.5811 50.8409 65.5922 51.8691 63.0321 51.6229C61.7767 51.4998 60.5355 51.2898 59.2872 51.1378C58.1587 51.0002 57.9119 51.2319 57.9119 52.3687C57.9119 61.3258 57.9119 70.29 57.9119 79.2471C57.9119 79.5512 57.9119 79.8626 57.9119 80.2753ZM28.0793 80.2753V79.2833C28.0793 70.29 28.0793 61.304 28.0793 52.3108C28.0793 51.2464 27.8183 51.0002 26.7463 51.1305C25.5544 51.2681 24.3766 51.4636 23.1847 51.6012C20.4765 51.9198 18.396 50.8626 16.9149 48.5238C16.7809 48.3138 16.5341 48.0314 16.3296 48.0314C14.5311 47.9952 12.7257 48.0097 10.8708 48.0097C10.8708 48.4586 10.8708 48.77 10.8708 49.0813C10.8708 58.1977 10.8708 67.314 10.8708 76.4304C10.8708 79.0081 12.0839 80.2608 14.5946 80.2681C18.1915 80.2753 21.7883 80.2681 25.3781 80.2681C26.2315 80.2681 27.0919 80.2681 28.0722 80.2681L28.0793 80.2753ZM36.6553 8.40897C34.7299 7.64143 32.7411 6.73632 30.6817 6.04843C26.6758 4.71609 22.5923 4.14406 18.4595 5.39674C17.8177 5.59225 17.1336 6.10635 16.7457 6.67839C15.2435 8.9086 14.5946 11.4646 14.4183 14.1438C14.0798 19.1835 15.3845 23.8829 17.3593 28.4229C17.8247 29.4946 18.5794 29.9725 19.7219 29.8132C20.6599 29.6828 21.5979 29.4584 22.4865 29.1253C27.3176 27.3078 31.5633 24.4114 35.7173 21.3703C35.8724 21.2616 36.0487 21.0299 36.0346 20.8706C35.9571 19.8135 35.8301 18.7635 35.6961 17.4674C34.0952 17.4457 32.4378 17.3008 30.8016 17.4239C29.4404 17.5253 28.0934 17.9308 26.7463 18.2204C25.4204 18.5028 24.2497 17.8656 23.8829 16.6419C23.5162 15.411 24.1298 14.1655 25.3993 13.7093C26.0904 13.4559 26.8098 13.2894 27.5292 13.1228C30.3714 12.4784 33.2347 12.3915 36.1475 12.8911C36.3167 11.414 36.4719 10.0165 36.6553 8.39449V8.40897ZM50.2668 17.6701C50.1681 18.7635 50.0412 19.7266 50.0059 20.6968C49.9989 20.9575 50.2175 21.334 50.4432 21.4789C53.2783 23.3543 56.0641 25.3383 59.0121 27.0109C61.008 28.1405 63.2084 28.937 65.3806 29.6611C67.2214 30.2766 68.103 29.7046 68.8647 27.9016C70.1835 24.7952 71.1709 21.5802 71.5023 18.1987C71.8902 14.1945 71.4812 10.3278 69.3724 6.80149C68.914 6.03395 68.3075 5.56328 67.4471 5.32433C64.3086 4.45542 61.1773 4.60748 58.053 5.28813C54.978 5.96154 52.0794 7.1056 49.3571 8.53931C49.5334 10.0599 49.6956 11.4719 49.8225 12.5942C51.4658 12.5942 52.9821 12.4567 54.4632 12.6304C56.5296 12.8694 58.589 13.2532 60.606 13.7528C61.8966 14.0714 62.482 15.4399 62.1153 16.6709C61.7626 17.8584 60.6131 18.5101 59.3365 18.2422C59.0333 18.177 58.7441 18.0684 58.4479 17.9887C55.7397 17.2791 53.0103 17.0402 50.2668 17.6701ZM45.7743 25.5628C45.7814 25.7076 45.7814 25.8958 45.8166 26.0769C46.4232 29.7697 47.0367 33.4699 47.6433 37.1627C48.2568 40.8918 48.8704 44.6137 49.4911 48.3428C49.8155 50.2761 51.0497 50.7902 52.5731 49.6316C53.4335 48.9727 54.2939 48.3065 55.1543 47.6476C56.1911 46.8511 57.3689 46.3298 58.6524 46.3805C60.1829 46.4456 61.6992 46.7135 63.2225 46.8873C64.8164 47.0756 65.6628 46.0039 65.1409 44.4326C63.9701 40.9498 62.7923 37.4741 61.5793 34.0057C61.4664 33.6726 61.1491 33.3033 60.8317 33.173C56.2475 31.2034 52.03 28.575 48.0382 25.5628C47.2131 24.94 46.5713 24.8314 45.7743 25.5628ZM40.2451 25.5917C39.3917 24.7445 38.7358 24.9835 37.9318 25.5845C33.9329 28.5895 29.7225 31.2252 25.1242 33.1802C24.8562 33.2961 24.56 33.5857 24.4613 33.8609C23.2129 37.4451 21.9787 41.0366 20.7798 44.6426C20.3355 45.9822 21.2312 47.0466 22.6135 46.9018C23.495 46.8077 24.3837 46.6991 25.2582 46.5253C27.5362 46.0763 29.5744 46.4963 31.3869 48.0459C32.1627 48.712 32.9879 49.3203 33.8272 49.9068C34.5818 50.4426 35.4775 50.3702 35.9782 49.6751C36.2674 49.2696 36.4296 48.712 36.5142 48.2052C37.1983 44.2009 37.8542 40.1967 38.5101 36.1852C39.0955 32.6444 39.6667 29.1108 40.2451 25.5845V25.5917ZM19.207 34.7515C19.1436 34.6791 19.1295 34.6429 19.1083 34.6357C18.9884 34.6067 18.8756 34.5705 18.7557 34.556C16.0545 34.2157 14.1644 32.7458 13.0854 30.1897C12.6975 29.2629 12.3096 28.336 11.9922 27.3875C11.4633 25.8162 10.9837 24.2232 10.4688 22.5795C9.62251 22.5795 8.76209 22.565 7.90872 22.5795C5.99041 22.6157 4.64335 23.9553 4.6363 25.9103C4.61514 30.5807 4.61514 35.2439 4.6363 39.9143C4.64335 41.8331 5.96925 43.2234 7.80999 43.2451C10.4547 43.2813 13.0924 43.2451 15.7371 43.2741C16.2238 43.2741 16.4354 43.0931 16.5835 42.6441C17.4016 40.1677 18.2479 37.7058 19.0871 35.2366C19.1436 35.0629 19.1788 34.8891 19.2141 34.7515H19.207ZM66.6995 34.6284C67.6728 37.4669 68.5966 40.1967 69.5558 42.912C69.6193 43.0858 69.9719 43.2451 70.1905 43.2451C72.8917 43.2669 75.5999 43.2886 78.3011 43.2451C79.9584 43.2162 81.3337 41.8621 81.3478 40.1822C81.3901 35.3235 81.3901 30.4721 81.3478 25.6134C81.3337 24.0928 80.0783 22.746 78.6255 22.6229C77.5888 22.536 76.545 22.6085 75.5999 22.6085C74.81 24.8966 74.0342 27.1196 73.2725 29.3425C72.2005 32.4561 70.1341 34.3098 66.6995 34.6357V34.6284ZM42.9533 21.1168C44.9421 21.1168 45.6826 20.3058 45.5345 18.2784C45.3653 15.8309 45.196 13.3835 45.0126 10.9361C44.921 9.72682 44.1028 8.88688 43.0308 8.85791C41.9306 8.82895 41.0561 9.7051 40.9644 10.9505C40.7811 13.4269 40.6047 15.9106 40.4425 18.387C40.3156 20.2914 41.0773 21.1168 42.9533 21.1168Z" fill="#FFAF01"/>
</svg>
