<svg width="219" height="43" viewBox="0 0 219 43" fill="none" xmlns="http://www.w3.org/2000/svg">
<path d="M41.8551 30.1963C48.8582 19.8427 48.4618 7.34654 40.9679 2.26881C33.474 -2.80891 21.714 1.47601 14.7109 11.8202C7.70782 22.1739 8.10428 34.67 15.5982 39.7477C23.0921 44.8255 34.852 40.5405 41.8551 30.1963Z" fill="white"/>
<path d="M73.2466 19.163C72.954 19.4461 72.4349 19.5971 71.7081 19.5971H62.9873C62.3172 19.5971 61.817 19.4461 61.4867 19.163C61.1658 18.8704 60.9958 18.3607 60.9958 17.6623V9.48884C60.9958 8.79042 61.1468 8.27132 61.4489 7.99761C61.732 7.72391 62.2511 7.58233 62.9778 7.58233H71.6987C72.4254 7.58233 72.9445 7.7239 73.2371 8.01649C73.5297 8.29963 73.6808 8.80929 73.6808 9.51715V17.6528C73.6808 18.3513 73.5297 18.8704 73.2371 19.1535M70.4529 10.527C70.4529 10.376 70.434 10.2816 70.3868 10.2345C70.3301 10.1873 70.2358 10.1684 70.0659 10.1684H64.5918C64.4408 10.1684 64.3275 10.1873 64.2992 10.2345C64.252 10.2722 64.2237 10.3572 64.2237 10.5082V16.643C64.2237 16.8223 64.252 16.9167 64.2992 16.9544C64.337 16.9922 64.4408 17.0016 64.5918 17.0016H70.0659C70.2264 17.0016 70.3301 16.9827 70.3868 16.9544C70.4245 16.9167 70.4529 16.8128 70.4529 16.643V10.5365V10.527ZM82.2128 35.3211C82.1279 35.4155 82.0429 35.4532 81.9674 35.4532H66.6493C65.9037 35.4532 65.394 35.3116 65.1109 35.0285C64.8372 34.7453 64.7051 34.2923 64.7051 33.6977V29.224C64.7051 28.6294 64.8277 28.1953 65.1014 27.9404C65.3751 27.6762 65.8753 27.544 66.6304 27.544H78.0318C78.2017 27.544 78.3149 27.5157 78.3526 27.4402C78.3904 27.4025 78.4092 27.2892 78.4092 27.1099V25.6092C78.4092 25.4016 78.3904 25.2789 78.3526 25.2222C78.3149 25.1845 78.2016 25.1562 78.0034 25.1562H65.0449C64.9505 25.1562 64.8655 25.1279 64.7806 25.0524C64.6956 24.9957 64.6579 24.9202 64.6579 24.8164V22.9571C64.6579 22.8721 64.6956 22.7778 64.7806 22.6928C64.8655 22.6079 64.9599 22.5701 65.0449 22.5701H79.6457C80.4479 22.5701 80.9576 22.7117 81.2313 22.9571C81.5145 23.2214 81.6371 23.6838 81.6371 24.3162V28.2236C81.6371 28.8748 81.5145 29.3278 81.2313 29.5638C80.9576 29.8092 80.4385 29.9413 79.6457 29.9413H68.3482C68.1783 29.9413 68.065 29.9602 68.0272 30.0074C67.9895 30.0546 67.9612 30.149 67.9612 30.3V32.5085C67.9612 32.6878 67.98 32.7916 68.0272 32.8105C68.065 32.8388 68.1784 32.8483 68.3766 32.8483H81.9674C82.0618 32.8483 82.1562 32.886 82.2411 32.9615C82.3261 33.037 82.3733 33.1314 82.3733 33.2541V35.0568C82.3733 35.1512 82.3261 35.2361 82.2411 35.3211M81.2406 19.7104H78.7018C78.6075 19.7104 78.5225 19.6726 78.4375 19.5971C78.3432 19.531 78.2959 19.4272 78.2959 19.3045V7.02548C78.2959 6.94054 78.3432 6.84616 78.4375 6.77065C78.5225 6.69515 78.6169 6.67627 78.7018 6.67627H81.2406C81.5238 6.67627 81.6465 6.77065 81.6465 7.02548V19.3045C81.6465 19.5782 81.5238 19.7009 81.2406 19.7009" fill="#3E3A39"/>
<path d="M100.136 13.6605C100.136 14.4816 99.966 15.2744 99.6357 16.02C99.3148 16.7751 98.8522 17.4358 98.2482 18.0115C97.6536 18.5967 96.9269 19.0497 96.0775 19.3706C95.2091 19.7198 94.2747 19.8802 93.2271 19.8802C92.1795 19.8802 91.2451 19.7198 90.4051 19.3706C89.5557 19.0403 88.8383 18.5872 88.2437 18.0115C87.6491 17.4452 87.1773 16.7845 86.8564 16.02C86.526 15.2744 86.375 14.4911 86.375 13.6605C86.375 12.8299 86.526 12.0088 86.8564 11.2538C87.1773 10.4987 87.6397 9.82861 88.2437 9.26232C88.8383 8.6866 89.5557 8.23357 90.4051 7.89379C91.2451 7.54458 92.1889 7.38413 93.2271 7.38413C94.2653 7.38413 95.2091 7.54458 96.0775 7.89379C96.9269 8.23357 97.6536 8.6866 98.2482 9.26232C98.8522 9.82861 99.3053 10.4893 99.6357 11.2538C99.966 12.0088 100.136 12.8205 100.136 13.6605ZM96.9929 13.6605C96.9929 13.1508 96.8985 12.6695 96.7286 12.2448C96.5493 11.7918 96.2945 11.4048 95.9736 11.0839C95.6527 10.7536 95.2563 10.4893 94.7939 10.2911C94.3408 10.1023 93.8123 9.9985 93.2366 9.9985C92.6608 9.9985 92.1701 10.1023 91.7076 10.2911C91.2451 10.4987 90.8487 10.7536 90.5184 11.0839C90.188 11.4048 89.9426 11.7918 89.7633 12.2448C89.5934 12.6695 89.5084 13.1508 89.5084 13.6605C89.5084 14.1702 89.5934 14.6138 89.7633 15.029C89.9332 15.4726 90.188 15.8596 90.5184 16.1805C90.8487 16.5014 91.2451 16.7657 91.7076 16.9639C92.1606 17.1526 92.6703 17.2564 93.2366 17.2564C93.8028 17.2564 94.3314 17.1526 94.7939 16.9639C95.2563 16.7562 95.6527 16.5014 95.9736 16.1805C96.304 15.8596 96.5587 15.4726 96.7286 15.029C96.8985 14.6043 96.9929 14.1418 96.9929 13.6605ZM107.356 35.3305C107.271 35.406 107.177 35.4532 107.12 35.4532H91.717C90.962 35.4532 90.4523 35.3211 90.1786 35.0379C89.9143 34.7548 89.7822 34.3018 89.7822 33.7071V29.2712C89.7822 28.6766 89.9143 28.233 90.1786 27.9687C90.4429 27.7139 90.9431 27.5818 91.6887 27.5818H103.175C103.326 27.5818 103.42 27.5535 103.467 27.4968C103.496 27.4402 103.524 27.327 103.524 27.1571V25.6753C103.524 25.4676 103.496 25.3261 103.467 25.2883C103.42 25.2317 103.317 25.2128 103.147 25.2128H90.1314C90.037 25.2128 89.952 25.2034 89.8671 25.1279C89.7727 25.0618 89.7349 24.9674 89.7349 24.8825V23.0232C89.7349 22.9382 89.7821 22.8344 89.8671 22.7589C89.952 22.6739 90.037 22.6362 90.1314 22.6362H104.798C105.582 22.6362 106.11 22.7589 106.374 23.0137C106.629 23.278 106.761 23.7216 106.761 24.3539V28.2425C106.761 28.9031 106.629 29.3656 106.374 29.6015C106.11 29.8375 105.582 29.9696 104.798 29.9696H93.4064C93.2459 29.9696 93.1422 29.998 93.1139 30.0357C93.0761 30.0923 93.0572 30.1867 93.0572 30.3283V32.5274C93.0572 32.6878 93.0761 32.7916 93.1139 32.82C93.1516 32.8388 93.2554 32.8672 93.4347 32.8672H107.101C107.196 32.8672 107.29 32.9049 107.375 32.971C107.46 33.037 107.507 33.1409 107.507 33.2636V35.0662C107.507 35.1606 107.46 35.2456 107.375 35.3305M110.423 14.963C110.338 15.0385 110.244 15.0857 110.15 15.0857H106.761V19.38C106.761 19.4744 106.724 19.5594 106.648 19.6443C106.573 19.7198 106.488 19.7764 106.384 19.7764H103.817C103.722 19.7764 103.637 19.7292 103.552 19.6443C103.477 19.5594 103.43 19.465 103.43 19.3517V7.04436C103.43 6.79897 103.552 6.67627 103.807 6.67627H106.374C106.629 6.67627 106.752 6.79897 106.752 7.04436V12.3769H110.14C110.235 12.3769 110.329 12.4147 110.414 12.4807C110.508 12.5468 110.546 12.6223 110.546 12.7167V14.6893C110.546 14.7836 110.508 14.8686 110.414 14.9535" fill="#3E3A39"/>
<path d="M133.066 16.5869C132.754 16.9172 132.179 17.0682 131.339 17.0682H126.468V19.7487H137.351C137.445 19.7487 137.539 19.777 137.634 19.8714C137.738 19.9658 137.785 20.0413 137.785 20.1451V21.995C137.785 22.0893 137.738 22.1837 137.634 22.2875C137.539 22.4008 137.445 22.4385 137.351 22.4385H112.245C112.132 22.4385 112.037 22.4008 111.962 22.3064C111.886 22.212 111.858 22.1082 111.858 21.995V20.1451C111.858 19.8714 111.99 19.7487 112.255 19.7487H123.174V17.0682H118.295C117.427 17.0682 116.841 16.9172 116.53 16.6435C116.219 16.3415 116.077 15.8224 116.077 15.0673V7.413C116.077 7.31862 116.115 7.23368 116.19 7.15817C116.266 7.11098 116.36 7.07323 116.455 7.07323H118.993C119.088 7.07323 119.182 7.11098 119.267 7.15817C119.361 7.23368 119.39 7.31862 119.39 7.413V9.63097H130.234V7.38469C130.234 7.29031 130.281 7.19593 130.357 7.12986C130.423 7.05435 130.517 7.0166 130.612 7.0166H133.188C133.283 7.0166 133.368 7.05435 133.443 7.12986C133.528 7.19593 133.566 7.29031 133.566 7.38469V15.1523C133.566 15.8035 133.415 16.2754 133.103 16.5869M133.556 35.416C133.472 35.5104 133.387 35.5387 133.292 35.5387H130.8C130.678 35.5387 130.583 35.501 130.499 35.416C130.414 35.3311 130.376 35.2556 130.376 35.1612V27.4502C130.376 27.2614 130.338 27.1387 130.253 27.0916C130.187 27.0255 130.036 27.0066 129.828 27.0066H115.832C115.737 27.0066 115.643 26.9594 115.558 26.8934C115.464 26.8179 115.426 26.7423 115.426 26.6385V24.6376C115.426 24.5338 115.464 24.4489 115.558 24.3828C115.643 24.3167 115.737 24.2979 115.832 24.2979H131.782C132.518 24.2979 133.009 24.4489 133.292 24.7415C133.556 25.034 133.689 25.5248 133.689 26.2421V35.1612C133.689 35.2556 133.651 35.3405 133.556 35.416ZM130.253 12.1793H119.409V14.0008C119.409 14.3217 119.588 14.4822 119.965 14.4822H129.715C130.074 14.4822 130.253 14.3312 130.253 14.0008V12.1793Z" fill="#3E3A39"/>
<path d="M141.645 26.6097C141.494 26.704 141.324 26.7418 141.154 26.7229C140.975 26.704 140.852 26.6191 140.748 26.4681L139.625 24.9863C139.493 24.8164 139.474 24.6465 139.559 24.5049C139.653 24.3634 139.748 24.2501 139.889 24.1746C141.107 23.4479 142.258 22.5984 143.353 21.6452C144.448 20.6919 145.439 19.682 146.317 18.6439C147.195 17.5868 147.931 16.5014 148.544 15.4066C149.158 14.3117 149.601 13.2547 149.875 12.2542C149.941 11.9333 149.95 11.7162 149.903 11.6313C149.837 11.5369 149.648 11.4897 149.328 11.4897H141.881C141.758 11.4897 141.673 11.452 141.607 11.367C141.541 11.2915 141.503 11.1783 141.503 11.0744V9.18682C141.503 8.92255 141.645 8.79042 141.919 8.79042H151.31C152.065 8.79042 152.65 8.94143 153.075 9.21513C153.499 9.49828 153.707 9.85693 153.707 10.3005C153.707 10.5459 153.688 10.7913 153.65 11.0556C153.613 11.3198 153.565 11.5369 153.499 11.7446C153.235 12.7356 152.876 13.7454 152.423 14.7365C151.97 15.7369 151.423 16.7562 150.762 17.7567C151.13 18.2474 151.545 18.7665 152.027 19.2951C152.508 19.8331 153.008 20.3522 153.537 20.8524C154.047 21.362 154.556 21.8434 155.047 22.2587C155.557 22.7211 156.01 23.0798 156.416 23.3629C156.538 23.4479 156.642 23.5706 156.689 23.731C156.727 23.882 156.708 24.0236 156.586 24.1746L155.349 25.5526C155.094 25.8169 154.783 25.8357 154.396 25.6092C154.047 25.3827 153.641 25.0712 153.169 24.656C152.706 24.269 152.216 23.8065 151.715 23.3346C151.206 22.8438 150.715 22.3247 150.243 21.7773C149.762 21.2393 149.328 20.7202 148.95 20.22C147.969 21.3998 146.864 22.5418 145.656 23.6272C144.439 24.6937 143.108 25.6942 141.645 26.5908M162.211 35.1323C162.211 35.3683 162.069 35.491 161.805 35.491H159.266C159.172 35.491 159.068 35.4532 159.002 35.3966C158.907 35.3305 158.869 35.2361 158.869 35.1323V7.04436C158.869 6.95942 158.917 6.86503 159.002 6.79897C159.077 6.71402 159.172 6.67627 159.266 6.67627H161.805C162.079 6.67627 162.211 6.79897 162.211 7.04436V35.1606V35.1323Z" fill="#3E3A39"/>
<path d="M168.006 26.6665C167.892 26.7514 167.741 26.808 167.572 26.808C167.402 26.808 167.251 26.7514 167.147 26.6004L165.958 25.2602C165.863 25.1375 165.835 24.9865 165.844 24.8354C165.863 24.6844 165.958 24.5429 166.109 24.439C167.26 23.6557 168.327 22.7779 169.299 21.768C170.252 20.7865 171.12 19.7483 171.856 18.6723C172.583 17.5869 173.187 16.5016 173.669 15.4067C174.15 14.3213 174.49 13.2831 174.678 12.311C174.716 12.0467 174.716 11.858 174.678 11.773C174.641 11.6692 174.499 11.6126 174.244 11.6126H167.987C167.883 11.6126 167.807 11.5748 167.751 11.4899C167.694 11.405 167.666 11.3011 167.666 11.1973V9.39463C167.666 9.12092 167.779 8.96991 168.015 8.96991H175.896C176.736 8.96991 177.34 9.10204 177.699 9.36631C178.038 9.63058 178.227 10.0081 178.227 10.4989C178.227 10.6593 178.227 10.8575 178.218 11.0746C178.218 11.2823 178.189 11.471 178.152 11.6503C177.935 12.7357 177.633 13.7928 177.246 14.831C176.868 15.8786 176.406 16.9074 175.868 17.9173C176.16 18.4269 176.491 18.9177 176.868 19.4463C177.255 19.9654 177.67 20.4845 178.076 20.9752C178.51 21.4566 178.916 21.9002 179.313 22.2871C179.709 22.6835 180.068 22.995 180.398 23.2215C180.606 23.3725 180.709 23.5141 180.691 23.6557C180.691 23.7972 180.606 23.9483 180.483 24.0898L179.388 25.4017C179.124 25.7321 178.793 25.7415 178.416 25.4395C178.123 25.2318 177.793 24.9581 177.444 24.5995C177.085 24.2597 176.717 23.8633 176.33 23.4386C175.952 23.0139 175.575 22.542 175.207 22.0512C174.839 21.5698 174.509 21.0885 174.197 20.5977C172.527 22.9006 170.46 24.9393 168.025 26.6853M187.288 7.05396C187.288 6.81801 187.429 6.69531 187.684 6.69531H190.176C190.431 6.69531 190.553 6.81801 190.553 7.05396V35.1702C190.553 35.4062 190.431 35.5383 190.176 35.5383H187.665C187.42 35.5383 187.288 35.4156 187.288 35.1702V19.6161H184.89V34.0848C184.89 34.2075 184.853 34.3019 184.768 34.3774C184.673 34.4435 184.588 34.4812 184.494 34.4812H182.163C182.04 34.4812 181.936 34.4435 181.851 34.3774C181.776 34.3019 181.719 34.2075 181.719 34.0848V7.55418C181.719 7.45036 181.776 7.36542 181.851 7.28992C181.936 7.22385 182.04 7.1861 182.163 7.1861H184.494C184.588 7.1861 184.673 7.22385 184.768 7.28992C184.862 7.35598 184.89 7.44093 184.89 7.55418V16.898H187.288V7.03509V7.05396Z" fill="#3E3A39"/>
<path d="M210.345 20.2581C210.241 20.3242 210.138 20.3902 210.043 20.4091C209.345 20.6262 208.448 20.7961 207.429 20.9471C206.372 21.0887 205.277 21.2114 204.107 21.3057C202.936 21.3812 201.785 21.4662 200.633 21.4945C199.482 21.5323 198.434 21.5323 197.49 21.4945C196.858 21.4662 196.349 21.3057 195.99 21.0132C195.603 20.73 195.424 20.2675 195.424 19.6069V10.1026C195.424 9.45142 195.565 8.97951 195.848 8.71524C196.103 8.45097 196.632 8.31884 197.358 8.31884H207.504C207.778 8.31884 207.91 8.43209 207.91 8.68692V10.6595C207.91 10.8955 207.769 11.0087 207.504 11.0087H199.255C198.906 11.0087 198.736 11.1597 198.736 11.4901V17.9835C198.736 18.295 198.793 18.4932 198.887 18.5781C198.991 18.6631 199.237 18.7291 199.614 18.7386C200.218 18.7858 200.926 18.7858 201.757 18.7669C202.578 18.7291 203.427 18.6819 204.314 18.6159C205.211 18.5498 206.107 18.4649 207.014 18.3516C207.91 18.2478 208.76 18.0968 209.552 17.9552C209.883 17.9174 210.072 18.0024 210.128 18.2761L210.449 19.8428C210.487 20.0599 210.449 20.1826 210.345 20.2487M216.188 34.9533C216.112 35.0005 216.027 35.0383 215.914 35.0383H200.662C199.793 35.0383 199.208 34.8872 198.916 34.5852C198.623 34.2738 198.472 33.7547 198.472 33.0279V27.0347C198.472 26.9403 198.519 26.8554 198.604 26.7516C198.68 26.6761 198.774 26.6289 198.868 26.6289H201.351C201.483 26.6289 201.568 26.6666 201.662 26.7421C201.757 26.8365 201.785 26.9403 201.785 27.0441V31.8859C201.785 32.0841 201.832 32.1974 201.898 32.254C201.983 32.3106 202.106 32.3295 202.294 32.3295H215.914C216.027 32.3295 216.112 32.3673 216.188 32.4428C216.282 32.5088 216.329 32.6127 216.329 32.6976V34.6985C216.329 34.8117 216.291 34.8872 216.188 34.9627M218.868 17.8986C218.774 17.9646 218.698 17.9929 218.604 17.9929H215.206V25.2792C215.206 25.5246 215.083 25.6567 214.828 25.6567H212.252C211.997 25.6567 211.884 25.5246 211.884 25.2792V7.05412C211.884 6.80873 211.997 6.68604 212.252 6.68604H214.828C215.083 6.68604 215.206 6.80873 215.206 7.05412V15.2936H218.604C218.698 15.2936 218.783 15.3219 218.868 15.388C218.972 15.4541 219 15.539 219 15.624V17.6626C219 17.7381 218.962 17.8325 218.868 17.8986Z" fill="#3E3A39"/>
<path d="M39.5714 1.18356C42.3745 3.28827 42.1479 7.83746 39.0617 11.7354C35.9848 15.6334 31.379 16.7565 28.5853 14.6424C25.7822 12.5282 25.8388 7.97903 28.9251 4.08107C32.0019 0.192553 36.7777 -0.930587 39.5714 1.193" fill="#E60012"/>
<path d="M51.9352 11.8014C50.5101 7.78071 45.5739 3.17489 40.6189 1.66478C45.253 6.17622 46.4799 17.2283 40.1846 26.0435C32.9456 36.1896 21.9974 40.9558 15.7116 36.6898C9.4352 32.4237 10.8793 20.7487 18.1183 10.6027C21.8559 5.36454 27.6319 1.11737 34.6822 0.0225451C29.6045 -0.15678 23.1205 0.749282 19.4207 2.18388C5.10302 7.73352 -3.08922 20.5788 1.09188 30.8948C5.29186 41.2012 20.459 45.4673 34.5973 39.5212C47.8957 33.9527 55.7105 22.3721 51.9258 11.8108" fill="#00A040"/>
</svg>
