<svg width="272" height="45" viewBox="0 0 272 45" fill="none" xmlns="http://www.w3.org/2000/svg">
<path fill-rule="evenodd" clip-rule="evenodd" d="M41.3888 35.6481C28.0963 32.2327 17.4809 34.2058 17.4809 34.2058C22.927 30.2019 33.8194 31.1712 39.1272 32.7289C48.0465 35.3597 58.2581 33.9635 59.5735 27.0173C60.8081 20.5096 56.8735 14.7172 52.108 11.0364C46.6734 6.81331 40.1426 7.67871 36.6233 9.53641C32.931 11.4864 31.2118 16.7249 35.2733 21.5019C39.1849 26.0942 46.3619 26.775 50.4004 24.2019C54.4388 21.6288 52.0273 15.9634 52.0273 15.9634C54.058 18.7557 55.2696 21.7096 54.1043 25.2173C53.1581 28.0558 49.1426 30.7212 43.3849 30.3058C37.6272 29.8904 28.0732 25.9096 25.4886 15.6518C22.8924 5.39407 31.754 0.386344 39.7041 0.017111C47.2849 -0.329045 58.2696 4.58637 63.3581 13.898C68.5851 23.4634 66.3005 28.4481 63.8081 31.8289C62.0197 34.252 54.6811 39.052 41.3772 35.6251L41.3888 35.6481Z" fill="url(#paint0_linear_36_21)"/>
<path fill-rule="evenodd" clip-rule="evenodd" d="M56.0543 41.5447C50.3196 40.8755 36.9695 36.2831 28.131 36.0408C18.6348 35.787 11.7347 41.2332 7.78852 42.0524C3.85387 42.8716 0 42.3986 0 42.3986C1.48847 42.9063 7.78854 45.2601 14.227 42.4563C20.654 39.6524 28.6617 40.4716 33.9002 41.4409C39.1387 42.4216 46.6619 44.5793 54.3235 44.9717C61.9735 45.364 67.5697 41.2909 67.5697 41.2909C67.5697 41.2909 61.7889 42.2139 56.0543 41.5447Z" fill="#7DC242"/>
<path d="M83.4237 19.6325L82.339 20.7518L81.5429 21.0402L82.3159 21.1671H83.7582L84.0121 21.5479L83.2391 23.6364L77.5967 27.698L76.8929 27.571L75.6813 25.9672L76.2582 25.1018L76.3505 24.8133L77.8621 22.3787L78.7275 21.2941L78.9467 20.8787L79.8121 19.4364L80.1698 18.3171L75.4275 19.3787L74.689 19.1825L73.5005 17.9363L73.5582 17.6479L78.5198 16.7825L78.3929 15.721L77.5621 14.8209L74.8044 12.9286L74.7697 12.444L77.839 11.5786L78.7621 11.6709L79.0506 12.4786C79.2467 12.9055 79.6159 13.4132 80.1698 14.0132C80.6659 14.544 80.9313 14.8094 80.9659 14.8094L80.5159 16.3786L80.9659 16.7363L84.6122 17.6017L84.9352 18.1787L83.4006 19.621L83.4237 19.6325ZM79.6736 22.5748L78.4852 23.821L78.1274 24.4672L78.1967 24.8479L79.4775 24.9402L80.0544 24.271L80.7583 23.3133L80.8275 22.5748H79.6736ZM88.9621 22.5748L88.0967 21.7441L89.0198 14.8209L88.6391 14.6017L88.8352 13.4825L92.3199 13.4479L92.8045 14.6017L91.4314 20.0825L91.9391 20.4056L93.8314 20.2787L96.2661 19.5748L98.5045 20.8902L98.2507 21.9748L94.2468 22.5172L90.1737 24.8595L89.6891 25.021L89.7583 25.3095L88.3852 25.6672L87.3583 26.0249L86.5275 28.8749L87.4276 29.2903L90.9814 28.6441L93.2891 28.448L95.9084 27.871L96.9007 28.6441L95.5507 30.3403L92.216 30.7211L91.6391 31.5172L83.7929 32.6365L82.4198 32.2557V29.5326L86.1006 26.071L87.4737 24.8595L89.6545 22.7133L88.9506 22.5864L88.9621 22.5748Z" fill="#231F20"/>
<path d="M114.139 18.2021L114.589 18.4213L114.751 19.3213L112.674 20.7983L110.528 21.0175L109.535 22.2406L109.478 26.5329L113.989 29.706L113.793 32.9137L112.293 33.6176L110.366 32.9137L109.662 30.1906L106.328 30.156L102.681 30.9868L102.07 29.833L104.828 27.4906L106.812 26.9829L106.558 25.4483L107.066 22.5291L106.524 21.9521L102.393 23.2329L100.212 23.7175L99.8315 22.3098L100.028 21.7329H101.666L106.339 20.6137V20.0367L108.901 15.2367L109.062 14.6021L108.232 13.7713L105.993 14.2559L105.001 14.1867L103.362 14.8559H101.885L100.57 13.6444L100.766 12.5828L110.251 10.9213L112.201 10.6328L112.905 12.4905V13.2867L109.858 19.0213L110.366 19.529L112.547 18.9867L114.151 18.2136L114.139 18.2021Z" fill="#231F20"/>
<path d="M132.532 29.0829L130.097 29.4636L124.039 32.5444L121.57 32.7983L120.901 32.5444V29.3367L123.751 26.0021L125.066 21.9636L124.143 21.1674L121.87 21.2597L120.139 22.2867L118.351 22.3559L117.682 20.8213L116.02 18.2597L116.343 11.602L117.116 11.4404L119.32 11.925L119.447 13.4366L120.889 18.2136L121.72 19.0097L128.932 18.9751L131.401 20.3251L130.986 20.8328L129.762 20.9943L127.616 22.6559L125.851 27.2021L126.393 28.229L129.174 27.5252L132.693 27.3982L132.532 29.0944V29.0829Z" fill="#231F20"/>
<path d="M140.539 18.8941L140.505 19.4018L137.205 23.2441L133.847 23.8903L132.947 22.3211L132.878 21.2364L132.624 20.9826L132.532 20.1518L133.27 19.3787L135.128 15.1556L135.959 14.5787L138.232 14.521L138.359 15.2595L137.943 15.5825L138.289 16.1595L141.682 15.9633L142.743 16.3787V17.0826L140.528 18.9057L140.539 18.8941ZM136.663 17.7056L135.797 20.1403L135.866 21.0057L136.766 20.8787L137.793 19.8864L138.566 19.5633L138.636 18.4787L136.686 17.7056H136.663ZM142.686 24.4903H143.516L143.228 28.0096L143.805 28.5519L144.636 27.8826H145.951L151.328 26.2788H152.124V27.9403L149.782 29.0596H149.366L146.609 30.6288L140.909 30.9173L140.205 31.1711L139.086 31.1134L139.409 30.3173L139.605 28.3326L139.674 27.7211L139.87 25.898L142.686 24.4903ZM148.893 18.8595L148.732 21.0057L148.247 22.7711L145.847 23.1865L144.82 23.8211L144.532 23.2788L145.743 19.4941L145.42 18.1787L145.743 14.7864L145.42 13.7595L145.743 13.021L149.493 13.1825L149.424 17.6941L148.882 18.848L148.893 18.8595Z" fill="#231F20"/>
<path d="M158.401 18.8941L158.367 19.4018L155.067 23.2441L151.697 23.8903L150.797 22.3211L150.728 21.2364L150.474 20.9826L150.382 20.1518L151.12 19.3787L152.978 15.1556L153.809 14.5787L156.082 14.521L156.209 15.2595L155.793 15.5825L156.14 16.1595L159.532 15.9633L160.582 16.3787V17.0826L158.378 18.9057L158.401 18.8941ZM154.524 17.7056L153.659 20.1403L153.716 21.0057L154.616 20.8787L155.643 19.8864L156.417 19.5633L156.486 18.4787L154.536 17.7056H154.524ZM160.547 24.4903H161.378L161.09 28.0096L161.667 28.5519L162.497 27.8826H163.813L169.19 26.2788H169.997V27.9403L167.655 29.0596H167.24L164.482 30.6288L158.782 30.9173L158.078 31.1711L156.959 31.1134L157.282 30.3173L157.478 28.3326L157.547 27.7211L157.743 25.898L160.559 24.4903H160.547ZM166.767 18.8595L166.605 21.0057L166.12 22.7711L163.72 23.1865L162.693 23.8211L162.405 23.2788L163.617 19.4941L163.294 18.1787L163.617 14.7864L163.294 13.7595L163.617 13.021L167.367 13.1825L167.297 17.6941L166.755 18.848L166.767 18.8595Z" fill="#231F20"/>
<path d="M175.87 20.1746L176.159 23.2554L176.609 24.1208L178.917 23.9246L179.851 22.9669L180.751 22.7131L182.228 21.7207L182.574 22.0438L181.49 23.8323L180.855 25.4015L177.359 26.7169L176.563 26.8092L176.078 27.0977L173.39 27.5477L172.905 26.9708L172.813 25.24L171.878 21.7784L172.074 20.913L173.194 20.0823L175.017 17.7169L175.178 16.5976L174.728 16.0553L170.401 16.2169L169.317 14.1399L169.478 13.5053L177.001 13.4361L177.324 13.6322L179.09 16.2861L178.997 17.2207L175.894 20.1977L175.87 20.1746ZM187.213 12.3284L190.64 11.8438L191.251 12.3514L191.182 15.5822L190.605 17.9246L189.394 22.8284L189.74 23.2784L191.955 22.09L192.371 21.3515L194.424 20.8438L195.348 21.3515L195.221 22.8515V23.9131L193.398 32.1747L191.436 32.3708L190.374 31.54L190.628 29.8785L191.748 27.0285L191.078 26.3592L189.186 26.8092L186.301 28.6669L183.255 29.0477L181.305 28.54L181.109 27.2246L184.178 26.7169L187.986 24.5131L186.994 24.0285L187.317 20.4053L186.936 19.9207L182.736 21.8707L182.482 21.64L179.851 21.6746L179.217 20.9361L180.14 19.8169L186.959 18.1553L187.34 18.2823L187.305 14.4745L186.821 12.5476L187.167 12.3284H187.213ZM180.97 14.9245L185.874 14.0938L187.155 14.2207L186.809 14.9592L185.817 16.0784L182.621 16.9784L180.094 16.2746L179.644 15.3168L180.994 14.9361L180.97 14.9245Z" fill="#231F20"/>
<path d="M204.636 28.5867C204.59 28.6559 204.521 28.6905 204.417 28.7136C204.348 28.7367 204.255 28.7482 204.128 28.7482L203.748 28.7136L201.278 26.279C201.175 26.1751 201.14 26.0482 201.186 25.8982C201.209 25.7944 201.278 25.6328 201.405 25.4136C201.486 25.2867 201.555 25.1828 201.601 25.0905C201.671 24.9867 201.717 24.8828 201.763 24.7674C202.017 23.9943 202.075 23.129 201.925 22.1366C201.775 21.2828 201.555 20.6712 201.255 20.3135C201.048 20.2674 200.448 20.2789 199.467 20.3482C198.394 20.452 197.944 20.5097 198.094 20.5097C197.99 20.5097 197.874 20.5328 197.771 20.5789C197.701 20.6251 197.598 20.6712 197.448 20.7405C197.251 20.8674 197.113 20.9482 197.032 20.9597C196.836 21.0289 196.663 21.0289 196.525 20.9597C196.375 20.8097 196.074 20.5559 195.624 20.1866L194.99 19.702C194.99 19.702 194.898 19.5982 194.828 19.3789C194.782 19.1597 194.875 19.0558 195.082 19.0558C195.255 19.0328 195.486 18.952 195.786 18.802C196.086 18.6751 196.224 18.6058 196.201 18.6058L196.998 18.2481L200.782 17.6712L202.098 18.1212L202.928 17.902L203.794 18.1905L204.59 19.9212L206.575 22.102L206.032 26.1405L204.659 28.5751L204.636 28.5867ZM220.432 20.4866L220.721 24.0059L219.244 27.7559L218.321 28.4598L217.202 27.8251L217.328 23.4405L216.948 22.9905L216.498 22.702L213.452 24.5943L213.094 26.2905L211.882 28.8521L210.763 28.6905L210.313 27.3751L209.159 26.0021L209.448 24.3405V20.4059L209.517 19.2174L211.663 15.5366L212.436 15.7904L212.69 20.5674L213.359 21.3405L216.302 20.7289L217.132 20.0251L217.802 15.4097H219.463L220.905 17.6481L221.102 18.8943L220.432 20.4982V20.4866Z" fill="#231F20"/>
<path d="M223.732 13.3788L224.275 14.025L224.944 14.4058L226.19 19.0789L225.775 21.5712L227.021 23.6481L229.294 22.852L230.482 20.6366L230.713 19.102L229.363 19.4827L228.879 19.8981L226.571 19.3212V18.6173L231.082 17.1404L231.821 14.9019L231.913 13.3673L234.855 12.6288L235.398 12.8827L234.048 18.6173L233.252 20.0597L233.632 20.2558L235.386 19.7712L235.456 20.6366L228.798 25.2866L228.313 25.2174L227.54 24.5135L226.19 25.0559L223.432 23.6481L223.363 20.4751L221.99 15.0289L222.152 14.2904L223.686 13.3558L223.732 13.3788ZM238.398 20.8443L237.694 16.3904L238.398 13.2173L239.586 13.1827L239.517 12.2827L238.882 11.6365L239.229 11.1865H241.052L241.467 11.5096V18.3289L241.756 18.7443L242.748 18.525L242.782 17.9481L247.202 16.1827L247.686 16.3789L247.433 18.975L246.786 19.6443L245.125 19.8404L243.013 20.8327L241.121 21.4443L239.459 22.5289L238.975 23.3943L242.079 24.4789H242.979L243.175 25.252L241.859 27.7213V29.3597H243.013L245.956 26.4751L248.102 25.5174L250.986 26.6712L247.525 29.1751L243.844 30.8136L240.348 32.7982L239.263 33.029L238.271 32.3251H237.244L236.702 31.9444L238.398 29.3136L239.263 26.9136L239.044 26.0482L237.959 25.9905L236.032 26.5674L235.075 27.7559L233.667 27.8251L233.09 26.8328L235.202 24.7558L236.102 23.6366L237.89 22.1597L238.398 20.8789V20.8443Z" fill="#231F20"/>
<path d="M265.513 18.8827L265.64 14.4634L265.26 13.3788L265.64 12.6403L269.194 12.8019L269.413 18.6288L268.837 19.875L268.71 22.1135L268.294 23.7519L266.056 24.1673L264.417 25.1943L264.163 24.6173L265.248 22.9789L265.179 21.6981L264.694 21.6288L261.21 25.3789L256.271 28.1943H253.836L253.929 27.2943L254.506 26.302L254.633 23.1058H253.733L250.883 23.7519H248.898L248.483 22.1481L251.079 21.0635L255.371 20.3942L256.144 19.6558L258.613 19.7481L261.683 19.0788L261.879 19.9442L258.29 22.5058L258.417 23.7866L260.31 23.3365L264.983 19.5865L265.49 18.8827H265.513ZM261.025 15.8365L260.448 15.9057L257.31 18.2134L252.694 19.4019L250.744 19.4365V17.9019L251.575 15.1096L256.825 11.6826L257.621 11.8788L258.648 12.9403L260.09 13.4826L261.152 15.1788L261.025 15.848V15.8365ZM255.809 14.0134L254.206 15.8365L254.69 16.898L256.225 16.7711L256.963 16.1596L257.125 14.6249L255.809 14.0134ZM262.894 25.5058L258.44 29.4751V32.1982L259.813 32.5443L267.014 31.552L267.59 30.7789L270.602 30.3981L271.952 28.7366L270.925 27.9404L268.652 28.6097L264.325 28.8981L263.46 29.2212L262.525 28.7712L263.46 26.1173L262.883 25.5058H262.894Z" fill="#231F20"/>
<path d="M76.9275 36.9292H77.5159V39.3408L80.1698 36.9292H80.9314L78.0698 39.4561L81.1736 42.2946H80.3659L77.5044 39.6061V42.2946H76.9159V36.9292H76.9275Z" fill="#231F20"/>
<path d="M82.2237 40.3327C82.2237 39.4211 82.7198 38.6942 83.6545 38.6942C84.5891 38.6942 85.0852 39.4211 85.0852 40.3327C85.0852 41.2442 84.5891 41.9711 83.6545 41.9711C82.7198 41.9711 82.2237 41.2442 82.2237 40.3327ZM81.6352 40.3327C81.6352 41.4058 82.2583 42.3865 83.6429 42.3865C85.0275 42.3865 85.6506 41.4058 85.6506 40.3327C85.6506 39.2596 85.0275 38.2788 83.6429 38.2788C82.2583 38.2788 81.6352 39.2596 81.6352 40.3327Z" fill="#231F20"/>
<path d="M86.666 39.248C86.666 38.8211 86.666 38.6596 86.6314 38.3711H87.1621V39.1211H87.1737C87.3698 38.6827 87.7276 38.2788 88.2814 38.2788C88.4083 38.2788 88.5583 38.3019 88.6507 38.325V38.8327C88.5353 38.798 88.3968 38.7865 88.2583 38.7865C87.416 38.7865 87.1852 39.6519 87.1852 40.3557V42.2942H86.6544V39.248H86.666Z" fill="#231F20"/>
<path d="M89.5968 40.0557C89.5968 39.4096 90.0814 38.6942 90.866 38.6942C91.6507 38.6942 91.9622 39.375 91.9622 40.0557H89.5968ZM92.2276 41.6827C91.9737 41.8327 91.4084 41.9711 91.016 41.9711C90.0814 41.9711 89.5968 41.3019 89.5968 40.4711H92.5506V40.2288C92.5506 39.1788 92.0545 38.2788 90.8314 38.2788C89.7352 38.2788 89.0083 39.1327 89.0083 40.3327C89.0083 41.5327 89.5391 42.3865 90.9698 42.3865C91.3622 42.3865 91.8468 42.3058 92.216 42.1673V41.6711L92.2276 41.6827Z" fill="#231F20"/>
<path d="M95.9892 40.5519C95.9892 40.9788 95.9661 41.9711 94.7084 41.9711C94.2122 41.9711 93.8084 41.775 93.8084 41.2673C93.8084 40.4019 94.9045 40.3211 95.8276 40.3211H95.9776V40.5634L95.9892 40.5519ZM96.0353 42.2942H96.5545C96.5084 42.0288 96.5084 41.7865 96.5084 41.475V39.7442C96.5084 38.7173 96.0584 38.2788 94.9969 38.2788C94.6161 38.2788 94.0622 38.4057 93.7276 38.5442V39.0173C94.1199 38.7865 94.5469 38.6942 94.9969 38.6942C95.7122 38.6942 95.9776 39.0288 95.9776 39.698V39.8942H95.8737C94.7545 39.8942 93.2199 39.9519 93.2199 41.2673C93.2199 41.625 93.4161 42.375 94.6392 42.375C95.1699 42.375 95.7699 42.1211 96.0122 41.6481H96.0353V42.2827V42.2942Z" fill="#231F20"/>
<path d="M100.155 36.9292H100.743V41.8331H103.108V42.2946H100.155V36.9292Z" fill="#231F20"/>
<path d="M106.328 40.5519C106.328 40.9788 106.305 41.9711 105.047 41.9711C104.551 41.9711 104.147 41.775 104.147 41.2673C104.147 40.4019 105.243 40.3211 106.166 40.3211H106.316V40.5634L106.328 40.5519ZM106.374 42.2942H106.893C106.847 42.0288 106.847 41.7865 106.847 41.475V39.7442C106.847 38.7173 106.397 38.2788 105.335 38.2788C104.955 38.2788 104.401 38.4057 104.066 38.5442V39.0173C104.458 38.7865 104.885 38.6942 105.335 38.6942C106.051 38.6942 106.316 39.0288 106.316 39.698V39.8942H106.212C105.093 39.8942 103.558 39.9519 103.558 41.2673C103.558 41.625 103.755 42.375 104.978 42.375C105.508 42.375 106.108 42.1211 106.351 41.6481H106.362V42.2827L106.374 42.2942Z" fill="#231F20"/>
<path d="M111.162 40.3326C111.162 41.0942 110.897 41.9711 109.882 41.9711C108.935 41.9711 108.601 41.048 108.601 40.3326C108.601 39.6172 108.901 38.6942 109.882 38.6942C110.862 38.6942 111.162 39.5711 111.162 40.3326ZM108.082 42.2942H108.612V41.6711H108.624C108.912 42.1672 109.351 42.3865 109.974 42.3865C111.162 42.3865 111.751 41.498 111.751 40.3326C111.751 39.1672 111.243 38.2788 109.974 38.2788C109.132 38.2788 108.705 38.8442 108.624 39.0288H108.612V36.5249H108.082V42.2942Z" fill="#231F20"/>
<path d="M113.078 40.3327C113.078 39.4211 113.574 38.6942 114.509 38.6942C115.443 38.6942 115.939 39.4211 115.939 40.3327C115.939 41.2442 115.443 41.9711 114.509 41.9711C113.574 41.9711 113.078 41.2442 113.078 40.3327ZM112.489 40.3327C112.489 41.4058 113.112 42.3865 114.497 42.3865C115.882 42.3865 116.505 41.4058 116.505 40.3327C116.505 39.2596 115.882 38.2788 114.497 38.2788C113.112 38.2788 112.489 39.2596 112.489 40.3327Z" fill="#231F20"/>
<path d="M117.532 39.248C117.532 38.8211 117.532 38.6596 117.497 38.3711H118.028V39.1211H118.039C118.235 38.6827 118.593 38.2788 119.147 38.2788C119.274 38.2788 119.424 38.3019 119.516 38.325V38.8327C119.401 38.798 119.262 38.7865 119.124 38.7865C118.282 38.7865 118.051 39.6519 118.051 40.3557V42.2942H117.52V39.248H117.532Z" fill="#231F20"/>
<path d="M122.678 36.9292H125.482V37.3907H123.255V39.3061H125.378V39.7677H123.255V42.2946H122.666V36.9292H122.678Z" fill="#231F20"/>
<path d="M126.705 40.3327C126.705 39.4211 127.201 38.6942 128.136 38.6942C129.07 38.6942 129.566 39.4211 129.566 40.3327C129.566 41.2442 129.07 41.9711 128.136 41.9711C127.201 41.9711 126.705 41.2442 126.705 40.3327ZM126.116 40.3327C126.116 41.4058 126.739 42.3865 128.124 42.3865C129.509 42.3865 130.132 41.4058 130.132 40.3327C130.132 39.2596 129.509 38.2788 128.124 38.2788C126.739 38.2788 126.116 39.2596 126.116 40.3327Z" fill="#231F20"/>
<path d="M131.159 39.248C131.159 38.8211 131.159 38.6596 131.124 38.3711H131.655V39.1211H131.666C131.862 38.6827 132.22 38.2788 132.774 38.2788C132.901 38.2788 133.051 38.3019 133.143 38.325V38.8327C133.028 38.798 132.889 38.7865 132.751 38.7865C131.909 38.7865 131.678 39.6519 131.678 40.3557V42.2942H131.147V39.248H131.159Z" fill="#231F20"/>
<path d="M136.628 38.8904C136.339 38.775 135.993 38.6942 135.705 38.6942C134.666 38.6942 134.078 39.375 134.078 40.3327C134.078 41.2211 134.666 41.9711 135.647 41.9711C135.982 41.9711 136.293 41.9019 136.616 41.7981L136.663 42.2481C136.293 42.3635 135.959 42.3865 135.555 42.3865C134.17 42.3865 133.489 41.4288 133.489 40.3327C133.489 39.1211 134.343 38.2788 135.624 38.2788C136.143 38.2788 136.513 38.3827 136.663 38.4288L136.616 38.8904H136.628Z" fill="#231F20"/>
<path d="M137.839 40.0557C137.839 39.4096 138.324 38.6942 139.109 38.6942C139.893 38.6942 140.205 39.375 140.205 40.0557H137.839ZM140.47 41.6827C140.216 41.8327 139.651 41.9711 139.259 41.9711C138.324 41.9711 137.839 41.3019 137.839 40.4711H140.793V40.2288C140.793 39.1788 140.297 38.2788 139.074 38.2788C137.978 38.2788 137.251 39.1327 137.251 40.3327C137.251 41.5327 137.782 42.3865 139.213 42.3865C139.605 42.3865 140.089 42.3058 140.459 42.1673V41.6711L140.47 41.6827Z" fill="#231F20"/>
<path d="M144.751 37.3907H145.605C146.92 37.3907 147.993 37.9331 147.993 39.5715C147.993 41.21 146.897 41.8331 145.224 41.8331H144.74V37.3907H144.751ZM144.163 42.2946H145.19C147.14 42.2946 148.57 41.5446 148.57 39.6061C148.57 38.0369 147.728 36.9292 145.616 36.9292H144.151V42.2946H144.163Z" fill="#231F20"/>
<path d="M150.059 40.0557C150.059 39.4096 150.543 38.6942 151.328 38.6942C152.113 38.6942 152.424 39.375 152.424 40.0557H150.059ZM152.69 41.6827C152.436 41.8327 151.87 41.9711 151.478 41.9711C150.543 41.9711 150.059 41.3019 150.059 40.4711H153.013V40.2288C153.013 39.1788 152.516 38.2788 151.293 38.2788C150.197 38.2788 149.47 39.1327 149.47 40.3327C149.47 41.5327 150.001 42.3865 151.432 42.3865C151.824 42.3865 152.309 42.3058 152.69 42.1673V41.6711V41.6827Z" fill="#231F20"/>
<path d="M155.516 42.2942H154.893L153.428 38.3711H154.016L155.205 41.7634H155.228L156.474 38.3711H157.028L155.516 42.2942Z" fill="#231F20"/>
<path d="M158.043 40.0557C158.043 39.4096 158.528 38.6942 159.313 38.6942C160.097 38.6942 160.409 39.375 160.409 40.0557H158.043ZM160.674 41.6827C160.42 41.8327 159.855 41.9711 159.463 41.9711C158.528 41.9711 158.043 41.3019 158.043 40.4711H160.997V40.2288C160.997 39.1788 160.501 38.2788 159.278 38.2788C158.182 38.2788 157.455 39.1327 157.455 40.3327C157.455 41.5327 157.986 42.3865 159.416 42.3865C159.809 42.3865 160.293 42.3058 160.674 42.1673V41.6711V41.6827Z" fill="#231F20"/>
<path d="M162.013 36.5249H162.543V42.2942H162.013V36.5249Z" fill="#231F20"/>
<path d="M164.136 40.3327C164.136 39.4211 164.632 38.6942 165.567 38.6942C166.501 38.6942 166.997 39.4211 166.997 40.3327C166.997 41.2442 166.501 41.9711 165.567 41.9711C164.632 41.9711 164.136 41.2442 164.136 40.3327ZM163.547 40.3327C163.547 41.4058 164.159 42.3865 165.555 42.3865C166.951 42.3865 167.574 41.4058 167.574 40.3327C167.574 39.2596 166.951 38.2788 165.555 38.2788C164.159 38.2788 163.547 39.2596 163.547 40.3327Z" fill="#231F20"/>
<path d="M171.624 40.3327C171.624 41.0942 171.359 41.9711 170.344 41.9711C169.397 41.9711 169.063 41.0481 169.063 40.3327C169.063 39.6173 169.397 38.6942 170.344 38.6942C171.359 38.6942 171.624 39.5711 171.624 40.3327ZM168.532 43.9096H169.063V41.625H169.086C169.351 42.1327 169.755 42.3865 170.436 42.3865C171.624 42.3865 172.213 41.4981 172.213 40.3327C172.213 39.1673 171.705 38.2788 170.436 38.2788C169.524 38.2788 169.19 38.8673 169.063 39.0865H169.04L169.074 38.3711H168.544V43.9096H168.532Z" fill="#231F20"/>
<path d="M178.501 42.2942V39.6865C178.501 39.1327 178.27 38.6942 177.59 38.6942C177.001 38.6942 176.436 39.1442 176.436 40.125V42.2942H175.905V39.6865C175.905 39.1327 175.674 38.6942 174.994 38.6942C174.405 38.6942 173.84 39.1442 173.84 40.125V42.2942H173.309V39.2942C173.309 38.9942 173.309 38.6827 173.274 38.3711H173.794V39.0288H173.817C173.99 38.7634 174.244 38.2788 175.155 38.2788C175.536 38.2788 176.159 38.4288 176.297 39.1096H176.309C176.505 38.648 177.013 38.2788 177.682 38.2788C178.547 38.2788 179.044 38.8327 179.044 39.5942V42.2942H178.513H178.501Z" fill="#231F20"/>
<path d="M180.601 40.0557C180.601 39.4096 181.086 38.6942 181.871 38.6942C182.655 38.6942 182.967 39.375 182.967 40.0557H180.601ZM183.232 41.6827C182.978 41.8327 182.413 41.9711 182.021 41.9711C181.086 41.9711 180.601 41.3019 180.601 40.4711H183.555V40.2288C183.555 39.1788 183.059 38.2788 181.836 38.2788C180.74 38.2788 180.013 39.1327 180.013 40.3327C180.013 41.5327 180.544 42.3865 181.974 42.3865C182.378 42.3865 182.851 42.3058 183.232 42.1673V41.6711V41.6827Z" fill="#231F20"/>
<path d="M184.559 39.2942C184.559 38.9942 184.559 38.6827 184.524 38.3711H185.044V39.075H185.055C185.228 38.7173 185.551 38.2788 186.451 38.2788C187.513 38.2788 187.928 38.925 187.928 39.7904V42.2942H187.397V39.9057C187.397 39.1673 187.109 38.6942 186.371 38.6942C185.401 38.6942 185.09 39.4673 185.09 40.125V42.2942H184.559V39.2942Z" fill="#231F20"/>
<path d="M191.124 38.7866H190.144V41.3251C190.144 41.6828 190.282 41.9712 190.721 41.9712C190.928 41.9712 191.055 41.9366 191.217 41.8789L191.251 42.2828C191.124 42.3289 190.859 42.3866 190.605 42.3866C189.659 42.3866 189.624 41.7981 189.624 41.0827V38.7866H188.782V38.3712H189.624V37.425L190.155 37.252V38.3712H191.136V38.7866H191.124Z" fill="#231F20"/>
<path d="M194.413 36.9292H195.001V42.2946H194.413V36.9292Z" fill="#231F20"/>
<path d="M196.317 39.2942C196.317 38.9942 196.317 38.6827 196.282 38.3711H196.801V39.075H196.813C196.986 38.7173 197.309 38.2788 198.209 38.2788C199.271 38.2788 199.686 38.925 199.686 39.7904V42.2942H199.155V39.9057C199.155 39.1673 198.867 38.6942 198.128 38.6942C197.159 38.6942 196.848 39.4673 196.848 40.125V42.2942H196.317V39.2942Z" fill="#231F20"/>
<path d="M200.678 41.7174C201.001 41.8674 201.382 41.9597 201.798 41.9597C202.305 41.9597 202.755 41.7059 202.755 41.2559C202.755 40.3213 200.678 40.4713 200.678 39.3289C200.678 38.5559 201.371 38.2559 202.086 38.2559C202.317 38.2559 202.767 38.302 203.148 38.4289L203.101 38.8559C202.825 38.7405 202.444 38.6712 202.144 38.6712C201.59 38.6712 201.209 38.8212 201.209 39.3289C201.209 40.0559 203.332 39.9636 203.332 41.2559C203.332 42.0867 202.478 42.3751 201.832 42.3751C201.417 42.3751 201.001 42.329 200.621 42.1905L200.667 41.7174H200.678Z" fill="#231F20"/>
<path d="M206.159 38.7866H205.178V41.3251C205.178 41.6828 205.317 41.9712 205.755 41.9712C205.963 41.9712 206.09 41.9366 206.24 41.8789L206.275 42.2828C206.148 42.3289 205.882 42.3866 205.628 42.3866C204.682 42.3866 204.648 41.7981 204.648 41.0827V38.7866H203.805V38.3712H204.648V37.425L205.178 37.252V38.3712H206.159V38.7866Z" fill="#231F20"/>
<path d="M207.117 38.371H207.648V42.2941H207.117V38.371ZM207.648 37.321H207.117V36.6748H207.648V37.321Z" fill="#231F20"/>
<path d="M210.855 38.7866H209.875V41.3251C209.875 41.6828 210.013 41.9712 210.452 41.9712C210.659 41.9712 210.786 41.9366 210.936 41.8789L210.971 42.2828C210.844 42.3289 210.578 42.3866 210.325 42.3866C209.378 42.3866 209.344 41.7981 209.344 41.0827V38.7866H208.502V38.3712H209.344V37.425L209.875 37.252V38.3712H210.855V38.7866Z" fill="#231F20"/>
<path d="M215.182 41.3711C215.182 41.6711 215.182 41.9827 215.217 42.2942H214.698V41.5903H214.675C214.502 41.948 214.178 42.3865 213.278 42.3865C212.217 42.3865 211.813 41.7404 211.813 40.875V38.3711H212.344V40.7596C212.344 41.498 212.632 41.9711 213.371 41.9711C214.34 41.9711 214.651 41.198 214.651 40.5403V38.3711H215.182V41.3711Z" fill="#231F20"/>
<path d="M218.379 38.7866H217.398V41.3251C217.398 41.6828 217.536 41.9712 217.975 41.9712C218.182 41.9712 218.309 41.9366 218.459 41.8789L218.494 42.2828C218.367 42.3289 218.102 42.3866 217.848 42.3866C216.902 42.3866 216.867 41.7981 216.867 41.0827V38.7866H216.025V38.3712H216.867V37.425L217.398 37.252V38.3712H218.379V38.7866Z" fill="#231F20"/>
<path d="M219.59 40.0557C219.59 39.4096 220.075 38.6942 220.859 38.6942C221.644 38.6942 221.955 39.375 221.955 40.0557H219.59ZM222.221 41.6827C221.967 41.8327 221.402 41.9711 221.009 41.9711C220.075 41.9711 219.59 41.3019 219.59 40.4711H222.544V40.2288C222.544 39.1788 222.048 38.2788 220.825 38.2788C219.729 38.2788 219.002 39.1327 219.002 40.3327C219.002 41.5327 219.532 42.3865 220.963 42.3865C221.355 42.3865 221.84 42.3058 222.221 42.1673V41.6711V41.6827Z" fill="#231F20"/>
<path d="M226.271 38.7865H225.405V38.3711H226.271V38.0826C226.271 37.2634 226.305 36.4326 227.413 36.4326C227.586 36.4326 227.817 36.4557 227.909 36.5134L227.875 36.9403C227.759 36.8826 227.609 36.8595 227.448 36.8595C226.721 36.8595 226.802 37.5749 226.802 38.048V38.3826H227.771V38.798H226.802V42.3057H226.271V38.798V38.7865Z" fill="#231F20"/>
<path d="M228.982 40.3327C228.982 39.4211 229.479 38.6942 230.413 38.6942C231.348 38.6942 231.844 39.4211 231.844 40.3327C231.844 41.2442 231.348 41.9711 230.413 41.9711C229.479 41.9711 228.982 41.2442 228.982 40.3327ZM228.394 40.3327C228.394 41.4058 229.017 42.3865 230.402 42.3865C231.786 42.3865 232.409 41.4058 232.409 40.3327C232.409 39.2596 231.786 38.2788 230.402 38.2788C229.017 38.2788 228.394 39.2596 228.394 40.3327Z" fill="#231F20"/>
<path d="M233.436 39.248C233.436 38.8211 233.436 38.6596 233.402 38.3711H233.932V39.1211H233.956C234.152 38.6827 234.509 38.2788 235.063 38.2788C235.19 38.2788 235.34 38.3019 235.432 38.325V38.8327C235.329 38.798 235.179 38.7865 235.04 38.7865C234.198 38.7865 233.967 39.6519 233.967 40.3557V42.2942H233.436V39.248Z" fill="#231F20"/>
<path d="M240.463 38.7866H239.482V41.3251C239.482 41.6828 239.621 41.9712 240.059 41.9712C240.267 41.9712 240.394 41.9366 240.556 41.8789L240.59 42.2828C240.463 42.3289 240.198 42.3866 239.944 42.3866C238.998 42.3866 238.963 41.7981 238.963 41.0827V38.7866H238.121V38.3712H238.963V37.425L239.494 37.252V38.3712H240.475V38.7866H240.463Z" fill="#231F20"/>
<path d="M241.409 36.5249H241.94V39.0288H241.963C242.194 38.6018 242.679 38.2788 243.313 38.2788C244.467 38.2788 244.79 38.9826 244.79 39.9519V42.2942H244.259V39.9519C244.259 39.2711 244.121 38.6942 243.233 38.6942C242.286 38.6942 241.952 39.5134 241.952 40.1942V42.2942H241.421V36.5249H241.409Z" fill="#231F20"/>
<path d="M246.383 40.0557C246.383 39.4096 246.867 38.6942 247.652 38.6942C248.436 38.6942 248.748 39.375 248.748 40.0557H246.383ZM249.013 41.6827C248.759 41.8327 248.194 41.9711 247.802 41.9711C246.867 41.9711 246.383 41.3019 246.383 40.4711H249.336V40.2288C249.336 39.1788 248.84 38.2788 247.617 38.2788C246.521 38.2788 245.794 39.1327 245.794 40.3327C245.794 41.5327 246.325 42.3865 247.756 42.3865C248.148 42.3865 248.633 42.3058 249.013 42.1673V41.6711V41.6827Z" fill="#231F20"/>
<path d="M255.129 40.5519C255.129 40.9788 255.106 41.9711 253.848 41.9711C253.363 41.9711 252.948 41.775 252.948 41.2673C252.948 40.4019 254.044 40.3211 254.967 40.3211H255.117V40.5634L255.129 40.5519ZM255.175 42.2942H255.694C255.648 42.0288 255.648 41.7865 255.648 41.475V39.7442C255.648 38.7173 255.198 38.2788 254.136 38.2788C253.756 38.2788 253.202 38.4057 252.867 38.5442V39.0173C253.271 38.7865 253.686 38.6942 254.136 38.6942C254.852 38.6942 255.117 39.0288 255.117 39.698V39.8942H255.013C253.894 39.8942 252.359 39.9519 252.359 41.2673C252.359 41.625 252.556 42.375 253.779 42.375C254.309 42.375 254.91 42.1211 255.152 41.6481H255.175V42.2827V42.2942Z" fill="#231F20"/>
<path d="M257.252 40.3327C257.252 39.5711 257.517 38.6942 258.533 38.6942C259.548 38.6942 259.813 39.3865 259.813 40.3327C259.813 41.0481 259.467 41.8788 258.498 41.8788C257.598 41.8788 257.252 41.1058 257.252 40.3327ZM260.344 38.3711H259.813V38.8211H259.79C259.398 38.348 259.017 38.2788 258.452 38.2788C257.183 38.2788 256.675 39.1442 256.675 40.3327C256.675 41.1981 257.113 42.2942 258.498 42.2942C259.052 42.2942 259.525 42.0981 259.813 41.5211H259.836C259.836 42.6288 259.721 43.5404 258.348 43.5404C257.886 43.5404 257.413 43.4135 257.079 43.2635L257.033 43.7481C257.252 43.8058 257.771 43.9558 258.336 43.9558C259.813 43.9558 260.356 43.0673 260.356 41.9711V38.3711H260.344Z" fill="#231F20"/>
<path d="M261.89 40.0557C261.89 39.4096 262.375 38.6942 263.16 38.6942C263.944 38.6942 264.256 39.375 264.256 40.0557H261.89ZM264.521 41.6827C264.267 41.8327 263.702 41.9711 263.31 41.9711C262.375 41.9711 261.89 41.3019 261.89 40.4711H264.844V40.2288C264.844 39.1788 264.348 38.2788 263.125 38.2788C262.029 38.2788 261.302 39.1327 261.302 40.3327C261.302 41.5327 261.833 42.3865 263.263 42.3865C263.656 42.3865 264.14 42.3058 264.521 42.1673V41.6711V41.6827Z" fill="#231F20"/>
<path d="M266.183 40.3326C266.183 39.5711 266.448 38.6942 267.463 38.6942C268.41 38.6942 268.744 39.6172 268.744 40.3326C268.744 41.048 268.41 41.9711 267.463 41.9711C266.448 41.9711 266.183 41.0942 266.183 40.3326ZM269.275 36.5249H268.744V39.0288H268.721C268.64 38.8326 268.225 38.2788 267.371 38.2788C266.102 38.2788 265.594 39.1442 265.594 40.3326C265.594 41.5211 266.183 42.3865 267.371 42.3865C267.983 42.3865 268.433 42.1672 268.721 41.6711H268.744V42.2942H269.275V36.5249Z" fill="#231F20"/>
<defs>
<linearGradient id="paint0_linear_36_21" x1="-7352.65" y1="367.785" x2="-7300.92" y2="365.391" gradientUnits="userSpaceOnUse">
<stop stop-color="#00ADEE"/>
<stop offset="0.22" stop-color="#008BD1"/>
<stop offset="0.45" stop-color="#0070BB"/>
<stop offset="0.65" stop-color="#005FAD"/>
<stop offset="0.8" stop-color="#005AA9"/>
</linearGradient>
</defs>
</svg>
