<svg width="225" height="61" viewBox="0 0 225 61" fill="none" xmlns="http://www.w3.org/2000/svg">
<path d="M62.36 26.3573L61.61 27.2173C61.37 27.0773 61.12 26.8973 60.86 26.6773C60.6 26.4573 60.35 26.2273 60.11 25.9673C59.87 25.7173 59.65 25.4573 59.45 25.1873C59.25 24.9173 59.09 24.6473 58.98 24.3873C58.85 24.6573 58.68 24.9273 58.49 25.1873C58.29 25.4573 58.08 25.7073 57.84 25.9673C57.58 26.2373 57.31 26.4973 57.02 26.7573C56.73 27.0173 56.47 27.2173 56.25 27.3673L55.44 26.5273C56 26.1073 56.46 25.6873 56.84 25.2673C57.22 24.8473 57.51 24.4073 57.73 23.9673C57.92 23.5573 58.07 23.1173 58.15 22.6473C58.24 22.1773 58.28 21.6473 58.28 21.0673V19.9773H59.62V21.0373C59.62 21.6473 59.67 22.2173 59.77 22.7273C59.87 23.2373 60.03 23.7073 60.25 24.1173C60.46 24.5473 60.74 24.9373 61.08 25.2873C61.42 25.6373 61.85 25.9973 62.35 26.3473L62.36 26.3573ZM64.59 23.0773H66.27V24.2073H64.59V30.1073H63.33V19.4673H64.59V23.0773Z" fill="#231916"/>
<path d="M71.08 26.0774C70.5 25.9374 70.03 25.6274 69.66 25.1474C69.29 24.6674 69.1 24.1074 69.1 23.4674C69.1 23.0874 69.18 22.7274 69.33 22.3974C69.48 22.0674 69.69 21.7774 69.95 21.5374H68.51V20.4174H71.05V19.0474H72.38V20.4174H74.79V21.5374H73.39C73.66 21.7774 73.87 22.0674 74.03 22.3974C74.19 22.7274 74.27 23.0774 74.27 23.4674C74.27 24.0674 74.1 24.6074 73.75 25.0674C73.41 25.5274 72.97 25.8474 72.44 26.0174V27.0674C73.05 27.0374 73.64 27.0074 74.21 26.9674C74.78 26.9274 75.25 26.8774 75.62 26.8174V27.8874C75.35 27.9374 75.02 27.9774 74.61 28.0174C74.2 28.0574 73.77 28.0874 73.3 28.1174C72.83 28.1574 72.35 28.1874 71.86 28.1974C71.37 28.2174 70.91 28.2274 70.48 28.2274H68.12V27.1374H71.09V26.0774H71.08ZM73.12 23.4274C73.12 23.0074 72.97 22.6474 72.68 22.3374C72.38 22.0274 72.05 21.8674 71.68 21.8674C71.31 21.8674 70.96 22.0274 70.67 22.3374C70.38 22.6474 70.23 23.0174 70.23 23.4274C70.23 23.8374 70.38 24.2074 70.67 24.5174C70.96 24.8274 71.3 24.9774 71.68 24.9774C72.06 24.9774 72.38 24.8274 72.68 24.5174C72.98 24.2074 73.12 23.8474 73.12 23.4274ZM76.21 30.0674V19.4674H77.47V30.0674H76.21Z" fill="#231916"/>
<path d="M82.52 21.1275H80.4V19.9975H86.01V21.1275H83.89V21.5875C83.89 22.0275 83.96 22.4275 84.1 22.7875C84.24 23.1475 84.43 23.4775 84.68 23.7675C84.92 24.0675 85.19 24.3275 85.5 24.5675C85.81 24.7975 86.15 25.0075 86.52 25.1775L85.84 26.1075C85.6 25.9975 85.36 25.8575 85.11 25.6975C84.86 25.5375 84.61 25.3475 84.37 25.1475C84.14 24.9475 83.93 24.7375 83.73 24.5175C83.53 24.2875 83.38 24.0575 83.25 23.8275C83.14 24.0475 83.01 24.2775 82.84 24.5175C82.67 24.7575 82.48 24.9775 82.27 25.1975C82.03 25.4475 81.78 25.6775 81.5 25.8875C81.23 26.0975 80.96 26.2775 80.72 26.4075L79.89 25.5175C80.23 25.3375 80.57 25.1075 80.9 24.8175C81.23 24.5275 81.52 24.1975 81.77 23.8375C82 23.5275 82.18 23.1775 82.32 22.8075C82.46 22.4375 82.52 22.0375 82.52 21.6275V21.1375V21.1275ZM82.79 28.6175V27.5075H89.26V31.9675H87.97V28.6175H82.79ZM88.05 22.2275V19.4375H89.32V26.7875H88.05V23.3875H85.76V22.2275H88.05Z" fill="#231916"/>
<path d="M95.89 20.3876H98.61V21.5076H97.2C97.43 21.7376 97.62 22.0176 97.76 22.3276C97.9 22.6376 97.97 22.9576 97.97 23.2976C97.97 23.6776 97.9 24.0376 97.75 24.3676C97.6 24.6976 97.4 24.9876 97.15 25.2376C96.89 25.4876 96.6 25.6876 96.26 25.8276C95.92 25.9676 95.56 26.0376 95.18 26.0376C94.8 26.0376 94.43 25.9676 94.09 25.8276C93.75 25.6876 93.46 25.4876 93.21 25.2376C92.95 24.9876 92.76 24.6976 92.61 24.3676C92.47 24.0376 92.4 23.6776 92.4 23.2976C92.4 22.9576 92.47 22.6376 92.6 22.3276C92.74 22.0176 92.92 21.7476 93.15 21.5076H91.72V20.3876H94.5V19.0176H95.89V20.3876ZM96.72 23.2376C96.72 23.0176 96.68 22.7976 96.59 22.5976C96.5 22.3976 96.39 22.2176 96.25 22.0576C96.11 21.9076 95.94 21.7876 95.75 21.6976C95.56 21.6076 95.37 21.5576 95.17 21.5576C94.97 21.5576 94.77 21.6076 94.58 21.6976C94.39 21.7876 94.22 21.9076 94.08 22.0576C93.94 22.2176 93.83 22.3976 93.74 22.5976C93.66 22.7976 93.61 23.0076 93.61 23.2376C93.61 23.4676 93.65 23.6776 93.74 23.8776C93.82 24.0776 93.94 24.2576 94.08 24.4076C94.22 24.5576 94.39 24.6776 94.58 24.7676C94.77 24.8576 94.97 24.8976 95.17 24.8976C95.37 24.8976 95.56 24.8576 95.75 24.7676C95.94 24.6776 96.11 24.5576 96.25 24.4076C96.39 24.2576 96.51 24.0776 96.59 23.8776C96.68 23.6776 96.72 23.4576 96.72 23.2376ZM94.85 26.8676H96.14V28.2076H99.84V26.8676H101.12V31.8476H94.85V26.8676ZM99.83 29.2976H96.13V30.7376H99.83V29.2976ZM99.96 21.8476V19.4476H101.23V26.2676H99.96V25.0676H98.3V24.0076H99.96V22.9076H98.33V21.8476H99.96Z" fill="#231916"/>
<path d="M108.21 24.0674H105.53V19.8574H112.01V20.9974H106.79V22.9674H112.13V24.0674H109.45V25.4474H114.19V26.5774H103.45V25.4474H108.21V24.0674ZM108.87 27.1774C109.27 27.1774 109.64 27.2474 109.99 27.3974C110.34 27.5374 110.64 27.7374 110.9 27.9774C111.16 28.2174 111.36 28.5074 111.52 28.8274C111.67 29.1474 111.75 29.4974 111.75 29.8574C111.75 30.2174 111.67 30.5774 111.52 30.8974C111.36 31.2174 111.16 31.4974 110.9 31.7374C110.64 31.9774 110.34 32.1674 109.99 32.3074C109.64 32.4474 109.27 32.5174 108.87 32.5174C108.47 32.5174 108.1 32.4474 107.74 32.3074C107.39 32.1674 107.08 31.9774 106.83 31.7374C106.57 31.4974 106.37 31.2174 106.22 30.8974C106.07 30.5774 105.99 30.2274 105.99 29.8574C105.99 29.4874 106.07 29.1474 106.22 28.8274C106.37 28.4974 106.57 28.2174 106.83 27.9774C107.09 27.7374 107.39 27.5474 107.74 27.3974C108.09 27.2574 108.47 27.1774 108.87 27.1774ZM108.83 31.4174C109.27 31.4174 109.65 31.2674 109.97 30.9674C110.29 30.6674 110.45 30.2974 110.45 29.8574C110.45 29.4174 110.3 29.0474 110 28.7374C109.7 28.4274 109.32 28.2774 108.87 28.2774C108.42 28.2774 108.04 28.4274 107.72 28.7374C107.41 29.0474 107.25 29.4174 107.25 29.8574C107.25 30.2974 107.4 30.6674 107.7 30.9674C108 31.2674 108.38 31.4174 108.83 31.4174Z" fill="#231916"/>
<path d="M119.98 27.4974V25.2774H121.31V27.4974H125.92V28.6574H115.44V27.4974H119.98ZM119.98 21.2174H117.24V20.0474H124.08V21.2174H121.36C121.4 21.6074 121.49 21.9674 121.64 22.2874C121.79 22.6174 122 22.9174 122.24 23.1974C122.54 23.5374 122.9 23.8474 123.31 24.1074C123.73 24.3674 124.18 24.5974 124.67 24.7874L124.02 25.7374C123.71 25.6574 123.38 25.5074 123.04 25.3174C122.7 25.1174 122.37 24.8974 122.06 24.6474C121.74 24.3974 121.46 24.1374 121.21 23.8674C120.96 23.5974 120.79 23.3374 120.68 23.0874C120.57 23.3274 120.41 23.5874 120.18 23.8474C119.95 24.1074 119.69 24.3574 119.39 24.5974C119.07 24.8574 118.73 25.0874 118.38 25.2974C118.02 25.4974 117.68 25.6474 117.37 25.7474L116.71 24.8274C117.23 24.6274 117.71 24.3874 118.14 24.1074C118.57 23.8174 118.93 23.4874 119.23 23.0974C119.44 22.8274 119.61 22.5374 119.74 22.2274C119.87 21.9174 119.95 21.5874 119.98 21.2274V21.2174Z" fill="#231916"/>
<path d="M130.69 20.3876H133.4V21.5076H132C132.23 21.7376 132.42 22.0176 132.56 22.3276C132.7 22.6376 132.77 22.9576 132.77 23.2976C132.77 23.6776 132.69 24.0376 132.54 24.3676C132.39 24.6976 132.19 24.9876 131.95 25.2376C131.69 25.4876 131.4 25.6876 131.05 25.8276C130.71 25.9676 130.35 26.0376 129.97 26.0376C129.59 26.0376 129.22 25.9676 128.88 25.8276C128.54 25.6876 128.25 25.4876 128 25.2376C127.74 24.9876 127.55 24.6976 127.4 24.3676C127.26 24.0376 127.19 23.6776 127.19 23.2976C127.19 22.9576 127.26 22.6376 127.4 22.3276C127.54 22.0176 127.72 21.7476 127.95 21.5076H126.52V20.3876H129.3V19.0176H130.69V20.3876ZM131.52 23.2376C131.52 23.0176 131.48 22.7976 131.39 22.5976C131.3 22.3976 131.19 22.2176 131.04 22.0576C130.9 21.9076 130.73 21.7876 130.54 21.6976C130.35 21.6076 130.16 21.5576 129.96 21.5576C129.76 21.5576 129.56 21.6076 129.37 21.6976C129.18 21.7876 129.01 21.9076 128.87 22.0576C128.73 22.2176 128.62 22.3976 128.53 22.5976C128.45 22.7976 128.4 23.0076 128.4 23.2376C128.4 23.4676 128.44 23.6776 128.53 23.8776C128.61 24.0776 128.73 24.2576 128.87 24.4076C129.01 24.5576 129.17 24.6776 129.37 24.7676C129.56 24.8576 129.75 24.8976 129.96 24.8976C130.17 24.8976 130.35 24.8576 130.54 24.7676C130.73 24.6776 130.9 24.5576 131.04 24.4076C131.18 24.2576 131.3 24.0776 131.39 23.8776C131.48 23.6776 131.52 23.4576 131.52 23.2376ZM129.48 26.8676H130.76V28.2076H134.46V26.8676H135.75V31.8476H129.48V26.8676ZM134.46 29.2976H130.76V30.7376H134.46V29.2976ZM135.79 22.4676H137.46V23.6376H135.79V26.2376H134.52V19.4676H135.79V22.4676Z" fill="#231916"/>
<path d="M59.31 35.0474C59.41 35.1074 59.49 35.1674 59.53 35.2274C59.66 35.4074 59.73 35.6474 59.73 35.9574V37.4674C59.73 40.2074 58.15 42.1374 54.4 42.4474V44.3374C58.02 44.3374 59.93 43.0774 61.22 40.9874C63.24 44.4974 67.26 44.3374 69.71 44.3374V51.3974H61.22C60.92 51.3974 60.73 51.3474 60.63 51.2374C60.53 51.1274 60.49 50.9574 60.49 50.7374V46.6674C60.49 46.4574 60.45 46.3074 60.38 46.1974C60.31 46.0974 60.16 46.0474 59.94 46.0474H57.27C57.4 46.1674 57.48 46.3174 57.51 46.4974C57.54 46.6774 57.56 46.8574 57.56 47.0374V51.7974C57.56 52.1074 57.66 52.3674 57.87 52.5774C58.18 52.9074 58.69 53.0674 59.41 53.0674H71.36C72.1 53.0674 72.67 52.6774 72.67 51.5474V35.3174C72.67 34.8574 72.34 34.6274 71.7 34.6274H69.45C69.51 34.7174 69.55 34.8174 69.59 34.9174C69.68 35.2274 69.72 35.6874 69.72 36.6274V42.4374C66.04 42.3374 62.7 41.8574 63.1 37.5174V35.6374C63.1 35.2374 62.81 35.0374 62.26 35.0374H59.32L59.31 35.0474Z" fill="#0056A6"/>
<path d="M93.37 35.3077C93.37 34.8477 93.04 34.6177 92.4 34.6177H90.15C90.21 34.7077 90.2599 34.8077 90.2899 34.9077C90.3799 35.2177 90.42 35.6777 90.42 36.6277V37.7977H87.64V39.4677H90.42V41.1977H87.64V42.8677H90.42V47.5177H81.18V46.6177C81.17 46.3577 81.0599 46.1877 80.8499 46.0877L80.52 46.0177H77.8199C77.9199 46.0777 77.9999 46.1377 78.0399 46.1977C78.1299 46.3277 78.1999 46.4877 78.2199 46.6777V51.5577C78.2199 52.9077 78.8999 53.0777 79.7199 53.0777H91.8799C92.8999 53.0777 93.37 52.5877 93.37 51.5577V35.3077ZM90.42 51.4077H81.18V49.1877H90.42V51.4077Z" fill="#0056A6"/>
<path d="M87.28 40.6776C87.28 39.2476 86.36 38.0376 84.95 37.2876H87.64V35.6176H83.08V34.9176C83.08 34.6376 82.97 34.4376 82.75 34.3376L82.41 34.2676H79.67C79.77 34.3276 79.85 34.3876 79.89 34.4476C80.02 34.6276 80.09 34.8676 80.09 35.1876H80.11V35.6176H75.49V37.2876H78.18C76.77 38.0376 75.85 39.2476 75.85 40.6776C75.85 43.0576 78.4 44.6376 81.56 44.6376C84.72 44.6376 87.27 43.0576 87.27 40.6776H87.28ZM78.6 40.7376C78.6 39.3276 79.93 37.9976 81.57 37.9976C83.21 37.9976 84.54 39.3276 84.54 40.7376C84.54 42.1476 83.21 43.1276 81.57 43.1276C79.93 43.1276 78.6 42.1376 78.6 40.7376Z" fill="#0056A6"/>
<path d="M178.93 34.6177H176.68C176.68 34.6177 176.68 34.6177 176.68 34.6277C176.74 34.7177 176.78 34.8077 176.81 34.9077C176.9 35.2177 176.94 35.6777 176.94 36.6177V39.5677H174.16V41.2377H176.94V51.3977H168.45C168.16 51.3977 167.96 51.3477 167.86 51.2377C167.76 51.1277 167.72 50.9577 167.72 50.7377V46.6677C167.72 46.4577 167.68 46.3077 167.61 46.1977C167.54 46.0977 167.39 46.0477 167.17 46.0477H164.5C164.63 46.1677 164.71 46.3177 164.74 46.4977C164.77 46.6777 164.79 46.8577 164.79 47.0377V51.7977C164.79 52.1077 164.89 52.3677 165.1 52.5777C165.41 52.9077 165.92 53.0677 166.64 53.0677H178.6C179.34 53.0677 179.9 52.6777 179.9 51.5477V35.3177C179.9 34.8377 179.57 34.6177 178.93 34.6177Z" fill="#0056A6"/>
<path d="M173.8 40.6776C173.8 39.2476 172.88 38.0376 171.47 37.2876H174.16V35.6176H169.6V34.9176C169.6 34.6376 169.49 34.4376 169.27 34.3376L168.93 34.2676H166.19C166.29 34.3276 166.37 34.3876 166.42 34.4476C166.55 34.6276 166.62 34.8676 166.62 35.1876H166.64V35.6176H162.02V37.2876H164.71C163.3 38.0376 162.38 39.2476 162.38 40.6776C162.38 43.0576 164.93 44.6376 168.09 44.6376C171.25 44.6376 173.8 43.0576 173.8 40.6776ZM165.13 40.7376C165.13 39.3276 166.46 37.9976 168.1 37.9976C169.74 37.9976 171.07 39.3276 171.07 40.7376C171.07 42.1476 169.74 43.1276 168.1 43.1276C166.46 43.1276 165.13 42.1376 165.13 40.7376Z" fill="#0056A6"/>
<path d="M124.68 35.7377H119.73L119.76 37.4377H122.9C121.26 38.1677 120.16 39.4677 120.16 41.1277C120.16 43.3477 122.12 44.9177 124.7 45.3477V47.6577H119.26V49.3277H134.53V53.1577H137.48V35.2577C137.48 34.7977 137.14 34.5677 136.51 34.5677H134.26C134.32 34.6577 134.36 34.7577 134.39 34.8577C134.48 35.1677 134.52 35.6377 134.52 36.5777V47.6577H127.7V45.3377C130.24 44.8877 132.17 43.3277 132.17 41.1277C132.17 39.4677 131.07 38.1677 129.43 37.4377H132.57V35.7277H127.68V35.0377C127.68 34.7477 127.57 34.5577 127.34 34.4577L127 34.3877H124.24C124.35 34.4477 124.42 34.5077 124.47 34.5677C124.6 34.7477 124.67 34.9977 124.67 35.3077V35.7377H124.68ZM123.01 41.1277C123.01 39.3877 124.47 38.3177 126.16 38.3177C127.85 38.3177 129.31 39.3877 129.31 41.1277C129.31 42.8677 127.85 43.9377 126.16 43.9377C124.47 43.9377 123.01 42.8677 123.01 41.1277Z" fill="#0056A6"/>
<path d="M111.28 47.4076C107.6 47.3076 104.66 46.4676 104.66 41.9776V35.6376C104.66 35.2376 104.37 35.0376 103.82 35.0376H100.88C100.98 35.0976 101.06 35.1576 101.1 35.2176C101.23 35.3976 101.3 35.6376 101.3 35.9476V41.9176C101.3 44.6576 99.72 47.0876 95.97 47.3976V49.2876C99.59 49.2876 101.5 48.0376 102.79 45.9376C104.81 49.4476 108.83 49.2876 111.28 49.2876V47.3976V47.4076Z" fill="#0056A6"/>
<path d="M114.16 42.5074V35.2974C114.16 34.8374 113.83 34.6074 113.19 34.6074H110.94C110.94 34.6074 110.94 34.6074 110.94 34.6174C111 34.7074 111.04 34.8074 111.07 34.9074C111.16 35.2174 111.2 35.6774 111.2 36.6174V53.0474H114.15V44.1674H117.13V42.4974H114.15L114.16 42.5074Z" fill="#0056A6"/>
<path d="M207.46 36.8678C207.56 36.7578 207.76 36.6978 208.05 36.6978H216.92V35.0278H206.23C205.52 35.0278 205.01 35.1878 204.69 35.5178C204.48 35.7278 204.38 35.9878 204.38 36.2978V43.0878C204.38 43.3978 204.48 43.6578 204.69 43.8678C205 44.1978 205.51 44.3578 206.23 44.3578H219.45V42.6878H208.05C207.76 42.6878 207.56 42.6278 207.46 42.5178C207.36 42.4078 207.32 42.2378 207.32 42.0178V37.3578C207.32 37.1378 207.37 36.9678 207.46 36.8578V36.8678Z" fill="#0056A6"/>
<path d="M218.72 51.3977H210.23C209.93 51.3977 209.74 51.3477 209.64 51.2377C209.54 51.1277 209.5 50.9577 209.5 50.7377V46.6677C209.5 46.4577 209.46 46.3077 209.39 46.1977C209.32 46.0977 209.17 46.0477 208.95 46.0477H206.28C206.41 46.1677 206.49 46.3177 206.52 46.4977C206.55 46.6777 206.57 46.8577 206.57 47.0377V51.7977C206.57 52.1077 206.67 52.3677 206.88 52.5777C207.19 52.9077 207.7 53.0677 208.42 53.0677H220.37C221.11 53.0677 221.67 52.6777 221.67 51.5477V40.1477H224.65V38.4777H221.68V35.3077C221.68 34.8477 221.35 34.6177 220.71 34.6177H218.46C218.46 34.6177 218.46 34.6177 218.46 34.6277C218.52 34.7177 218.56 34.8177 218.59 34.9177C218.6 34.9577 218.61 34.9877 218.62 35.0277C218.69 35.3377 218.72 35.7977 218.72 36.6177V51.3877V51.3977Z" fill="#0056A6"/>
<path d="M200.66 34.6174H198.41C198.41 34.6174 198.41 34.6174 198.42 34.6274H198.41C198.47 34.7174 198.51 34.8174 198.55 34.9174C198.64 35.2274 198.68 35.6874 198.68 36.6274V41.3074H197.04V35.2974C197.04 34.8374 196.7 34.6074 196.07 34.6074H193.82C193.82 34.6074 193.82 34.6074 193.82 34.6174C193.88 34.7074 193.92 34.8074 193.96 34.9074C194.05 35.2174 194.09 35.6774 194.09 36.6174V47.7674C190.58 47.6374 190.1 46.7574 190.1 42.3474V36.6974H193.17V35.0174H183.26V36.6974H186.73V42.2874C186.73 45.0274 186.57 47.4574 182.82 47.7674V49.6574C186.44 49.6574 186.93 48.4074 188.23 46.3074C190.2 49.7274 191.74 49.6574 194.08 49.6574V53.0374H197.03V42.9574H198.67V53.0374H201.62V35.2774C201.62 34.8174 201.29 34.5874 200.65 34.5874L200.66 34.6174Z" fill="#0056A6"/>
<path d="M149.9 45.0776C146.1 45.0776 142.27 46.6676 142.27 49.3476C142.27 52.0276 146.1 53.6176 149.9 53.6176C153.7 53.6176 157.53 52.0176 157.53 49.3476C157.53 46.6776 153.7 45.0776 149.9 45.0776ZM149.9 52.1276C147.9 52.1276 145.53 51.1376 145.53 49.3576C145.53 47.5776 147.9 46.5876 149.9 46.5876C151.9 46.5876 154.27 47.5776 154.27 49.3576C154.27 51.1376 151.9 52.1276 149.9 52.1276Z" fill="#0056A6"/>
<path d="M147.93 39.3076V42.7176H140.07V44.3976H159.61V42.7176H151.09V39.3076H147.94H147.93Z" fill="#0056A6"/>
<path d="M158.11 42.0375V35.9175C158.11 35.6075 158.01 35.3475 157.8 35.1375C157.49 34.8075 156.98 34.6475 156.26 34.6475H142.18V36.3175H154.44C154.74 36.3175 154.93 36.3675 155.03 36.4775C155.13 36.5875 155.17 36.7575 155.17 36.9775V42.0275H158.11V42.0375Z" fill="#0056A6"/>
<path opacity="0.5" d="M47.93 19.6175C50.17 18.8675 51.85 17.3275 52.55 15.6275C50.97 14.6875 48.7 14.4675 46.45 15.2275C44.21 15.9775 42.52 17.5175 41.83 19.2175C43.41 20.1575 45.68 20.3775 47.93 19.6275V19.6175Z" fill="#6FB92C"/>
<path opacity="0.4" d="M56.9 4.40749C58.51 3.28749 59.49 1.67749 59.65 0.147486C58.17 -0.232514 56.32 0.117486 54.7 1.24749C53.09 2.36749 52.11 3.98749 51.95 5.50749C53.43 5.88749 55.29 5.52749 56.9 4.40749Z" fill="#7F1183"/>
<path opacity="0.6" d="M49.86 12.8576C50.59 10.6076 50.35 8.33758 49.39 6.76758C47.69 7.47758 46.17 9.17758 45.44 11.4276C44.71 13.6776 44.95 15.9476 45.91 17.5176C47.61 16.8076 49.13 15.1076 49.86 12.8576Z" fill="#F29600"/>
<path opacity="0.8" d="M27.77 18.8774C27.77 15.7074 26.55 12.9074 24.68 11.2974C22.8 12.9074 21.56 15.6974 21.55 18.8674C21.55 22.0374 22.77 24.8374 24.64 26.4474C26.52 24.8374 27.76 22.0474 27.77 18.8774Z" fill="#DADF00"/>
<path opacity="0.8" d="M33.17 20.8074C34.21 17.8074 33.94 14.7674 32.7 12.6274C30.4 13.5474 28.32 15.7774 27.29 18.7774C26.25 21.7774 26.52 24.8174 27.76 26.9574C30.06 26.0474 32.14 23.8074 33.17 20.8074Z" fill="#C3D600"/>
<path opacity="0.8" d="M37.66 24.3876C39.61 21.8876 40.35 18.9276 39.86 16.4976C37.39 16.6176 34.7 18.0576 32.75 20.5676C30.8 23.0676 30.06 26.0376 30.55 28.4576C33.02 28.3376 35.71 26.8976 37.66 24.3976V24.3876Z" fill="#AACC05"/>
<path opacity="0.8" d="M40.74 29.2273C43.4 27.4873 45.05 24.9273 45.38 22.4773C43.01 21.7973 39.99 22.2873 37.34 24.0173C34.68 25.7573 33.03 28.3173 32.7 30.7673C35.07 31.4573 38.09 30.9673 40.74 29.2273Z" fill="#8DC220"/>
<path opacity="0.8" d="M42.09 34.7976C45.16 34.0176 47.56 32.1276 48.66 29.9176C46.64 28.4976 43.63 27.9876 40.55 28.7776C37.47 29.5576 35.08 31.4476 33.98 33.6576C36 35.0776 39.01 35.5876 42.09 34.8076V34.7976Z" fill="#6FB92C"/>
<path opacity="0.8" d="M41.56 40.5173C44.72 40.7773 47.6 39.7673 49.36 38.0273C47.9 36.0273 45.22 34.5773 42.06 34.3173C38.9 34.0673 36.02 35.0673 34.26 36.8073C35.72 38.8073 38.4 40.2673 41.56 40.5173Z" fill="#00A74D"/>
<path opacity="0.75" d="M39.21 45.7473C42.12 47.0173 45.17 46.9973 47.4 45.9173C46.67 43.5573 44.61 41.3073 41.7 40.0473C38.79 38.7773 35.74 38.8073 33.51 39.8773C34.24 42.2373 36.3 44.4873 39.22 45.7473H39.21Z" fill="#008085"/>
<path opacity="0.7" d="M35.29 49.9374C37.63 52.0774 40.53 53.0474 42.98 52.7474C43.05 50.2774 41.83 47.4774 39.49 45.3374C37.15 43.1974 34.25 42.2274 31.8 42.5274C31.73 44.9974 32.95 47.7974 35.3 49.9374H35.29Z" fill="#1D2087"/>
<path opacity="0.8" d="M30.23 52.6273C31.75 55.4073 34.18 57.2673 36.59 57.7773C37.46 55.4673 37.21 52.4173 35.68 49.6373C34.16 46.8573 31.73 44.9973 29.32 44.4873C28.45 46.8073 28.7 49.8473 30.23 52.6273Z" fill="#551B85"/>
<path opacity="0.8" d="M24.56 53.5374C25.1 56.6674 26.79 59.2074 28.91 60.4774C30.48 58.5674 31.23 55.6074 30.69 52.4774C30.15 49.3474 28.46 46.8074 26.34 45.5474C24.77 47.4574 24.02 50.4174 24.56 53.5374Z" fill="#7F1183"/>
<path opacity="0.8" d="M18.91 52.5676C18.41 55.6976 19.19 58.6476 20.78 60.5376C22.88 59.2376 24.55 56.6876 25.05 53.5476C25.55 50.4176 24.77 47.4676 23.18 45.5776C21.08 46.8776 19.41 49.4276 18.91 52.5676Z" fill="#80254F"/>
<path opacity="0.8" d="M13.88 49.8174C12.39 52.6174 12.17 55.6674 13.07 57.9674C15.48 57.4174 17.88 55.5374 19.37 52.7374C20.86 49.9374 21.08 46.8874 20.18 44.5874C17.77 45.1374 15.37 47.0174 13.88 49.8174Z" fill="#93262A"/>
<path opacity="0.8" d="M9.99999 45.5773C7.67999 47.7473 6.48999 50.5573 6.58999 53.0273C9.04999 53.2873 11.93 52.2873 14.25 50.1173C16.57 47.9473 17.76 45.1373 17.66 42.6673C15.2 42.4073 12.32 43.4073 9.99999 45.5773Z" fill="#B93A21"/>
<path opacity="0.8" d="M7.71002 40.3175C4.82002 41.6175 2.78002 43.8875 2.08002 46.2575C4.32002 47.2975 7.37001 47.2875 10.26 45.9875C13.15 44.6875 15.19 42.4075 15.89 40.0475C13.65 38.9975 10.6 39.0175 7.71002 40.3175Z" fill="#EC6C00"/>
<path opacity="0.8" d="M7.25 34.6075C4.09 34.8975 1.43 36.3875 0 38.4075C1.78 40.1275 4.67 41.0975 7.83 40.8075C10.99 40.5175 13.65 39.0275 15.08 37.0075C13.3 35.2875 10.41 34.3175 7.25 34.6075Z" fill="#EF8200"/>
<path opacity="0.8" d="M8.66 29.0475C5.58 28.2975 2.57001 28.8475 0.570007 30.2875C1.70001 32.4875 4.12 34.3475 7.2 35.0875C10.28 35.8375 13.29 35.2875 15.29 33.8475C14.16 31.6475 11.74 29.7875 8.66 29.0475Z" fill="#F29600"/>
<path opacity="0.8" d="M11.8 24.2375C9.11999 22.5275 6.10999 22.0775 3.73999 22.7875C4.08999 25.2375 5.77999 27.7775 8.45999 29.4775C11.14 31.1775 14.15 31.6375 16.52 30.9175C16.17 28.4675 14.48 25.9275 11.8 24.2275V24.2375Z" fill="#F5AA00"/>
<path opacity="0.8" d="M16.32 20.7075C14.34 18.2275 11.63 16.8175 9.15998 16.7275C8.69998 19.1575 9.47998 22.1075 11.46 24.5875C13.44 27.0675 16.15 28.4775 18.62 28.5675C19.08 26.1375 18.3 23.1875 16.32 20.7075Z" fill="#F9BE00"/>
<path opacity="0.8" d="M21.75 18.8373C20.68 15.8473 18.57 13.6373 16.27 12.7573C15.05 14.9073 14.83 17.9473 15.9 20.9373C16.97 23.9273 19.08 26.1273 21.38 27.0173C22.6 24.8673 22.82 21.8273 21.75 18.8373Z" fill="#FBC600"/>
<path d="M37.37 36.0174C37.37 43.0374 31.68 48.7274 24.67 48.7274C17.66 48.7274 11.97 43.0374 11.97 36.0174C11.97 28.9974 17.66 23.3174 24.67 23.3174C31.68 23.3174 37.37 29.0074 37.37 36.0174Z" fill="url(#paint0_radial_36_135)"/>
<path d="M33.53 37.9873C32.57 40.3773 30.95 41.0573 30.95 41.0573C35.7 36.2473 32.8 30.6973 32.8 30.6973C32.1 29.4573 32.99 28.9173 32.99 28.9173C30.95 29.4273 31.59 31.1173 31.59 31.1173C32.61 33.5573 32.41 35.5373 32.06 36.7673L31.39 36.3873V36.3673C31.39 36.3673 32.99 30.0973 26.5 27.8973V26.7173H25.12V34.4973L31.49 38.1273C31.37 38.3673 31.25 38.5873 31.12 38.7973L24.72 35.0873L18.29 38.7973C18.16 38.5873 18.04 38.3673 17.92 38.1273L24.29 34.4973V26.7173H22.92V27.8973C16.42 30.0973 18.01 36.3673 18.01 36.3673V36.3873L17.35 36.7673C17 35.5373 16.79 33.5573 17.82 31.1173C17.82 31.1173 18.46 29.4273 16.42 28.9173C16.42 28.9173 17.31 29.4573 16.61 30.6973C16.61 30.6973 13.71 36.2473 18.46 41.0573C18.46 41.0573 16.85 40.3773 15.88 37.9873C15.88 37.9873 15.33 36.8173 13.8 37.0773C13.8 37.0773 14.38 37.3373 14.72 38.3973C14.72 38.3973 16.1 42.7773 21.42 43.4473V45.8673H24.03V42.2973C24.03 42.2973 21.26 42.2773 19.14 39.9473L19.8 39.5673C19.92 39.6873 21.93 41.5473 24.68 41.5973H24.71C27.45 41.5473 29.47 39.6873 29.59 39.5673L30.25 39.9473C28.13 42.2773 25.36 42.2973 25.36 42.2973V45.8673H27.97V43.4473C33.29 42.7773 34.67 38.3973 34.67 38.3973C35.01 37.3373 35.59 37.0773 35.59 37.0773C34.06 36.8273 33.51 37.9873 33.51 37.9873H33.53ZM30.12 35.6673L26.52 33.6573L26.5 29.3573H26.52C26.52 29.3573 30.85 30.5373 30.12 35.6673ZM22.9 29.3573H22.92L22.9 33.6573L19.3 35.6673C18.57 30.5273 22.9 29.3473 22.9 29.3473V29.3573ZM24.72 36.7073L28.3 38.8073L28.27 38.7973C26.99 39.8073 25.76 40.1473 24.71 40.1473C23.66 40.1473 22.43 39.8173 21.15 38.7973L21.12 38.8173L24.73 36.7173L24.72 36.7073Z" fill="white"/>
<defs>
<radialGradient id="paint0_radial_36_135" cx="0" cy="0" r="1" gradientUnits="userSpaceOnUse" gradientTransform="translate(20.58 29.4974) scale(21.83 21.83)">
<stop stop-color="#55C2F0"/>
<stop offset="0.24" stop-color="#00A0E8"/>
<stop offset="0.41" stop-color="#0077C3"/>
<stop offset="0.5" stop-color="#0068B6"/>
<stop offset="0.73" stop-color="#1D2087"/>
<stop offset="1" stop-color="#16136F"/>
</radialGradient>
</defs>
</svg>
