<svg width="231" height="41" viewBox="0 0 231 41" fill="none" xmlns="http://www.w3.org/2000/svg">
<path d="M122.925 9.71827C121.255 0.121806 92.3999 -2.88002 58.4699 3.02983C44.23 5.51571 31.3689 9.16481 21.3503 13.2829C22.8888 13.3205 24.0333 13.6676 24.7275 14.3617C25.2622 14.9058 25.5342 15.6469 25.5342 16.5756V17.523H22.2134V16.6881C22.2134 15.994 21.7913 15.5531 21.0502 15.5531C20.4217 15.5531 20.0371 15.8345 19.9152 16.3973C19.887 16.5568 19.8777 16.8195 19.934 17.0634C20.2904 18.5174 25.2246 19.4179 25.7687 22.1102C25.8438 22.4573 25.9282 23.189 25.7781 24.249C25.4686 26.4159 23.5642 27.2508 21.144 27.2508C17.7669 27.2508 16.388 25.6467 16.388 23.4329V22.3916H19.9526V23.6955C19.9526 24.4272 20.4874 24.8306 21.2097 24.8306C21.932 24.8306 22.2978 24.5586 22.4385 23.9863C22.4948 23.7237 22.5323 23.3391 22.4104 23.0483C21.7537 21.3973 17.1384 20.6187 16.5662 17.9452C16.4349 17.3448 16.4348 16.8289 16.538 16.191C16.5943 15.8345 16.6976 15.5437 16.8289 15.2623C5.71274 20.4498 -0.778694 26.172 0.0749505 31.1063C1.7541 40.7121 30.5997 43.7046 64.5204 37.8041C79.4263 35.2057 92.8314 31.3127 103.028 26.9694C102.878 26.9788 102.737 26.9882 102.587 26.9882C100.261 26.9882 98.1878 26.1251 97.9814 23.7518C97.9345 23.3203 97.9345 23.1327 97.9345 22.8982V17.4386C97.9345 17.2135 97.9627 16.8007 97.9908 16.5756C98.2722 14.2867 100.083 13.3392 102.597 13.3392C104.539 13.3392 106.921 13.8927 107.184 16.585C107.221 16.9133 107.212 17.2791 107.212 17.3917V17.9076H103.854V17.1384C103.854 17.1384 103.854 16.8289 103.816 16.6506C103.76 16.3786 103.525 15.7407 102.559 15.7407C101.593 15.7407 101.368 16.3786 101.312 16.6506C101.283 16.8007 101.265 17.0165 101.265 17.2604V23.189C101.265 23.3953 101.265 23.5548 101.293 23.6768C101.302 23.7612 101.48 24.5867 102.578 24.5867C103.676 24.5867 103.844 23.7706 103.854 23.6768C103.882 23.5173 103.891 23.3203 103.882 23.189V21.3504H102.559V19.371H107.24V22.8888C107.24 23.1233 107.24 23.3015 107.193 23.7424C107.128 24.3616 106.94 24.8869 106.63 25.3372C117.456 20.2059 123.75 14.5775 122.906 9.70889M34.9431 26.7255L33.2451 15.1591H33.1795L31.4346 26.7255H27.8418L30.2527 13.6676H36.1157L38.5171 26.7255H34.9431ZM52.2035 26.7255L52.1191 15.3842H52.0629L49.9522 26.7255H46.5845L44.4832 15.3842H44.427L44.3519 26.7255H41.0124L41.3031 13.6676H46.669L48.2261 23.3672H48.3012L49.8677 13.6676H55.2335L55.5149 26.7255H52.1941H52.2035ZM67.9068 24.1927C67.541 26.7255 65.0739 27.1664 63.3197 27.1664C60.4117 27.1664 58.6106 25.9188 58.6106 23.3953V22.3635H62.1378V23.6486C62.1378 24.3428 62.6349 24.7743 63.3947 24.7743C64.0702 24.7743 64.4641 24.5023 64.6142 23.9394C64.6705 23.6862 64.7081 23.3015 64.5861 23.0107C63.9388 21.3879 59.361 20.5999 58.8076 17.9639C58.6856 17.3636 58.6762 16.857 58.7794 16.2097C59.164 13.827 61.4623 13.3298 63.301 13.3298C64.952 13.3298 66.1526 13.6863 66.875 14.4086C67.4097 14.9433 67.6817 15.6844 67.6817 16.6037V17.5512H64.389V16.7163C64.389 16.0034 63.9482 15.5906 63.2352 15.5906C62.6067 15.5906 62.2222 15.872 62.1002 16.4255C62.0814 16.5381 62.0533 16.8101 62.119 17.0821C62.4754 18.5268 67.3627 19.4179 67.9068 22.0727C67.9725 22.4104 68.0663 23.1421 67.9162 24.2021M80.1205 23.0201C80.1205 23.264 80.1018 23.7518 80.0831 23.8831C79.8861 26.0313 78.3383 27.1195 75.5147 27.1195C72.6911 27.1195 71.1431 26.0219 70.9461 23.8831C70.9461 23.7518 70.9181 23.264 70.9181 23.0201V13.6676H74.2857V23.3109C74.2857 23.5267 74.2858 23.6862 74.3233 23.7987C74.3702 24.0145 74.5765 24.7086 75.5239 24.7086C76.4714 24.7086 76.6872 24.0051 76.7435 23.7987C76.7622 23.6862 76.7623 23.5173 76.7623 23.3109V13.6676H80.1299V23.0201H80.1205ZM94.6418 26.6036H89.9609L86.8184 16.2566H86.7621L86.9309 26.6036H83.6664V13.6769H88.5538L91.4711 23.6111H91.5369L91.368 13.6769H94.6512V26.6036H94.6418Z" fill="#024F9E"/>
<path d="M212.22 30.3934H215.287C219.799 30.3934 221.46 28.6767 221.46 22.6637V17.4292C221.46 12.2042 219.865 10.2718 216.488 10.2718H212.22V30.384V30.3934ZM208.983 7.42003H216.807C220.053 7.42003 222.379 8.59261 223.645 11.3599C224.668 13.5456 224.771 18.6956 224.771 19.5211C224.771 25.037 224.283 28.2171 223.223 29.9337C221.854 32.157 219.265 33.2639 214.828 33.2639H208.983V7.41064" fill="#024F9E"/>
<path d="M194.406 25.6847V26.4258C194.406 29.9435 196.592 31.0411 198.665 31.0411C201.235 31.0411 203.214 29.9435 203.214 26.8573C203.214 21.1444 191.789 21.7823 191.789 14.0245C191.789 9.45607 194.997 7.01709 199.265 7.01709C203.909 7.01709 206.526 9.31537 206.319 14.5686H202.933C202.961 11.745 202.098 9.88759 199.031 9.88759C197.089 9.88759 195.119 10.8819 195.119 13.6774C195.119 19.3527 206.535 18.5366 206.535 26.7166C206.535 32.148 202.839 33.8928 198.646 33.8928C191.132 33.9679 191.132 28.1424 191.198 25.6847H194.415H194.406Z" fill="#024F9E"/>
<path d="M161.817 6.88525V20.7406H165.222V15.1872H168.112V12.3542H165.222V6.88525H161.817Z" fill="#024F9E"/>
<path d="M161.939 30.4498V24.6526H152.474V30.4498H161.939ZM149.21 33.2172V21.8853H165.213V33.2172H149.21Z" fill="#024F9E"/>
<path d="M188.28 6.88525V20.7406H184.931V15.1872H180.588V12.3542H184.875V6.88525H188.28Z" fill="#024F9E"/>
<path d="M185.41 27.5233C185.41 25.544 182.943 23.9399 179.894 23.9399C176.845 23.9399 174.378 25.544 174.378 27.5233C174.378 29.5027 176.845 31.1068 179.894 31.1068C182.943 31.1068 185.41 29.5027 185.41 27.5233ZM179.894 33.9397C174.988 33.9397 171.01 31.0692 171.01 27.5233C171.01 23.9774 174.979 21.1069 179.894 21.1069C184.809 21.1069 188.759 23.9774 188.759 27.5233C188.759 31.0692 184.791 33.9397 179.894 33.9397Z" fill="#024F9E"/>
<path d="M153.787 7.39209C153.787 7.39209 153.347 14.8873 159.406 17.9923L157.662 20.4125C157.662 20.4125 153.215 17.4764 152.202 14.2588C151.198 17.4764 146.752 20.4125 146.752 20.4125L145.007 17.9923C151.086 14.8873 150.645 7.39209 150.645 7.39209H153.787Z" fill="#024F9E"/>
<path d="M174.838 14.2587C173.834 17.4763 169.753 20.1591 169.753 20.1591L168.009 17.7483C173.703 14.8966 173.262 7.40137 173.262 7.40137H176.414C176.414 7.40137 175.973 14.8966 181.667 17.7483L179.913 20.1591C179.913 20.1591 175.841 17.4763 174.838 14.2587Z" fill="#024F9E"/>
<path d="M231 7.41064H227.651V33.1513H231V7.41064Z" fill="#024F9E"/>
</svg>
