<svg width="292" height="44" viewBox="0 0 292 44" fill="none" xmlns="http://www.w3.org/2000/svg">
<path d="M52.8271 21.9C52.8271 33.9984 40.9957 43.8 26.4135 43.8C11.8313 43.8 0 33.9984 0 21.9C0 9.80158 11.8313 0 26.4135 0C40.9957 0 52.8271 9.80158 52.8271 21.9Z" fill="#197FC3"/>
<path d="M25.8927 12.766C25.8927 14.769 23.2754 16.3982 20.0572 16.3982C16.8389 16.3982 14.2216 14.769 14.2216 12.766C14.2216 10.7629 16.8389 9.13379 20.0572 9.13379C23.2754 9.13379 25.8927 10.7629 25.8927 12.766Z" fill="white"/>
<path d="M15.7973 16.8253C15.7973 16.8253 10.082 16.7718 5.86221 19.6028C1.64245 22.4338 0.627602 27.8821 6.55663 31.354C12.4857 34.826 23.0351 33.1434 25.9462 30.2323C25.9462 30.2323 20.4445 26.8806 20.4445 23.649C20.4445 20.4174 24.0099 18.8417 24.8645 18.5612C24.8645 18.5612 21.486 16.8386 15.7973 16.8386V16.8253Z" fill="white"/>
<path d="M26.921 12.766C26.921 14.769 29.5383 16.3982 32.7565 16.3982C35.9747 16.3982 38.592 14.769 38.592 12.766C38.592 10.7629 35.9747 9.13379 32.7565 9.13379C29.5383 9.13379 26.921 10.7629 26.921 12.766Z" fill="white"/>
<path d="M37.0163 16.8253C37.0163 16.8253 42.7317 16.7718 46.9515 19.6028C51.1712 22.4338 52.1861 27.8821 46.257 31.354C40.328 34.826 29.7787 33.1434 26.8676 30.2323C26.8676 30.2323 32.3693 26.8806 32.3693 23.649C32.3693 20.4174 28.8039 18.8417 27.9492 18.5612C27.9492 18.5612 31.3277 16.8386 37.0163 16.8386V16.8253Z" fill="white"/>
<path d="M91.5126 9.12013H86.8522V6.51617H83.5805V9.12013H78.8266V11.684H91.5259V9.12013H91.5126ZM96.7072 7.39751H93.4355V23.8893H95.0646C95.5053 23.8893 95.8926 23.7424 96.2265 23.462C96.5469 23.1815 96.7205 22.7809 96.7205 22.2735V16.7985H99.7117V14.2212H96.7205V7.41086L96.7072 7.39751ZM116.19 19.2556C116.19 20.3372 115.803 21.1117 115.015 21.5791C114.227 22.0465 113.012 22.2868 111.329 22.2868H100.379V24.8507H110.395C112.972 24.8507 114.908 24.2365 116.177 23.0079V27.0942H117.753C118.18 27.0942 118.554 26.9473 118.874 26.6668C119.195 26.3864 119.355 25.9858 119.355 25.465V7.3441H116.177V19.2556H116.19ZM88.9621 20.0701C89.9235 19.2289 90.3908 18.1205 90.3908 16.7451C90.3908 15.3696 89.9102 14.2613 88.9621 13.42C88.0006 12.5787 86.7587 12.1514 85.2363 12.1514C83.714 12.1514 82.4454 12.5787 81.484 13.42C80.5225 14.2613 80.0551 15.3696 80.0551 16.7451C80.0551 18.1205 80.5359 19.2289 81.484 20.0701C82.4454 20.9114 83.6873 21.3387 85.2363 21.3387C86.7854 21.3387 88.014 20.9114 88.9621 20.0701ZM83.0998 16.7451C83.0998 16.064 83.3 15.5299 83.714 15.1426C84.1146 14.7554 84.6221 14.5684 85.2363 14.5684C85.8506 14.5684 86.3313 14.7687 86.7319 15.156C87.1326 15.5432 87.3462 16.0774 87.3462 16.7451C87.3462 17.4128 87.1459 17.9469 86.7319 18.3342C86.3313 18.7214 85.8239 18.9217 85.2363 18.9217C84.6488 18.9217 84.128 18.7214 83.714 18.3342C83.3134 17.9469 83.0998 17.4128 83.0998 16.7451ZM107.657 19.2021C109.473 19.2021 110.955 18.668 112.091 17.5864C113.226 16.5047 113.8 15.1026 113.8 13.3933C113.8 11.684 113.226 10.2953 112.091 9.21361C110.955 8.13196 109.473 7.58446 107.657 7.58446C105.841 7.58446 104.385 8.13196 103.25 9.21361C102.115 10.2953 101.541 11.6974 101.541 13.3933C101.541 15.0892 102.115 16.5181 103.25 17.5864C104.385 18.6546 105.854 19.2021 107.657 19.2021ZM105.454 11.003C106.028 10.4288 106.762 10.135 107.657 10.135C108.552 10.135 109.313 10.4288 109.887 11.003C110.461 11.5772 110.742 12.3918 110.742 13.4467C110.742 14.5017 110.461 15.3029 109.887 15.8504C109.326 16.3979 108.579 16.6783 107.657 16.6783C106.736 16.6783 106.028 16.4112 105.481 15.8904C104.893 15.3162 104.599 14.5017 104.599 13.4467C104.599 12.3918 104.88 11.5772 105.454 11.003ZM73.5786 12.8859H71.3486V7.3441H68.2104V15.4498C68.2104 16.3044 68.0636 16.9587 67.7564 17.386C67.4093 17.8668 66.7949 18.2273 65.9403 18.4677C64.9655 18.7214 63.8171 18.7882 62.4684 18.6546C61.587 18.5745 61.1464 18.0671 61.1464 17.1457V10.4021H65.8335V7.79812H58.0617V17.2258C58.0617 20.0034 59.3971 21.3921 62.0811 21.3921C64.0842 21.3921 65.6866 21.1251 66.8617 20.6043C67.3825 20.3639 67.8365 20.0434 68.1971 19.6295V26.1327H69.7729C70.1868 26.1327 70.5474 25.9858 70.8545 25.7054C71.1616 25.4249 71.3218 25.0243 71.3218 24.5169V15.5299H73.5519V24.597V26.2262H75.1276C75.5549 26.2262 75.9289 26.0793 76.236 25.7988C76.5431 25.5051 76.7033 25.1178 76.7033 24.597V7.38416H73.5519V12.9259L73.5786 12.8859ZM286.516 8.71952H281.669V5.82178H278.397V8.71952H273.403V11.417H286.529V8.71952H286.516ZM178.926 8.71952H174.078V5.82178H170.807V8.71952H165.812V11.417H178.939V8.71952H178.926ZM263.334 14.1411H266.392V15.837H263.334V18.2273H266.392V20.1369H267.994C268.435 20.1369 268.822 19.99 269.143 19.7096C269.463 19.4292 269.624 19.0285 269.624 18.5211V7.33074H266.392V11.7508H263.334V14.1411ZM288.346 7.33074V19.6695C288.346 21.6726 286.77 22.6741 283.632 22.6741H281.722V20.6978C282.79 20.444 283.645 19.9366 284.273 19.1888C284.9 18.441 285.221 17.5329 285.221 16.4914C285.221 15.1693 284.74 14.101 283.792 13.2865C282.83 12.4719 281.589 12.0713 280.066 12.0713C278.544 12.0713 277.275 12.4719 276.314 13.2865C275.352 14.101 274.885 15.1693 274.885 16.4914C274.885 17.573 275.219 18.4944 275.873 19.2556C276.541 20.0167 277.436 20.5108 278.557 20.7512V22.6874H272.562V25.2514H283.057C285.368 25.2514 287.144 24.6504 288.359 23.4353V27.0942H289.935C290.362 27.0942 290.736 26.9473 291.056 26.6668C291.377 26.3864 291.537 25.9858 291.537 25.465V7.3441H288.359L288.346 7.33074ZM280.053 18.4009C279.479 18.4009 279.011 18.2273 278.637 17.8935C278.223 17.5463 278.01 17.0789 278.01 16.478C278.01 15.8771 278.21 15.4231 278.637 15.0625C278.998 14.7287 279.479 14.5551 280.053 14.5551C280.627 14.5551 281.081 14.7287 281.468 15.0625C281.856 15.4097 282.056 15.8771 282.056 16.4646C282.056 17.0522 281.856 17.5196 281.468 17.8668C281.081 18.214 280.6 18.3876 280.053 18.3876V18.4009ZM264.149 8.66611H259.315V6.08885H256.23V8.66611H251.262V11.23H264.149V8.66611ZM266.392 22.9412H258.674V21.3654H255.589V29.4978H258.059C258.059 29.4978 258.153 29.4978 258.193 29.4978H266.873C268.609 29.4978 269.477 28.6432 269.477 26.9206V21.3788H266.392V22.9545V22.9412ZM266.392 26.5066C266.392 26.8538 266.219 27.0274 265.871 27.0274H259.194C258.847 27.0274 258.674 26.8538 258.674 26.5066V25.3849H266.392V26.5066ZM261.304 18.9751C262.212 18.2006 262.666 17.1724 262.666 15.8904C262.666 14.6085 262.212 13.607 261.304 12.8324C260.396 12.0579 259.221 11.6573 257.792 11.6573C256.364 11.6573 255.162 12.0446 254.254 12.8324C253.346 13.607 252.892 14.6352 252.892 15.8904C252.892 17.1457 253.346 18.2006 254.254 18.9751C255.162 19.7496 256.337 20.1503 257.792 20.1503C259.248 20.1503 260.396 19.763 261.304 18.9751ZM255.709 15.8904C255.709 15.3429 255.923 14.9023 256.337 14.5684C256.751 14.2212 257.232 14.061 257.792 14.061C258.353 14.061 258.807 14.2346 259.221 14.5684C259.635 14.9156 259.849 15.3563 259.849 15.8904C259.849 16.4246 259.635 16.9053 259.221 17.2392C258.807 17.5863 258.327 17.7599 257.792 17.7599C257.258 17.7599 256.751 17.5863 256.337 17.2392C255.923 16.892 255.709 16.4513 255.709 15.8904ZM241.982 19.2823C239.044 17.1056 237.588 13.9274 237.588 9.76111V7.70464H234.343V9.76111C234.343 14.1812 232.874 17.4528 229.95 19.5894C229.563 19.8832 229.376 20.2304 229.376 20.6577C229.376 20.9782 229.496 21.2586 229.723 21.499C229.95 21.7393 230.244 21.8595 230.591 21.8595C230.805 21.8595 231.018 21.8061 231.232 21.7126C232.153 21.2853 233.101 20.5776 234.076 19.5894C235.091 18.5345 235.745 17.5864 236.013 16.7184C236.373 17.5329 237.001 18.3742 237.882 19.2422C238.763 20.1102 239.658 20.7645 240.579 21.2185C240.847 21.3654 241.1 21.4322 241.341 21.4322C241.688 21.4322 241.968 21.312 242.195 21.085C242.409 20.858 242.516 20.5909 242.516 20.2838C242.516 19.8832 242.342 19.5493 241.995 19.2823H241.982ZM202.268 22.0064H189.074V24.5436H200.145C200.572 24.5436 200.786 24.7573 200.786 25.1846V27.8687C200.786 27.9488 200.786 28.0156 200.799 28.0823V29.4978H202.388C202.388 29.4978 202.388 29.4978 202.401 29.4978C202.829 29.4978 203.203 29.3509 203.523 29.0705C203.844 28.7901 204.004 28.3895 204.004 27.8687V23.7557C204.004 22.594 203.416 22.0064 202.254 22.0064H202.268ZM223.433 26.1193H225.022C225.022 26.1193 225.049 26.1193 225.063 26.1193C225.503 26.1193 225.89 25.9725 226.224 25.692C226.545 25.4116 226.718 25.011 226.718 24.5035V7.33074H223.447V26.1193H223.433ZM220.95 19.3757C218.038 17.2125 216.57 14.288 216.57 10.6024V10.4154H220.749V7.81147H208.958V10.4154H213.164V10.6024C213.164 12.6455 212.857 14.3414 212.23 15.6901C211.589 17.1056 210.48 18.4276 208.905 19.6295C208.544 19.9099 208.357 20.2571 208.357 20.6577C208.357 20.9915 208.477 21.2853 208.718 21.5257C208.958 21.766 209.252 21.8862 209.599 21.8862C209.813 21.8862 210.013 21.8328 210.227 21.7393C211.055 21.3654 211.949 20.7378 212.911 19.8298C213.979 18.8282 214.647 17.8801 214.914 17.0121C215.261 17.8401 216.009 18.7882 217.157 19.8565C218.399 21.0316 219.414 21.6192 220.215 21.6192C220.576 21.6192 220.883 21.499 221.123 21.2453C221.364 20.9915 221.484 20.7111 221.484 20.3906C221.484 19.9767 221.297 19.6295 220.936 19.3624L220.95 19.3757ZM155.917 19.2823C152.979 17.1056 151.524 13.9274 151.524 9.76111V7.70464H148.279V9.76111C148.279 14.1812 146.81 17.4528 143.886 19.5894C143.498 19.8832 143.311 20.2304 143.311 20.6577C143.311 20.9782 143.432 21.2586 143.659 21.499C143.886 21.7393 144.179 21.8595 144.527 21.8595C144.727 21.8595 144.954 21.8061 145.168 21.7126C146.089 21.2853 147.037 20.5776 148.012 19.5894C149.027 18.5345 149.681 17.5864 149.948 16.7184C150.309 17.5329 150.936 18.3742 151.818 19.2422C152.699 20.1102 153.594 20.7645 154.515 21.2185C154.782 21.3654 155.036 21.4322 155.276 21.4322C155.623 21.4322 155.904 21.312 156.131 21.085C156.345 20.858 156.451 20.5909 156.451 20.2838C156.451 19.8832 156.278 19.5493 155.931 19.2823H155.917ZM247.016 7.33074H243.744V21.2319V26.146H245.4C245.841 26.146 246.228 26.0125 246.549 25.7454C246.869 25.4784 247.029 25.0778 247.029 24.5703V15.4097H250.328V12.8057H247.029V7.33074H247.016ZM160.938 7.33074H157.667V22.634V26.146H159.322C159.763 26.146 160.15 26.0125 160.471 25.7454C160.791 25.4784 160.952 25.0778 160.952 24.5703V15.4097H164.25V12.8057H160.952V7.33074H160.938ZM180.755 19.6695C180.755 21.6726 179.179 22.6741 176.041 22.6741H174.132V20.6978C175.2 20.444 176.055 19.9366 176.682 19.1888C177.31 18.441 177.63 17.5329 177.63 16.4914C177.63 15.1693 177.15 14.101 176.201 13.2865C175.24 12.4719 173.998 12.0713 172.476 12.0713C170.953 12.0713 169.672 12.4719 168.723 13.2865C167.762 14.101 167.295 15.1693 167.295 16.4914C167.295 17.573 167.628 18.4944 168.283 19.2556C168.95 20.0167 169.845 20.5108 170.967 20.7512V22.6874H164.971V25.2514H175.467C177.777 25.2514 179.553 24.6504 180.782 23.4353V27.0942H182.438C182.838 27.0674 183.185 26.9339 183.493 26.6668C183.813 26.3864 183.973 25.9858 183.973 25.465V7.3441H180.795V19.6829L180.755 19.6695ZM172.462 18.4009C171.888 18.4009 171.421 18.2273 171.047 17.8935C170.633 17.5463 170.419 17.0789 170.419 16.478C170.419 15.8771 170.633 15.4231 171.047 15.0625C171.408 14.7287 171.888 14.5551 172.462 14.5551C173.037 14.5551 173.491 14.7287 173.878 15.0625C174.265 15.4097 174.465 15.8771 174.465 16.4646C174.465 17.0522 174.265 17.5196 173.878 17.8668C173.491 18.214 173.01 18.3876 172.462 18.3876V18.4009ZM142.51 23.0079H137.276V19.8832C138.037 19.7763 138.731 19.6161 139.359 19.4292C139.986 19.2422 140.294 18.8282 140.294 18.214C140.294 17.8935 140.187 17.6264 139.986 17.3994C139.773 17.1724 139.492 17.0656 139.132 17.0656C139.025 17.0656 138.905 17.0789 138.771 17.119C137.409 17.4261 135.566 17.573 133.229 17.573H128.876C128.235 17.573 127.915 17.2926 127.915 16.7317V15.4631C127.915 15.1159 128.088 14.9423 128.435 14.9423H137.356C138.598 14.9423 139.225 14.3147 139.225 13.0728V7.53105H125.124V10.1083H136.007V11.9511C136.007 12.2983 135.833 12.4719 135.486 12.4719H126.566C125.324 12.4719 124.696 13.0862 124.696 14.3147V17.119C124.696 18.2407 124.937 19.0285 125.431 19.4826C125.912 19.9499 126.686 20.177 127.741 20.177V23.0213H121.999V25.5985H141.242C141.656 25.5985 141.976 25.465 142.216 25.2113C142.457 24.9576 142.577 24.6504 142.577 24.3032C142.577 24.1831 142.564 24.0762 142.537 23.9694V23.0213L142.51 23.0079ZM134.324 23.0079H130.639V20.1636H133.056C133.483 20.1636 133.91 20.1636 134.324 20.1369V23.0079ZM198.208 16.3178H201.387C203.096 16.3178 203.95 15.4631 203.95 13.7538V7.3708H200.745V9.64092H192.493V7.3708H189.315V13.7538C189.315 15.4631 190.169 16.3178 191.879 16.3178H195.03V18.1071H186.497V20.5909H205.74C206.154 20.5909 206.474 20.4707 206.715 20.217C206.942 19.9633 207.062 19.6829 207.062 19.349V18.1071H198.222V16.3178H198.208ZM193.014 13.834C192.907 13.834 192.787 13.7806 192.667 13.6737C192.546 13.5669 192.493 13.4467 192.493 13.3132V11.9778H200.745V13.3132C200.745 13.4467 200.692 13.5669 200.572 13.6737C200.465 13.7806 200.345 13.834 200.211 13.834H193.014ZM85.7572 25.8656V22.6874H82.4855V26.6535C82.4855 27.615 82.6858 28.296 83.0864 28.6966C83.487 29.0972 84.1681 29.3109 85.1162 29.3109H95.3985C95.8124 29.3109 96.1463 29.1773 96.4 28.9103C96.6003 28.6565 96.7072 28.3494 96.7072 28.0022V26.7069H86.5984C86.0376 26.7069 85.7572 26.4265 85.7572 25.8656Z" fill="#231916"/>
<path d="M59.5305 33.4245H58.0884V32.877H61.6003V33.4245H60.1448V37.8846H59.5305V33.4245Z" fill="#808080"/>
<path d="M63.964 32.6094H64.5783V34.8528H64.5916C64.6851 34.6658 64.8453 34.4922 65.0322 34.3988C65.2192 34.2786 65.4329 34.2118 65.6733 34.2118C66.1273 34.2118 66.8617 34.5056 66.8617 35.7475V37.8841H66.2475V35.8276C66.2475 35.24 66.0471 34.7593 65.4596 34.7593C65.059 34.7593 64.7518 35.0531 64.6316 35.4136C64.5916 35.5071 64.5916 35.6006 64.5916 35.7208V37.8841H63.9773V32.6094H63.964Z" fill="#808080"/>
<path d="M70.1334 36.1888C70.1467 37.0701 70.6808 37.4307 71.2951 37.4307C71.7358 37.4307 72.0162 37.3505 72.2433 37.2571L72.3501 37.7111C72.1364 37.8179 71.7491 37.9381 71.2016 37.9381C70.16 37.9381 69.5191 37.2036 69.5191 36.122C69.5191 35.0403 70.1333 34.1724 71.1215 34.1724C72.2299 34.1724 72.5237 35.2006 72.5237 35.8683C72.5237 36.0018 72.5237 36.1086 72.497 36.1754H70.1067L70.1334 36.1888ZM71.9494 35.7214C71.9494 35.3074 71.7892 34.6665 71.0949 34.6665C70.4672 34.6665 70.1868 35.2674 70.1467 35.7214H71.9494Z" fill="#808080"/>
<path d="M78.6396 32.877H79.2539V35.294H79.2806C79.4008 35.107 79.5343 34.9201 79.6545 34.7598L81.1101 32.877H81.8713L80.1486 35.0002L82.0048 37.8846H81.2837L79.7213 35.4275L79.2673 35.975V37.8846H78.653V32.877H78.6396Z" fill="#808080"/>
<path d="M85.717 37.9648C84.7956 37.9648 84.0879 37.257 84.0879 36.122C84.0879 34.9201 84.8358 34.2124 85.7839 34.2124C86.732 34.2124 87.4264 34.9602 87.4264 36.0552C87.4264 37.3906 86.545 37.9648 85.7304 37.9648H85.717ZM85.7438 37.4707C86.3313 37.4707 86.7854 36.8831 86.7854 36.0686C86.7854 35.4543 86.4916 34.6931 85.7571 34.6931C85.0227 34.6931 84.7155 35.4009 84.7155 36.0819C84.7155 36.8698 85.1429 37.4573 85.7438 37.4573V37.4707Z" fill="#808080"/>
<path d="M90.1105 35.4006C90.1105 34.9732 90.1104 34.6127 90.0837 34.2789H90.6313L90.6579 34.9866H90.6847C90.8449 34.5059 91.2188 34.1987 91.6328 34.1987C91.6996 34.1987 91.7396 34.1987 91.8064 34.2254V34.8397C91.7396 34.8397 91.6728 34.8264 91.5927 34.8264C91.152 34.8264 90.8449 35.1735 90.7648 35.6543C90.7514 35.7478 90.738 35.8546 90.738 35.9748V37.8843H90.1238V35.4139L90.1105 35.4006Z" fill="#808080"/>
<path d="M94.624 36.1888C94.6374 37.0701 95.1715 37.4307 95.7858 37.4307C96.2264 37.4307 96.5068 37.3505 96.7338 37.2571L96.8407 37.7111C96.627 37.8179 96.2398 37.9381 95.6923 37.9381C94.6507 37.9381 94.0097 37.2036 94.0097 36.122C94.0097 35.0403 94.624 34.1724 95.6122 34.1724C96.7205 34.1724 97.0143 35.2006 97.0143 35.8683C97.0143 36.0018 97.0143 36.1086 96.9875 36.1754H94.5973L94.624 36.1888ZM96.4401 35.7214C96.4401 35.3074 96.2798 34.6665 95.5854 34.6665C94.9445 34.6665 94.6774 35.2674 94.6374 35.7214H96.4401Z" fill="#808080"/>
<path d="M102.115 37.0167C102.115 37.3238 102.129 37.6309 102.169 37.8847H101.608L101.555 37.4306H101.528C101.341 37.7111 100.967 37.9648 100.486 37.9648C99.7919 37.9648 99.4446 37.4573 99.4446 36.9365C99.4446 36.0686 100.179 35.5878 101.501 35.6012V35.5211C101.501 35.2273 101.421 34.6798 100.727 34.6931C100.406 34.6931 100.072 34.7866 99.8319 34.9602L99.685 34.5195C99.9654 34.3326 100.379 34.2124 100.807 34.2124C101.862 34.2124 102.115 34.9602 102.115 35.6813V37.03V37.0167ZM101.514 36.0419C100.833 36.0285 100.072 36.1487 100.072 36.8564C100.072 37.2837 100.339 37.484 100.647 37.484C101.101 37.484 101.381 37.1903 101.488 36.8831C101.514 36.8164 101.514 36.7362 101.514 36.6695V36.0419Z" fill="#808080"/>
<path d="M105.013 35.2537C105.013 34.8798 105.013 34.5726 104.986 34.2789H105.534L105.574 34.8664H105.587C105.761 34.5326 106.148 34.1987 106.709 34.1987C107.176 34.1987 107.911 34.4925 107.911 35.7344V37.8843H107.297V35.8145C107.297 35.2403 107.096 34.7462 106.509 34.7462C106.108 34.7462 105.788 35.0534 105.681 35.4139C105.654 35.494 105.641 35.6142 105.641 35.721V37.8843H105.026V35.267L105.013 35.2537Z" fill="#808080"/>
<path d="M115.015 36.3088L114.521 37.8846H113.88L115.496 32.877H116.23L117.846 37.8846H117.192L116.684 36.3088H115.002H115.015ZM116.577 35.8014L116.11 34.3592C116.017 34.0254 115.936 33.7316 115.87 33.4512H115.843C115.776 33.7449 115.696 34.0521 115.616 34.3592L115.149 35.8148H116.577V35.8014Z" fill="#808080"/>
<path d="M120.316 37.2167C120.503 37.3368 120.837 37.4704 121.144 37.4704C121.585 37.4704 121.799 37.2434 121.799 36.9362C121.799 36.6291 121.625 36.4555 121.171 36.2685C120.557 36.0282 120.263 35.681 120.263 35.2537C120.263 34.6795 120.717 34.1987 121.438 34.1987C121.785 34.1987 122.092 34.2922 122.266 34.4257L122.119 34.8931C121.986 34.813 121.732 34.6795 121.425 34.6795C121.064 34.6795 120.864 34.9065 120.864 35.1735C120.864 35.4807 121.064 35.6142 121.505 35.7878C122.092 36.0148 122.4 36.3353 122.4 36.8695C122.4 37.5104 121.932 37.9511 121.131 37.9511C120.757 37.9511 120.41 37.8443 120.17 37.6974L120.316 37.2033V37.2167Z" fill="#808080"/>
<path d="M125.017 37.2167C125.204 37.3368 125.538 37.4704 125.845 37.4704C126.286 37.4704 126.499 37.2434 126.499 36.9362C126.499 36.6291 126.326 36.4555 125.872 36.2685C125.257 36.0282 124.963 35.681 124.963 35.2537C124.963 34.6795 125.418 34.1987 126.139 34.1987C126.486 34.1987 126.793 34.2922 126.967 34.4257L126.82 34.8931C126.686 34.813 126.432 34.6795 126.125 34.6795C125.765 34.6795 125.564 34.9065 125.564 35.1735C125.564 35.4807 125.765 35.6142 126.205 35.7878C126.793 36.0148 127.1 36.3353 127.1 36.8695C127.1 37.5104 126.633 37.9511 125.832 37.9511C125.458 37.9511 125.11 37.8443 124.87 37.6974L125.017 37.2033V37.2167Z" fill="#808080"/>
<path d="M131.186 37.9648C130.265 37.9648 129.557 37.257 129.557 36.122C129.557 34.9201 130.305 34.2124 131.253 34.2124C132.201 34.2124 132.896 34.9602 132.896 36.0552C132.896 37.3906 132.014 37.9648 131.2 37.9648H131.186ZM131.213 37.4707C131.801 37.4707 132.255 36.8831 132.255 36.0686C132.255 35.4543 131.961 34.6931 131.226 34.6931C130.492 34.6931 130.185 35.4009 130.185 36.0819C130.185 36.8698 130.612 37.4573 131.213 37.4573V37.4707Z" fill="#808080"/>
<path d="M138.01 37.7511C137.85 37.8312 137.489 37.9648 137.035 37.9648C136.007 37.9648 135.339 37.2303 135.339 36.122C135.339 35.0136 136.06 34.2124 137.169 34.2124C137.529 34.2124 137.863 34.3059 138.023 34.4127L137.89 34.9068C137.743 34.8267 137.516 34.7332 137.169 34.7332C136.381 34.7332 135.967 35.3475 135.967 36.0953C135.967 36.9232 136.474 37.444 137.155 37.444C137.503 37.444 137.743 37.3505 137.917 37.2704L138.023 37.7645L138.01 37.7511Z" fill="#808080"/>
<path d="M140.934 33.625C140.707 33.625 140.547 33.4247 140.547 33.1977C140.547 32.9706 140.707 32.7837 140.948 32.7837C141.188 32.7837 141.335 32.9706 141.335 33.1977C141.335 33.4247 141.175 33.625 140.934 33.625ZM140.641 37.8848V34.2927H141.255V37.8848H140.641Z" fill="#808080"/>
<path d="M146.596 37.0167C146.596 37.3238 146.61 37.6309 146.65 37.8847H146.089L146.036 37.4306H146.009C145.822 37.7111 145.448 37.9648 144.967 37.9648C144.273 37.9648 143.926 37.4573 143.926 36.9365C143.926 36.0686 144.66 35.5878 145.982 35.6012V35.5211C145.982 35.2273 145.902 34.6798 145.208 34.6931C144.887 34.6931 144.553 34.7866 144.313 34.9602L144.166 34.5195C144.446 34.3326 144.86 34.2124 145.288 34.2124C146.343 34.2124 146.596 34.9602 146.596 35.6813V37.03V37.0167ZM145.995 36.0419C145.314 36.0285 144.553 36.1487 144.553 36.8564C144.553 37.2837 144.82 37.484 145.128 37.484C145.582 37.484 145.862 37.1903 145.969 36.8831C145.996 36.8164 145.995 36.7362 145.995 36.6695V36.0419Z" fill="#808080"/>
<path d="M150.215 33.4248V34.2928H151.097V34.7869H150.215V36.7232C150.215 37.1638 150.335 37.4175 150.683 37.4175C150.856 37.4175 150.95 37.4042 151.043 37.3775L151.07 37.8716C150.95 37.9116 150.763 37.965 150.522 37.965C150.229 37.965 150.002 37.8582 149.855 37.6846C149.681 37.4843 149.614 37.1638 149.614 36.7499V34.7869H149.08V34.2928H149.614V33.6251L150.215 33.4248Z" fill="#808080"/>
<path d="M153.994 33.625C153.767 33.625 153.607 33.4247 153.607 33.1977C153.607 32.9706 153.767 32.7837 154.008 32.7837C154.248 32.7837 154.408 32.9706 154.408 33.1977C154.408 33.4247 154.248 33.625 154.008 33.625H153.994ZM153.701 37.8848V34.2927H154.315V37.8848H153.701Z" fill="#808080"/>
<path d="M158.641 37.9648C157.72 37.9648 157.012 37.257 157.012 36.122C157.012 34.9201 157.76 34.2124 158.708 34.2124C159.656 34.2124 160.351 34.9602 160.351 36.0552C160.351 37.3906 159.469 37.9648 158.655 37.9648H158.641ZM158.668 37.4707C159.256 37.4707 159.71 36.8831 159.71 36.0686C159.71 35.4543 159.416 34.6931 158.681 34.6931C157.947 34.6931 157.64 35.4009 157.64 36.0819C157.64 36.8698 158.067 37.4573 158.668 37.4573V37.4707Z" fill="#808080"/>
<path d="M163.035 35.2537C163.035 34.8798 163.035 34.5726 163.008 34.2789H163.556L163.596 34.8664H163.609C163.783 34.5326 164.17 34.1987 164.744 34.1987C165.211 34.1987 165.946 34.4925 165.946 35.7344V37.8843H165.332V35.8145C165.332 35.2403 165.131 34.7462 164.544 34.7462C164.143 34.7462 163.823 35.0534 163.716 35.4139C163.689 35.494 163.676 35.6142 163.676 35.721V37.8843H163.048V35.267L163.035 35.2537Z" fill="#808080"/>
<path d="M173.638 37.9648C172.716 37.9648 172.008 37.257 172.008 36.122C172.008 34.9201 172.756 34.2124 173.704 34.2124C174.652 34.2124 175.347 34.9602 175.347 36.0552C175.347 37.3906 174.466 37.9648 173.651 37.9648H173.638ZM173.664 37.4707C174.252 37.4707 174.706 36.8831 174.706 36.0686C174.706 35.4543 174.412 34.6931 173.678 34.6931C172.943 34.6931 172.636 35.4009 172.636 36.0819C172.636 36.8698 173.063 37.4573 173.664 37.4573V37.4707Z" fill="#808080"/>
<path d="M178.071 37.8709V34.7729H177.604V34.2788H178.071V34.1052C178.071 33.5978 178.178 33.1437 178.472 32.85C178.699 32.6096 179.019 32.5161 179.3 32.5161C179.527 32.5161 179.714 32.5695 179.834 32.6229L179.754 33.1304C179.66 33.0903 179.54 33.0503 179.353 33.0503C178.832 33.0503 178.685 33.5443 178.685 34.0918V34.2788H179.513V34.7729H178.699V37.8709H178.084H178.071Z" fill="#808080"/>
<path d="M189.408 35.6809C189.368 34.9865 189.328 34.1319 189.328 33.5176H189.315C189.141 34.0918 188.954 34.7328 188.714 35.4138L187.873 37.8442H187.405L186.631 35.4539C186.404 34.7461 186.217 34.1052 186.083 33.5043H186.07C186.056 34.1319 186.016 34.9598 185.976 35.721L185.843 37.8709H185.255L185.589 32.8633H186.377L187.192 35.2803C187.392 35.8946 187.539 36.4421 187.672 36.9629H187.686C187.806 36.4554 187.979 35.9079 188.193 35.2803L189.034 32.8633H189.822L190.116 37.8709H189.515L189.395 35.6676L189.408 35.6809Z" fill="#808080"/>
<path d="M193.348 36.1888C193.361 37.0701 193.895 37.4307 194.509 37.4307C194.95 37.4307 195.23 37.3505 195.457 37.2571L195.564 37.7111C195.351 37.8179 194.963 37.9381 194.416 37.9381C193.374 37.9381 192.733 37.2036 192.733 36.122C192.733 35.0403 193.348 34.1724 194.336 34.1724C195.444 34.1724 195.738 35.2006 195.738 35.8683C195.738 36.0018 195.738 36.1086 195.711 36.1754H193.321L193.348 36.1888ZM195.164 35.7214C195.164 35.3074 195.003 34.6665 194.309 34.6665C193.668 34.6665 193.401 35.2674 193.361 35.7214H195.164Z" fill="#808080"/>
<path d="M201.373 32.6094V36.9493C201.373 37.2698 201.373 37.6304 201.4 37.8841H200.839L200.812 37.2564H200.799C200.612 37.6571 200.198 37.9642 199.637 37.9642C198.809 37.9642 198.168 37.2297 198.168 36.1347C198.168 34.9329 198.876 34.1985 199.704 34.1985C200.238 34.1985 200.585 34.4655 200.732 34.746H200.745V32.6094H201.36H201.373ZM200.759 35.7475C200.759 35.654 200.759 35.5472 200.732 35.4671C200.639 35.0664 200.305 34.7193 199.837 34.7193C199.196 34.7193 198.809 35.3068 198.809 36.0947C198.809 36.8291 199.156 37.43 199.811 37.43C200.225 37.43 200.612 37.1363 200.719 36.6555C200.746 36.5621 200.745 36.4819 200.745 36.3751V35.7475H200.759Z" fill="#808080"/>
<path d="M204.605 33.625C204.378 33.625 204.217 33.4247 204.217 33.1977C204.217 32.9706 204.378 32.7837 204.618 32.7837C204.858 32.7837 205.019 32.9706 205.019 33.1977C205.019 33.4247 204.858 33.625 204.618 33.625H204.605ZM204.311 37.8848V34.2927H204.939V37.8848H204.311Z" fill="#808080"/>
<path d="M210.293 37.7511C210.133 37.8312 209.773 37.9648 209.319 37.9648C208.29 37.9648 207.623 37.2303 207.623 36.122C207.623 35.0136 208.344 34.2124 209.452 34.2124C209.813 34.2124 210.147 34.3059 210.307 34.4127L210.16 34.9068C210.013 34.8267 209.773 34.7332 209.439 34.7332C208.651 34.7332 208.237 35.3475 208.237 36.0953C208.237 36.9232 208.744 37.444 209.425 37.444C209.773 37.444 210.013 37.3505 210.187 37.2704L210.293 37.7645V37.7511Z" fill="#808080"/>
<path d="M215.341 37.0167C215.341 37.3238 215.354 37.6309 215.394 37.8847H214.834L214.78 37.4306H214.753C214.567 37.7111 214.193 37.9648 213.712 37.9648C213.018 37.9648 212.67 37.4573 212.67 36.9365C212.67 36.0686 213.405 35.5878 214.727 35.6012V35.5211C214.727 35.2273 214.647 34.6798 213.952 34.6931C213.632 34.6931 213.298 34.7866 213.058 34.9602L212.911 34.5195C213.191 34.3326 213.605 34.2124 214.032 34.2124C215.087 34.2124 215.341 34.9602 215.341 35.6813V37.03V37.0167ZM214.74 36.0419C214.059 36.0285 213.298 36.1487 213.298 36.8564C213.298 37.2837 213.565 37.484 213.872 37.484C214.326 37.484 214.607 37.1903 214.713 36.8831C214.74 36.8164 214.74 36.7362 214.74 36.6695V36.0419Z" fill="#808080"/>
<path d="M218.239 32.6094H218.853V37.8841H218.239V32.6094Z" fill="#808080"/>
<path d="M225.129 37.0969C225.41 37.2839 225.797 37.4174 226.224 37.4174C226.852 37.4174 227.212 37.0702 227.212 36.5628C227.212 36.0954 226.959 35.8283 226.318 35.5746C225.543 35.2808 225.063 34.8402 225.063 34.1458C225.063 33.3713 225.677 32.7837 226.598 32.7837C227.079 32.7837 227.439 32.9039 227.64 33.0241L227.466 33.5449C227.319 33.4514 226.999 33.3045 226.571 33.3045C225.917 33.3045 225.677 33.7184 225.677 34.0523C225.677 34.5197 225.971 34.7467 226.625 35.0138C227.426 35.3476 227.827 35.7482 227.827 36.4827C227.827 37.2572 227.293 37.9249 226.171 37.9249C225.717 37.9249 225.209 37.778 224.956 37.591L225.116 37.0435L225.129 37.0969Z" fill="#808080"/>
<path d="M231.98 37.9648C231.058 37.9648 230.337 37.257 230.337 36.122C230.337 34.9201 231.085 34.2124 232.033 34.2124C232.981 34.2124 233.676 34.9602 233.676 36.0552C233.676 37.3906 232.794 37.9648 231.98 37.9648ZM232.006 37.4707C232.594 37.4707 233.048 36.8831 233.048 36.0686C233.048 35.4543 232.754 34.6931 232.02 34.6931C231.285 34.6931 230.978 35.4009 230.978 36.0819C230.978 36.8698 231.406 37.4573 232.006 37.4573V37.4707Z" fill="#808080"/>
<path d="M238.803 37.7511C238.643 37.8312 238.283 37.9648 237.829 37.9648C236.8 37.9648 236.133 37.2303 236.133 36.122C236.133 35.0136 236.854 34.2124 237.962 34.2124C238.323 34.2124 238.657 34.3059 238.817 34.4127L238.67 34.9068C238.523 34.8267 238.296 34.7332 237.949 34.7332C237.161 34.7332 236.747 35.3475 236.747 36.0953C236.747 36.9232 237.254 37.444 237.935 37.444C238.283 37.444 238.523 37.3505 238.697 37.2704L238.803 37.7645V37.7511Z" fill="#808080"/>
<path d="M241.728 33.625C241.501 33.625 241.341 33.4247 241.341 33.1977C241.341 32.9706 241.501 32.7837 241.741 32.7837C241.982 32.7837 242.142 32.9706 242.142 33.1977C242.142 33.4247 241.982 33.625 241.741 33.625H241.728ZM241.434 37.8848V34.2927H242.062V37.8848H241.434Z" fill="#808080"/>
<path d="M247.39 37.0167C247.39 37.3238 247.403 37.6309 247.443 37.8847H246.882L246.829 37.4306H246.802C246.615 37.7111 246.241 37.9648 245.761 37.9648C245.066 37.9648 244.719 37.4573 244.719 36.9365C244.719 36.0686 245.454 35.5878 246.776 35.6012V35.5211C246.776 35.2273 246.695 34.6798 246.001 34.6931C245.681 34.6931 245.347 34.7866 245.106 34.9602L244.959 34.5195C245.24 34.3326 245.654 34.2124 246.081 34.2124C247.136 34.2124 247.39 34.9602 247.39 35.6813V37.03V37.0167ZM246.789 36.0419C246.108 36.0285 245.347 36.1487 245.347 36.8564C245.347 37.2837 245.614 37.484 245.921 37.484C246.375 37.484 246.655 37.1903 246.762 36.8831C246.789 36.8164 246.789 36.7362 246.789 36.6695V36.0419Z" fill="#808080"/>
<path d="M250.288 32.6094H250.902V37.8841H250.288V32.6094Z" fill="#808080"/>
<path d="M257.779 37.8711L256.577 32.8634H257.231L257.792 35.4006C257.939 36.0283 258.059 36.6425 258.14 37.1233H258.153C258.233 36.6292 258.38 36.0283 258.54 35.3873L259.181 32.8634H259.822L260.396 35.4006C260.53 36.0016 260.663 36.5891 260.73 37.1099H260.743C260.837 36.5624 260.971 36.0016 261.117 35.3739L261.745 32.8501H262.373L261.024 37.8577H260.383L259.782 35.2538C259.635 34.6128 259.542 34.1187 259.475 33.6113H259.462C259.381 34.1187 259.275 34.5994 259.101 35.2404L258.42 37.8444H257.779V37.8711Z" fill="#808080"/>
<path d="M265.991 37.9648C265.07 37.9648 264.349 37.257 264.349 36.122C264.349 34.9201 265.097 34.2124 266.045 34.2124C266.993 34.2124 267.687 34.9602 267.687 36.0552C267.687 37.3906 266.806 37.9648 265.991 37.9648ZM266.018 37.4707C266.606 37.4707 267.06 36.8831 267.06 36.0686C267.06 35.4543 266.766 34.6931 266.032 34.6931C265.297 34.6931 264.99 35.4009 264.99 36.0819C264.99 36.8698 265.417 37.4573 266.018 37.4573V37.4707Z" fill="#808080"/>
<path d="M270.385 35.4006C270.385 34.9732 270.385 34.6127 270.358 34.2789H270.906L270.932 34.9866H270.959C271.119 34.5059 271.493 34.1987 271.907 34.1987C271.974 34.1987 272.014 34.1987 272.081 34.2254V34.8397C272.014 34.8397 271.947 34.8264 271.867 34.8264C271.426 34.8264 271.119 35.1735 271.039 35.6543C271.026 35.7478 271.012 35.8546 271.012 35.9748V37.8843H270.398V35.4139L270.385 35.4006Z" fill="#808080"/>
<path d="M275.246 35.9351H275.259C275.339 35.8149 275.459 35.6413 275.553 35.5211L276.554 34.2792H277.289L275.967 35.7615L277.462 37.8714H276.701L275.526 36.1488L275.205 36.5227V37.8714H274.578V32.5967H275.205V35.9217L275.246 35.9351Z" fill="#808080"/>
<path d="M280.226 36.1888C280.24 37.0701 280.774 37.4307 281.388 37.4307C281.829 37.4307 282.109 37.3505 282.336 37.2571L282.443 37.7111C282.23 37.8179 281.842 37.9381 281.295 37.9381C280.253 37.9381 279.612 37.2036 279.612 36.122C279.612 35.0403 280.226 34.1724 281.215 34.1724C282.323 34.1724 282.617 35.2006 282.617 35.8683C282.617 36.0018 282.617 36.1086 282.59 36.1754H280.2L280.226 36.1888ZM282.043 35.7214C282.043 35.3074 281.882 34.6665 281.188 34.6665C280.56 34.6665 280.28 35.2674 280.24 35.7214H282.043Z" fill="#808080"/>
<path d="M285.328 35.4006C285.328 34.9732 285.328 34.6127 285.301 34.2789H285.848L285.875 34.9866H285.902C286.062 34.5059 286.436 34.1987 286.85 34.1987C286.917 34.1987 286.97 34.1987 287.023 34.2254V34.8397C286.957 34.8397 286.89 34.8264 286.81 34.8264C286.369 34.8264 286.062 35.1735 285.982 35.6543C285.969 35.7478 285.955 35.8546 285.955 35.9748V37.8843H285.328V35.4139V35.4006Z" fill="#808080"/>
<path d="M289.441 37.2167C289.627 37.3368 289.948 37.4704 290.268 37.4704C290.709 37.4704 290.923 37.2434 290.923 36.9362C290.923 36.6291 290.749 36.4555 290.295 36.2685C289.681 36.0282 289.387 35.681 289.387 35.2537C289.387 34.6795 289.841 34.1987 290.562 34.1987C290.909 34.1987 291.217 34.2922 291.39 34.4257L291.243 34.8931C291.11 34.813 290.869 34.6795 290.549 34.6795C290.188 34.6795 289.988 34.9065 289.988 35.1735C289.988 35.4807 290.188 35.6142 290.629 35.7878C291.217 36.0148 291.524 36.3353 291.524 36.8695C291.524 37.5104 291.056 37.9511 290.255 37.9511C289.881 37.9511 289.534 37.8443 289.294 37.6974L289.441 37.2033V37.2167Z" fill="#808080"/>
</svg>
