<svg width="252" height="59" viewBox="0 0 252 59" fill="none" xmlns="http://www.w3.org/2000/svg">
<path d="M29.5282 40.1588C29.5795 40.8778 29.0806 41.5161 28.413 41.5601C27.7454 41.6041 27.1658 41.0539 27.1145 40.3276C27.0631 39.6086 27.562 38.9777 28.2296 38.9263C28.9046 38.8823 29.4841 39.4252 29.5355 40.1588" fill="#9AD699"/>
<path d="M36.747 36.726C36.7983 37.4597 36.2996 38.0833 35.632 38.1273C34.9717 38.1786 34.3848 37.6211 34.3335 36.8948C34.2821 36.1685 34.781 35.5449 35.4559 35.5009C36.1236 35.4495 36.703 35.9998 36.7543 36.7187" fill="#9AD699"/>
<path d="M25.8892 18.6707C25.5298 19.6317 25.0088 21.6786 25.9772 24.8479C25.9772 24.8479 21.5901 17.8783 22.6979 10.5053C23.0574 8.121 23.9231 4.49685 27.1437 1.79708C27.1437 1.79708 29.7334 -0.403823 33.1007 0.0657022C34.6634 0.285792 35.6318 1.37157 35.8886 1.91446C35.8886 1.91446 37.3265 3.81457 36.9597 8.26773C36.8203 9.9991 36.769 11.7672 36.0793 14.4009C36.0793 14.4009 41.6843 12.1853 47.0324 12.7943C49.989 13.1244 52.5934 14.1735 54.2221 16.6605C54.2221 16.6605 55.6088 18.3479 55.2493 20.9303C54.9558 23.0284 53.8186 24.5251 52.542 25.4861C52.542 25.4861 49.9157 27.7017 44.5235 28.7288C41.2588 29.3597 36.9305 29.3964 31.6043 28.406C31.6043 28.406 35.0597 28.3033 37.2826 25.4421C37.9869 24.5324 38.3609 22.7423 37.5319 21.7886C37.5319 21.7886 36.7029 20.6075 34.8028 20.7395C33.8931 20.8055 32.3745 21.3117 31.4648 22.06C31.4648 22.06 32.015 19.8518 31.2667 18.0177C30.7384 16.7265 29.9461 16.0809 28.4935 16.2643C28.4935 16.2643 26.7109 16.4111 25.8892 18.6633" fill="#ED7959"/>
<path d="M38.3171 35.6251C37.6789 34.3046 35.4266 32.2357 31.531 31.1133C31.531 31.1133 42.5061 31.8029 48.1551 37.0777C49.8938 38.7137 51.1338 40.7752 51.3832 43.3943C51.3832 43.3943 51.7867 45.5585 50.6422 47.4366C50.0627 48.3904 48.9842 49.3367 47.2895 49.7549C47.2895 49.7549 45.2499 50.4959 41.9119 49.3001C39.689 48.5004 36.9599 46.8277 34.3042 43.8125C34.3042 43.8125 34.0767 49.5935 31.8171 53.9366C31.1935 55.1398 29.9538 56.7318 28.2664 57.7735C26.6231 58.7933 24.1727 59.1087 22.236 58.2431C22.236 58.2431 18.6852 56.9225 18.5604 51.1488C18.5091 48.9112 18.9565 45.7493 21.2602 40.9146C21.2602 40.9146 23.4317 35.9259 26.2416 32.984C26.2416 32.984 23.9819 40.5111 26.3589 42.9028C26.8137 43.3576 27.6648 43.7685 28.7946 43.541C28.7946 43.541 31.0322 43.409 32.0739 38.7577C32.0739 38.7577 36.0283 41.2081 38.1778 38.7577C38.1778 38.7577 39.2489 37.5546 38.3171 35.6105" fill="#AACD2B"/>
<path d="M18.8168 22.4638C20.5262 22.8306 22.0081 24.1072 23.7248 25.7945C23.7248 25.7945 18.9636 16.7635 12.9845 14.5626C8.93482 13.066 5.94153 13.9463 4.29819 16.1105C4.29819 16.1105 3.08048 17.4384 3.50599 20.0722C3.87281 22.3318 5.7216 25.1709 10.879 27.4158C10.879 27.4158 4.54033 30.5851 1.58378 36.1387C-0.609781 40.2471 -0.264959 43.7685 1.04825 45.6026C1.04825 45.6026 2.76502 48.7352 7.54098 47.8769C9.45576 47.5321 11.818 46.4683 14.6352 44.1207C14.6352 44.1207 20.7684 39.6969 23.835 30.6365C23.835 30.6365 20.2548 35.5372 15.897 35.1557C15.4788 35.1117 14.5545 34.9576 13.9896 34.0772C13.9896 34.0772 13.3661 33.2556 13.6155 31.9717C13.8209 30.9006 15.3027 29.1619 17.5183 28.2302C17.5183 28.2302 16.682 27.6799 15.9631 26.6382C15.3908 25.8165 15.1634 24.4153 15.7797 23.4616C15.7797 23.4616 16.4692 21.9576 18.8168 22.4638Z" fill="#A690B4"/>
<path d="M18.3915 23.5346L16.66 24.7891C16.55 24.8698 16.4766 25.0018 16.4619 25.1412C16.4473 25.2806 16.4986 25.4127 16.6013 25.5154L17.7678 26.7185C17.9512 26.9093 18.2593 26.9166 18.4501 26.7259C18.5454 26.6305 18.5968 26.5058 18.5968 26.3811C18.5968 26.2564 18.5528 26.139 18.4574 26.0436C18.4574 26.0436 18.0245 25.5961 17.6797 25.2439C18.1712 24.8845 18.9562 24.3196 18.9562 24.3196C19.0883 24.2242 19.1543 24.0775 19.1543 23.9307C19.1543 23.828 19.1251 23.7326 19.0664 23.6446C18.905 23.4245 18.6042 23.3805 18.3915 23.5346Z" fill="#A690B4"/>
<path d="M16.4619 30.321L15.0313 31.8983C14.8553 32.0964 14.87 32.4046 15.0607 32.5806L16.3666 33.7765C16.5647 33.9599 16.8727 33.9452 17.0488 33.7471C17.1369 33.6591 17.1735 33.5417 17.1735 33.4243C17.1735 33.2923 17.1222 33.1675 17.0194 33.0648C17.0194 33.0648 16.4472 32.5366 16.073 32.1918C16.4619 31.759 17.1735 30.9666 17.1735 30.9666C17.2542 30.8713 17.2983 30.7612 17.2983 30.6438C17.2983 30.5118 17.2468 30.3797 17.1368 30.2844C16.9387 30.1009 16.6306 30.1156 16.4545 30.321" fill="#A690B4"/>
<path d="M33.9299 22.2068C33.9299 22.4783 34.1426 22.6984 34.4067 22.6984C34.6488 22.6984 35.0963 22.8818 35.3238 23.2853C35.5879 23.7548 35.5366 24.2097 35.3899 24.4371C35.2358 24.6572 35.2944 24.958 35.5145 25.112C35.7346 25.2588 36.0355 25.2001 36.1896 24.98C36.5857 24.3931 36.5784 23.5421 36.1676 22.8158C35.7567 22.0748 34.9716 21.7373 34.4214 21.73C34.15 21.73 33.9373 21.9427 33.9299 22.2068Z" fill="#ED7959"/>
<path d="M27.0483 18.3775C26.8502 18.5609 26.8429 18.869 27.0263 19.0598C27.2097 19.2579 27.518 19.2652 27.7087 19.0818C28.0388 18.7737 28.3542 18.671 28.7504 18.737C29.33 18.847 29.5574 19.2138 29.6528 19.5073C29.7335 19.7641 30.005 19.9035 30.2617 19.8228C30.5185 19.7421 30.6579 19.4706 30.5772 19.2138C30.3351 18.4509 29.7335 17.93 28.9191 17.7833C28.2295 17.6585 27.5986 17.8566 27.0483 18.3702" fill="#ED7959"/>
<path d="M84.6607 28.1124C82.2324 28.0904 80.9338 28.0683 80.7797 28.0683C80.6403 28.0683 80.5377 28.0757 80.4717 28.0977C80.4056 28.1197 80.369 28.2004 80.369 28.3325L80.3029 34.7664C80.2956 35.6981 80.303 36.4611 80.3323 37.048C80.3617 37.6423 80.4056 38.1998 80.4643 38.7134L77.4345 38.684C77.4492 37.7523 77.5005 32.14 77.6106 21.8325C77.6179 20.6953 77.5592 18.9419 77.4272 16.5503L80.4937 16.587C80.479 17.6507 80.4569 20.3285 80.4129 24.6203C80.4129 24.7817 80.4571 24.877 80.5598 24.9137C80.6552 24.9504 80.7431 24.9724 80.8091 24.9724C81.9462 24.9797 82.5625 24.9871 82.6505 24.9871C82.8119 24.9871 83.4942 24.9651 84.6974 24.9064L84.668 28.1124H84.6607ZM72.519 26.6598C72.5337 25.4786 72.1669 24.4589 71.4259 23.6152C70.6849 22.7715 69.7973 22.3387 68.7482 22.3313C67.6844 22.3167 66.7674 22.7275 66.0118 23.5638C65.2561 24.4002 64.8672 25.4053 64.8599 26.5864C64.8452 27.7676 65.212 28.7726 65.9457 29.609C66.6866 30.4453 67.5963 30.8708 68.6601 30.8782C69.7018 30.8855 70.6117 30.4893 71.36 29.6603C72.123 28.8387 72.5043 27.8409 72.519 26.6598ZM75.3069 26.6524C75.2848 28.6773 74.6246 30.4013 73.3114 31.8319C72.0055 33.2551 70.443 33.9668 68.6235 33.9448C66.8041 33.9227 65.2561 33.1891 63.9649 31.7292C62.6737 30.2766 62.0427 28.5305 62.0574 26.513C62.0794 24.4955 62.7472 22.7715 64.0677 21.3409C65.3882 19.9103 66.9582 19.2134 68.7702 19.2281C70.5823 19.2427 72.1303 19.9837 73.4069 21.4363C74.6907 22.8889 75.3142 24.6349 75.2922 26.6451" fill="#333333"/>
<path d="M106.56 38.999L103.53 38.9697C103.537 38.038 103.596 32.6531 103.698 22.8004C103.713 21.6632 103.625 19.6751 103.449 16.8359L106.618 16.8726L106.435 35.0521C106.428 35.9838 106.435 36.7468 106.457 37.3337C106.486 37.9206 106.523 38.4781 106.56 38.999ZM97.9027 26.9234C97.9101 25.7423 97.5506 24.7372 96.8096 23.9008C96.0687 23.0645 95.1663 22.639 94.1026 22.6316C93.0535 22.6243 92.1512 23.0205 91.3955 23.8495C90.6399 24.6711 90.251 25.6689 90.2437 26.85C90.229 28.0312 90.5958 29.0363 91.3368 29.8726C92.0777 30.709 92.9727 31.1345 94.0145 31.1418C95.0856 31.1491 95.9952 30.753 96.7509 29.9313C97.5065 29.1096 97.8954 28.1046 97.9027 26.9234ZM100.661 26.9527C100.639 28.9702 99.979 30.6943 98.6804 32.1102C97.3819 33.5261 95.8192 34.2231 93.9777 34.2084C92.1583 34.1864 90.6178 33.4527 89.356 32.0148C88.0868 30.5696 87.4632 28.8382 87.4852 26.8134C87.5072 24.7885 88.1674 23.0718 89.466 21.6412C90.7645 20.2107 92.3199 19.5137 94.1319 19.5284C95.9734 19.543 97.5286 20.284 98.7904 21.7439C100.06 23.1965 100.683 24.9353 100.661 26.9527Z" fill="#333333"/>
<path d="M125.311 47.5901C123.851 47.4654 123.015 47.414 122.795 47.4067C122.318 47.4067 118.899 47.3627 112.553 47.2966L112.634 39.5054L122.259 39.6008C122.406 39.6008 122.509 39.5861 122.567 39.5421C122.626 39.4981 122.655 39.4027 122.655 39.2487L122.67 38.0088C122.67 37.8327 122.648 37.7227 122.604 37.6713C122.56 37.62 122.465 37.576 122.318 37.554C122.186 37.554 118.965 37.5246 112.663 37.4513L112.693 34.3847C114.086 34.5094 115.312 34.5754 116.375 34.5828C117.094 34.5901 120.117 34.6268 125.443 34.6781L125.362 42.5353C119.053 42.4693 115.847 42.44 115.745 42.44C115.591 42.44 115.488 42.462 115.436 42.5133C115.378 42.5647 115.348 42.6821 115.348 42.8508L115.334 44.0613C115.334 44.208 115.37 44.3107 115.429 44.3548C115.495 44.3988 115.605 44.4208 115.759 44.4208L125.34 44.5162L125.311 47.5754V47.5901ZM125.81 27.3785C124.159 27.2684 123.22 27.2244 123.008 27.2244C122.531 27.2244 119.061 27.1804 112.605 27.1144L112.715 17.0049C118.342 17.0636 121.518 17.0929 122.237 17.1076C123.301 17.1149 124.526 17.0856 125.92 17.0196L125.891 20.0128L115.913 19.9101C115.715 19.9101 115.583 19.9394 115.517 20.0054C115.451 20.0641 115.415 20.1889 115.415 20.3649L115.378 23.9597C115.378 24.0845 115.429 24.1725 115.524 24.2165C115.62 24.2605 115.745 24.2825 115.899 24.2825L125.847 24.3926L125.817 27.3858L125.81 27.3785ZM129.251 32.6313L113.272 32.4625C113.074 32.4625 112.487 32.4919 111.504 32.5579C110.528 32.6313 109.699 32.7046 109.024 32.8147L109.054 29.5207L126.668 29.7041C127.101 29.7041 127.974 29.6527 129.28 29.5353L129.251 32.6313Z" fill="#333333"/>
<path d="M154.789 28.3177C152.382 28.2957 151.099 28.2737 150.944 28.2737C150.783 28.2737 150.673 28.2957 150.622 28.3397C150.563 28.3837 150.534 28.4791 150.526 28.6478C150.526 29.2567 150.504 31.4136 150.46 35.1111C150.453 36.0502 150.46 36.8058 150.497 37.4001C150.519 37.9943 150.556 38.5519 150.6 39.0654L147.57 39.0361C147.57 38.6693 147.57 38.1631 147.584 37.5175C147.584 36.8719 147.599 36.2556 147.599 35.6614C147.606 35.3899 147.584 35.1992 147.526 35.0818C147.467 34.9717 147.342 34.9057 147.137 34.8764L136.55 34.7663C135.751 34.737 134.232 34.825 131.987 35.0231L132.024 31.7584L135.428 31.7951C135.655 31.7951 135.795 31.7511 135.854 31.6631C135.912 31.575 135.942 31.4576 135.942 31.3256C135.942 30.5039 135.949 29.8583 135.956 29.3815C135.986 28.8386 135.905 27.6794 135.722 25.904L138.847 25.9334L138.788 31.3549C138.788 31.531 138.825 31.6631 138.905 31.7291C138.979 31.8024 139.089 31.8318 139.228 31.8318L142.221 31.8611C142.383 31.8611 142.486 31.8245 142.544 31.7511C142.603 31.6777 142.632 31.553 142.632 31.3916L142.72 22.6394C142.72 22.4633 142.684 22.3386 142.625 22.2799C142.566 22.2212 142.456 22.1918 142.324 22.1918C142.207 22.1918 139.338 22.1698 133.719 22.1038L133.755 18.9418C135.406 19.0519 136.793 19.1106 137.9 19.1253C138.649 19.1326 141.224 19.1619 145.626 19.206C145.545 26.8357 145.501 30.8927 145.501 31.3989C145.501 31.5824 145.545 31.7071 145.626 31.7878C145.721 31.8685 145.816 31.9125 145.897 31.9125C146.014 31.9125 146.154 31.9125 146.33 31.9125C146.499 31.9125 146.777 31.9125 147.159 31.9125C147.364 31.9125 147.482 31.8611 147.533 31.7511C147.584 31.6337 147.606 31.531 147.606 31.443C147.606 30.9221 147.643 27.7821 147.702 22.0451C147.739 20.7246 147.687 19.0152 147.548 16.9023L150.644 16.939C150.629 18.0101 150.622 19.4481 150.6 21.2675C150.578 23.0795 150.563 24.2387 150.563 24.7376C150.563 24.921 150.614 25.0383 150.71 25.097C150.82 25.1557 150.915 25.1851 151.032 25.1851C151.238 25.1851 151.553 25.1851 151.986 25.1851C152.412 25.1851 152.683 25.1924 152.801 25.1924C152.955 25.1924 153.63 25.1704 154.811 25.1044L154.774 28.3104L154.789 28.3177Z" fill="#333333"/>
<path d="M244.483 35.8006C244.483 36.3949 244.475 36.9011 244.468 37.5467C244.461 38.1923 244.461 38.6985 244.453 39.0653L247.483 39.0946C247.439 38.5738 247.41 38.0235 247.381 37.4293C247.351 36.835 247.337 36.1968 247.344 35.2577C247.381 31.5602 247.403 28.7871 247.41 28.1782C247.417 28.0168 247.447 27.9141 247.505 27.87C247.564 27.826 247.667 27.7967 247.828 27.804C247.982 27.804 249.266 27.8187 251.672 27.848L251.709 24.642C250.528 24.7007 249.86 24.7301 249.699 24.7301C249.581 24.7301 249.31 24.7301 248.885 24.7227C248.452 24.7227 248.129 24.7227 247.931 24.7227C247.813 24.7227 247.711 24.6861 247.608 24.6347C247.513 24.576 247.461 24.4586 247.461 24.2752C247.461 23.7764 247.476 22.6172 247.498 20.8051C247.52 18.9857 247.527 18.076 247.542 17.0123L244.446 16.9829C244.585 19.0958 244.637 20.2769 244.6 21.5975C244.541 27.3418 244.512 34.7148 244.505 35.2284L244.49 35.8226L244.483 35.8006Z" fill="#333333"/>
<path d="M177.231 38.8672L174.201 38.8378C174.201 37.9061 174.237 35.2504 174.281 30.8706C174.325 26.4908 174.355 23.6443 174.369 22.3237C174.377 21.1866 174.318 19.3158 174.193 16.7041L177.253 16.7408C177.231 18.9857 177.172 25.0455 177.062 34.9202C177.054 35.8593 177.062 36.6149 177.084 37.2092C177.113 37.8034 177.157 38.361 177.223 38.8745M167.979 30.6065C168.024 25.8378 168.053 23.3141 168.053 23.0134C168.053 22.8373 168.038 22.7052 167.994 22.6245C167.95 22.5438 167.84 22.4998 167.657 22.4998C164.392 22.4631 162.675 22.4485 162.521 22.4485C162.367 22.4485 162.25 22.4778 162.198 22.5438C162.14 22.6172 162.11 22.7346 162.11 22.918C162.11 23.3068 162.096 24.6053 162.066 26.8209C162.044 29.0365 162.03 30.2617 162.03 30.5111C162.052 30.6285 162.088 30.7165 162.147 30.7679C162.198 30.8192 162.301 30.8559 162.441 30.8559C162.602 30.8559 164.311 30.8779 167.576 30.9073C167.759 30.9073 167.869 30.8852 167.899 30.8266C167.935 30.7752 167.957 30.7018 167.987 30.6065M170.811 34.1793C170.129 34.1059 169.498 34.0472 168.926 34.0032C168.346 33.9592 167.693 33.9445 166.967 33.9298L159.139 33.8491L159.286 19.2792C161.237 19.3892 162.646 19.4552 163.512 19.4626C164.216 19.4699 166.703 19.4919 170.973 19.5359L170.819 34.1793H170.811Z" fill="#333333"/>
<path d="M201.917 39.0943L198.887 39.0577C198.895 38.3387 198.909 37.0915 198.924 35.3308C198.946 33.5701 198.968 31.3765 198.99 28.7428C198.99 28.6254 198.99 28.5447 198.961 28.486C198.939 28.4273 198.873 28.4053 198.755 28.398C197.692 28.3906 197.083 28.3833 196.921 28.3833C196.811 28.3833 196.738 28.4126 196.694 28.4787C196.664 28.552 196.643 28.6327 196.643 28.7501C196.635 29.7919 196.613 31.9047 196.576 35.0814C196.569 36.0057 196.576 36.7687 196.606 37.363C196.635 37.9499 196.672 38.5074 196.708 39.0283L193.686 38.999C193.686 38.4781 193.701 37.2603 193.723 35.3528C193.723 35.1254 193.642 34.964 193.473 34.8613C193.304 34.7512 193.136 34.6999 192.982 34.6999L181.266 34.5825L181.361 25.4928L188.235 25.5588C188.397 25.5588 188.507 25.5441 188.558 25.5001C188.617 25.4561 188.646 25.3534 188.646 25.192L188.661 23.2845C188.661 23.1085 188.639 22.9764 188.58 22.9104C188.529 22.8444 188.404 22.8077 188.228 22.8003C188.088 22.8003 185.814 22.7783 181.383 22.727L181.42 19.4623C182.872 19.6384 184.141 19.7264 185.235 19.7411C186.005 19.7484 188.11 19.7704 191.558 19.8071L191.47 28.5887C187.017 28.5447 184.728 28.5153 184.589 28.5153C184.449 28.5153 184.354 28.5667 184.281 28.6694C184.215 28.7721 184.178 28.9335 184.171 29.1609L184.149 31.2004C184.149 31.3618 184.171 31.4645 184.229 31.5086C184.281 31.5526 184.376 31.5819 184.516 31.5819L192.96 31.67C193.07 31.648 193.231 31.5966 193.436 31.5159C193.642 31.4425 193.752 31.2885 193.752 31.0611C193.811 25.6542 193.84 22.6903 193.84 22.1401C193.855 21.0029 193.796 19.2495 193.693 16.8652L196.76 16.8946L196.679 24.9352C196.701 25.0232 196.731 25.1113 196.775 25.1773C196.819 25.2433 196.863 25.2874 196.914 25.2874C197.068 25.2874 197.332 25.2874 197.699 25.2874C198.058 25.2874 198.425 25.2947 198.785 25.302C198.851 25.302 198.909 25.2727 198.953 25.214C199.005 25.1553 199.027 25.0819 199.027 24.9939C199.027 24.6711 199.034 24.2089 199.042 23.578C199.042 22.9544 199.049 22.4922 199.056 22.1988C199.064 21.0616 199.019 19.3082 198.902 16.9166L201.969 16.9459L201.785 35.1254C201.778 36.0571 201.785 36.8201 201.815 37.4143C201.837 38.0012 201.881 38.5588 201.917 39.0797" fill="#333333"/>
<path d="M232.781 36.9595V47.0689L247.344 47.1863V44.1564L236.046 44.0684C235.906 44.0684 235.811 44.0464 235.76 43.995C235.701 43.951 235.679 43.8483 235.679 43.6869L235.701 36.9595H232.781Z" fill="#333333"/>
<path d="M226.098 39.0943L223.068 39.0577C223.075 38.3387 223.09 37.0915 223.105 35.3308C223.127 33.5701 223.149 31.3765 223.171 28.7428C223.171 28.6254 223.171 28.5447 223.141 28.486C223.119 28.4273 223.053 28.4053 222.936 28.398C221.872 28.3906 221.256 28.3833 221.102 28.3833C220.992 28.3833 220.918 28.4126 220.882 28.4787C220.852 28.552 220.83 28.6327 220.83 28.7501C220.823 29.7919 220.801 31.9047 220.764 35.0814C220.757 36.0057 220.764 36.7687 220.794 37.363C220.823 37.9499 220.86 38.5074 220.896 39.0283L217.874 38.999C217.874 38.4781 217.888 37.2603 217.91 35.3528L217.954 31.0611C218.013 25.6542 218.043 22.6903 218.043 22.1401C218.057 21.0029 217.999 19.2495 217.896 16.8652L220.962 16.8946L220.882 24.9352C220.904 25.0232 220.933 25.1113 220.977 25.1773C221.021 25.2433 221.065 25.2874 221.116 25.2874C221.278 25.2874 221.535 25.2874 221.901 25.2874C222.261 25.2874 222.628 25.2947 222.987 25.302C223.053 25.302 223.112 25.2727 223.156 25.214C223.207 25.1553 223.229 25.0819 223.229 24.9939C223.229 24.6711 223.237 24.2089 223.244 23.578C223.244 22.9544 223.251 22.4922 223.259 22.1988C223.266 21.0616 223.222 19.3082 223.105 16.9166L226.171 16.9459L225.988 35.1254C225.98 36.0571 225.988 36.8201 226.017 37.4143C226.039 38.0012 226.083 38.5588 226.12 39.0797" fill="#333333"/>
<path d="M208.989 22.5588V23.5419C208.989 25.1999 208.711 27.1367 208.16 28.4059C207.5 29.9758 206.15 31.6632 204.28 33.2625L206.231 35.1993C207.551 34.2089 208.351 33.3432 209.151 32.3308C209.921 31.3477 210.53 30.4821 210.691 30.0786C210.853 30.4747 211.433 31.3184 212.203 32.2428C212.973 33.1965 213.743 34.0108 214.961 34.8252L216.583 32.8884C214.932 31.4284 213.692 29.9098 213.083 28.5599C212.452 27.2174 212.151 25.2512 212.151 23.4832V22.5515H215.512V19.771H205.519V22.5515H208.989V22.5588Z" fill="#333333"/>
<path d="M229.539 19.7778H241.313V22.4996H232.51V31.0244H241.313V33.8343H229.539V19.7778Z" fill="#333333"/>
</svg>
