<svg width="33" height="24" viewBox="0 0 33 24" fill="none" xmlns="http://www.w3.org/2000/svg">
<g clip-path="url(#clip0_204_91)">
<path d="M32.29 4.33998C31.91 2.91998 30.79 1.79998 29.37 1.41998C26.8 0.72998 16.48 0.72998 16.48 0.72998C16.48 0.72998 6.16998 0.72998 3.58998 1.41998C2.16998 1.79998 1.04998 2.91998 0.66998 4.33998C-0.0200195 6.90998 -0.0200195 12.28 -0.0200195 12.28C-0.0200195 12.28 -0.0200195 17.65 0.66998 20.22C1.04998 21.64 2.16998 22.76 3.58998 23.14C6.15998 23.83 16.48 23.83 16.48 23.83C16.48 23.83 26.79 23.83 29.37 23.14C30.79 22.76 31.91 21.64 32.29 20.22C32.98 17.65 32.98 12.28 32.98 12.28C32.98 12.28 32.98 6.90998 32.29 4.33998Z" fill="#FF0000"/>
<path d="M13.1899 17.2201L21.7599 12.2701L13.1899 7.33008V17.2201Z" fill="white"/>
</g>
<defs>
<clipPath id="clip0_204_91">
<rect width="32.98" height="23.09" fill="white" transform="translate(0 0.72998)"/>
</clipPath>
</defs>
</svg>
