<svg width="86" height="80" viewBox="0 0 86 80" fill="none" xmlns="http://www.w3.org/2000/svg">
<path d="M0 79.636V5.62128H9.98667V0.0226975H18.5131V5.58345H24.195V0.0226975H32.7214V5.57588H38.3957V0H46.9449V5.56075H52.6493V0H61.1834V5.56075H66.8652V0.00756582H75.3993V5.67424H85.28V79.636C84.8715 79.636 84.5159 79.636 84.1603 79.636C56.1069 79.636 28.0534 79.636 0 79.636ZM2.90521 28.462V76.7384H82.4429V28.462H2.90521ZM18.4904 14.1175H9.92613V8.53405H2.89766V25.5341H82.4278V8.56431H75.3387V14.1251H66.8047V8.54162H61.1456V14.1099H52.6115V8.55675H46.9297V14.1175H38.3881V8.54918H32.6685V14.1326H24.1571V8.55675H18.4904V14.1175ZM44.0169 11.2879V2.85225H41.2933V11.2955H44.0169V11.2879ZM12.8692 2.83712V11.2804H15.6004V2.84468H12.8692V2.83712ZM27.0548 2.82199V11.2653H29.7784V2.82955H27.0548V2.82199ZM55.5016 11.2577H58.2631V2.85982H55.5016V11.2653V11.2577ZM69.7099 11.2728H72.4487V2.87495H69.7099V11.2804V11.2728Z" fill="#FFAF01"/>
<path d="M31.6774 50.1755C32.3734 50.9018 32.9863 51.5373 33.5839 52.1729C32.4491 53.2926 31.2915 54.435 30.0962 55.6077C30.5804 56.1827 31.0041 56.6063 31.3369 57.0981C33.5234 60.3513 32.9938 64.0585 29.9903 66.6535C25.3525 70.6633 17.3102 70.6633 12.6649 66.6535C8.76862 63.2868 9.09393 57.9682 13.5047 54.9722C17.6809 52.135 22.1976 51.9081 26.8429 53.7163C27.5239 53.9811 27.94 54.0189 28.4696 53.4288C29.4682 52.3166 30.5577 51.2877 31.6774 50.168V50.1755ZM25.3601 56.2281C22.2657 54.6468 16.7277 55.5017 14.2537 58.0135C12.4077 59.8898 12.3093 62.0233 14.0646 64.0055C15.3658 65.4808 17.0984 66.2223 18.9898 66.5627C22.3338 67.168 25.466 66.6913 28.1518 64.4595C30.4139 62.5756 30.361 59.3905 27.9778 57.7639C25.7686 59.9806 23.5368 62.2125 21.3503 64.399C20.1095 63.1582 18.8612 61.9099 17.6355 60.6842C18.203 60.1017 18.8385 59.451 19.5496 58.7171C20.1171 59.33 20.6769 59.9352 21.1536 60.4497C22.6213 58.9744 23.9983 57.5899 25.3525 56.2356L25.3601 56.2281Z" fill="#FFAF01"/>
<path d="M49.7442 54.0793V68.2044H35.6116V54.0793H49.7442ZM38.4033 56.8559C38.4033 59.6477 38.4033 62.3335 38.426 65.0193C38.426 65.1479 38.7437 65.39 38.9178 65.39C41.4144 65.4127 43.9187 65.4203 46.4153 65.39C46.5969 65.39 46.9222 65.0571 46.9222 64.8755C46.9525 62.3789 46.9525 59.8746 46.9222 57.378C46.9222 57.204 46.5742 56.8938 46.385 56.8862C43.7749 56.8559 41.1648 56.8635 38.4033 56.8635V56.8559Z" fill="#FFAF01"/>
<path d="M49.7518 34.1665V48.2462H35.5964V34.1665H49.7518ZM46.9071 37.0112H38.4563V45.4166H46.9071V37.0112Z" fill="#FFAF01"/>
<path d="M69.6267 68.2195H55.5546V54.0642H69.6267V68.2195ZM58.3841 56.8938V65.3446H66.782V56.8938H58.3841Z" fill="#FFAF01"/>
<path d="M15.6836 48.2613V34.1741H29.7935V48.2613H15.6836ZM26.964 45.4318V36.9961H18.5358V45.4318H26.964Z" fill="#FFAF01"/>
<path d="M69.6342 34.1892V48.2764H55.5243V34.1892H69.6342ZM58.369 36.9885V45.4242H66.782V36.9885H58.369Z" fill="#FFAF01"/>
<path d="M19.8447 19.9355C20.0213 21.8017 19.2243 22.7348 17.454 22.7348C14.8211 22.7348 12.1883 22.7348 9.54787 22.7348H8.57947V19.9355H19.8447Z" fill="#FFAF01"/>
<path d="M28.4091 22.6892H25.6627V19.958H28.4091V22.6892Z" fill="#FFAF01"/>
</svg>
