<svg width="172" height="52" viewBox="0 0 172 52" fill="none" xmlns="http://www.w3.org/2000/svg">
<path d="M84.95 33.04V35.35H65.6V33.04H73.95V28.79H67.15V16.75H69.72V19.84H80.79V16.75H83.39V28.79H76.57V33.04H84.95ZM80.8 22.11H69.73V26.52H80.8V22.11Z" fill="#58595B"/>
<path d="M97.37 27.4999H94.75V18.8099H87.03V16.4699H97.37V27.4899V27.4999ZM88.43 36.4899V28.7999H91.05V34.1799H105.68V36.4899H88.43ZM102.64 15.8599H105.26V29.3399H102.64V23.1799H99.19V20.8899H102.64V15.8599Z" fill="#58595B"/>
<path d="M128.02 26.2001V28.4401H108.67V26.2001H117.02V24.3601H110.22V16.1201H112.79V18.0801H123.86V16.1201H126.46V24.3601H119.64V26.2001H128.02ZM126.46 30.1601V36.9601H123.84V32.3801H109.73V30.1601H126.46ZM123.86 20.2501H112.79V22.1601H123.86V20.2501Z" fill="#58595B"/>
<path d="M130.63 19.4699V17.1599H143.19V19.4699H137.9L143.75 33.2299L141.44 34.2199L136.96 23.4599L132.5 34.3899L130.14 33.3999L136.02 19.4799H130.64L130.63 19.4699ZM146.25 15.8599H148.87V36.9099H146.25V15.8599Z" fill="#58595B"/>
<path d="M151.98 29.1602H171.33V31.4702H162.95V36.9002H160.33V31.4702H151.98V29.1602ZM156.11 18.8702H167.18V16.2002H169.78V26.3202H153.54V16.2002H156.11V18.8702ZM167.18 21.1402H156.11V24.0402H167.18V21.1402Z" fill="#58595B"/>
<path d="M39.46 24.39C35.02 21.37 29.34 22.6 26.35 27.14C23.86 30.93 20.09 31.4 18.64 31.4C13.89 31.4 10.64 28.06 9.68 24.6C9.68 24.6 9.66 24.54 9.65 24.5C9.65 24.46 9.63 24.42 9.62 24.38C9.24 22.94 9.15 22.25 9.15 20.72C9.15 12.45 17.63 3.25 29.85 3.25C42.07 3.25 49.52 12.77 51.36 18.07C51.33 17.98 51.3 17.88 51.27 17.79C47.72 7.44 37.9 0 26.35 0C11.8 0 0 11.79 0 26.34C0 39.34 9.38 50.47 22.39 50.47C32.77 50.47 39.74 44.65 42.94 36.64C44.7 32.26 43.45 27.1 39.47 24.39" fill="#003964"/>
<path d="M51.52 18.5898C49.98 13.4298 42.77 3.25977 29.84 3.25977C17.62 3.25977 9.14001 12.4598 9.14001 20.7298C9.14001 22.2598 9.23001 22.9498 9.61001 24.3898C9.45001 23.7598 9.37001 23.1298 9.37001 22.5098C9.37001 13.8998 17.99 7.93977 26.85 7.93977C38.85 7.93977 48.57 17.6598 48.57 29.6598C48.57 39.0598 43.16 47.1998 35.3 51.1098C45.43 47.4498 52.67 37.7398 52.67 26.3398C52.67 23.6398 52.31 21.2598 51.51 18.5898" fill="#ED1A3B"/>
</svg>
