<svg width="94" height="47" viewBox="0 0 94 47" fill="none" xmlns="http://www.w3.org/2000/svg">
<path d="M4.06119 22.4098C3.58119 22.4398 3.25121 22.4598 3.08121 22.4598C2.12121 22.4798 1.43125 22.3498 1.00125 22.0798C0.57125 21.7998 0.321274 21.5598 0.151274 21.1098C0.0412739 20.8098 -0.00875048 20.3298 0.00124952 20.0098C0.0112495 19.6598 0.0612056 19.3698 0.0812056 19.1198C0.791206 19.2298 1.5012 19.3198 2.2012 19.3898C2.9012 19.4598 3.93128 19.4898 4.53128 19.4898H7.25125C7.18125 18.4298 7.09119 17.7998 6.94119 17.1198C6.81119 16.5498 6.68123 16.0798 6.48123 15.5298C7.06123 15.3998 7.53128 15.2898 8.16128 15.2098C8.79128 15.1298 9.51122 15.1498 10.0912 15.2598C10.7812 15.3898 11.2013 15.5998 11.5313 15.9598C11.8913 16.3498 12.0612 16.8498 12.0612 17.6298C12.0612 18.2098 12.0213 18.7098 11.8913 19.4898H16.6413C17.6413 19.4898 18.1912 19.9698 18.1912 20.9198C18.1912 21.8698 17.7213 22.3598 16.6713 22.3598H5.56119C5.38119 22.3598 4.5512 22.3698 4.0712 22.4098" fill="#789904"/>
<path d="M17.2512 29.5798C17.2512 27.5498 16.5012 26.0098 14.9812 24.9398C13.4712 23.8698 11.6412 23.3398 9.50122 23.3398C7.36122 23.3398 5.54124 23.8698 4.02124 24.9398C2.50124 26.0098 1.75122 27.5598 1.75122 29.5798C1.75122 31.5998 2.48116 33.1498 3.94116 34.3398C5.40116 35.5298 7.25122 36.1198 9.50122 36.1198C11.5912 36.1198 13.4112 35.5298 14.9412 34.3398C16.4812 33.1498 17.2512 31.5598 17.2512 29.5798ZM12.4412 29.5798C12.4412 30.6898 12.1612 31.5598 11.5912 32.1798C11.0212 32.7998 10.3312 33.1098 9.50122 33.1098C8.67122 33.1098 7.97125 32.7998 7.41125 32.1798C6.84125 31.5598 6.56116 30.6898 6.56116 29.5798C6.56116 28.4698 6.82118 27.5498 7.33118 26.9498C7.84118 26.3498 8.57123 26.0498 9.51123 26.0498C10.4512 26.0498 11.2012 26.3498 11.7012 26.9498C12.2012 27.5498 12.4512 28.4298 12.4512 29.5798" fill="#789904"/>
<path d="M23.5012 24.9102H25.8912V18.9202C25.8912 18.3402 25.8312 17.7102 25.7112 17.0302C25.5912 16.3502 25.4113 15.7002 25.1613 15.0802C25.7213 14.9702 26.2613 14.8902 26.7913 14.8602C27.3313 14.8202 27.9312 14.8602 28.5912 14.9802C29.2812 15.0902 29.7713 15.3702 30.0513 15.8202C30.3313 16.2702 30.4712 16.8702 30.4712 17.6602C30.4712 18.0802 30.4612 18.7002 30.4412 19.2502C30.4212 19.8102 30.4113 20.2902 30.4113 20.7202V39.0702C30.4113 39.8202 30.1812 40.4902 29.7112 41.0702C29.2412 41.6502 28.6312 41.9402 27.8712 41.9402H26.9712C26.6212 41.9402 26.3513 41.8502 26.1713 41.6702C25.9913 41.4902 25.9012 41.2302 25.9012 40.8702V28.0802H23.5112V38.7402C23.5112 39.5002 23.2812 40.1602 22.8112 40.7402C22.3412 41.3202 21.8612 41.6102 21.1012 41.6102H20.2312C19.8812 41.6102 19.6013 41.5202 19.4113 41.3402C19.2213 41.1602 19.1312 40.9002 19.1312 40.5402V19.4902C19.1312 18.9102 19.0712 18.2602 18.9512 17.5202C18.8312 16.7902 18.6412 16.1102 18.4012 15.4902C19.0012 15.3802 19.5712 15.2902 20.1212 15.2402C20.6712 15.1902 21.1112 15.2102 21.7112 15.3202C22.4012 15.4302 22.8913 15.7102 23.1813 16.1602C23.4713 16.6002 23.6112 17.2202 23.6112 17.9902C23.6112 18.4102 23.5912 19.0602 23.5612 19.6702C23.5312 20.2802 23.5112 20.8002 23.5112 21.2202V24.9102H23.5012Z" fill="#789904"/>
<path d="M38.8112 35.6598C38.1612 35.6798 37.7412 35.6898 37.5612 35.6898C36.6012 35.7098 35.9112 35.5798 35.4812 35.2898C35.0512 34.9998 34.7412 34.6298 34.5612 34.1898C34.4712 33.8798 34.4412 33.5398 34.4712 33.1898C34.5012 32.8298 34.5312 32.5298 34.5612 32.2898C35.2712 32.3998 36.0012 32.4898 36.7412 32.5598C37.4912 32.6298 38.1613 32.6598 38.7613 32.6598H48.9612C50.2712 32.6598 52.1212 32.5498 53.7412 32.3398C55.3612 32.1298 56.6112 31.7898 57.2312 31.3198V18.8598C57.2312 18.2998 57.1812 17.6698 57.0612 16.9598C56.9512 16.2498 56.7713 15.5798 56.5313 14.9598C57.1513 14.8698 57.7813 14.7898 58.4213 14.7298C59.1313 14.6598 59.7912 14.6698 60.4412 14.8298C61.1312 14.9998 61.5812 15.2998 61.8612 15.7598C62.1412 16.2198 62.2813 16.7898 62.2813 17.5698C62.2813 17.9898 62.2712 18.4798 62.2512 19.0398C62.2212 19.5898 62.2212 20.0798 62.2212 20.5098V39.0598C62.2212 39.8198 61.9812 40.4998 61.4912 41.1098C61.0012 41.7198 60.3812 42.0298 59.6212 42.0298H58.3813C58.0212 42.0298 57.7413 41.9398 57.5413 41.7598C57.3413 41.5798 57.2412 41.3198 57.2412 40.9598V33.9698C56.6612 34.4598 55.4512 34.8598 53.8412 35.1698C52.2412 35.4798 49.9613 35.6398 47.7613 35.6398H40.0612C39.8812 35.6398 39.4712 35.6498 38.8112 35.6698" fill="#789904"/>
<path d="M54.5812 17.4802C54.8612 17.7802 54.9713 18.1202 54.9713 18.5002C54.9713 18.8602 54.8612 19.1802 54.5712 19.4902C54.2812 19.7902 53.8513 19.9402 53.2713 19.9402H39.9213C39.7413 19.9402 39.4813 19.9402 39.1313 19.9602C38.7913 19.9702 38.5313 19.9802 38.3513 19.9802C37.3913 20.0002 36.7013 19.8902 36.2713 19.6302C35.8413 19.3702 35.5313 19.0202 35.3513 18.5802C35.2613 18.2702 35.2313 17.9402 35.2713 17.6002C35.3013 17.2502 35.3413 16.9602 35.3913 16.7202C36.1013 16.8302 36.8312 16.9102 37.5812 16.9702C38.3312 17.0202 39.3713 17.0502 39.9813 17.0502H53.3212C53.9012 17.0502 54.3213 17.2002 54.6013 17.5002" fill="#789904"/>
<path d="M43.0812 19.0298L43.3512 33.6898H38.4412L38.1412 19.0298H43.0812Z" fill="#789904"/>
<path d="M52.2512 19.0298L51.9512 33.6898H47.0513L47.3112 19.0298H52.2512Z" fill="#789904"/>
<path d="M81.8512 11.99C83.8412 12.55 85.7112 12.62 87.0712 13.64C88.1512 14.45 88.4112 15.42 88.5112 16.36C88.5812 16.99 88.6112 17.59 88.6112 18.17V37.9C88.6112 38.26 88.7012 38.53 88.8912 38.7C89.0812 38.88 89.3512 38.97 89.7112 38.97H90.9512C91.7112 38.97 92.3312 38.66 92.8212 38.05C93.3112 37.44 93.5513 36.75 93.5513 36V18.91C93.5513 16.79 92.8012 15.91 91.0012 15.48C90.1212 15.27 89.4312 14.65 89.2112 13.6C88.9612 12.39 88.3912 11.27 87.4812 10.4C86.3412 9.31 84.5912 8.7 82.9012 8.25C79.8212 7.43 77.8712 6.08 76.7512 3.95C78.1512 5.8 79.9412 6.76 82.7312 7.42C84.8212 7.92 86.6312 8.41 87.8412 9.72C87.6712 8.17 87.0012 7.15 85.8512 6.28C84.5912 5.33 82.2112 4.51 79.9912 3.89C77.4612 3.19 75.5512 2.1 74.3912 0C73.4712 3.15 73.9312 6.01 75.9612 8.48C77.4412 10.27 79.8512 11.43 81.8712 11.99M93.4512 44.65C93.1812 44.38 92.7712 44.25 92.2112 44.25H81.9113C81.1613 44.25 80.6812 44.12 80.4812 43.85C80.2812 43.58 80.1813 43.13 80.1813 42.48V38.8C80.1813 38.02 80.0113 37.41 79.6813 36.98C79.3513 36.55 78.8312 36.26 78.1512 36.13C77.4612 36 76.8513 35.98 76.1813 36.03C75.5613 36.07 74.9312 36.14 74.3112 36.23C74.5512 36.85 74.7312 37.43 74.8312 38.02C74.9312 38.61 74.9812 39.19 74.9812 39.77V43.62C74.9812 45 75.4012 45.9 76.2512 46.32C77.1012 46.74 77.8613 46.95 78.5513 46.95H92.2212C92.7812 46.95 93.1912 46.81 93.4612 46.53C93.7312 46.25 93.8612 45.93 93.8612 45.58C93.8612 45.23 93.7312 44.91 93.4612 44.64M78.9512 29.01C78.9512 29.54 78.8412 29.94 78.6312 30.2C78.4212 30.46 78.0613 30.58 77.5513 30.58H74.2913C73.8413 30.58 73.5113 30.42 73.2913 30.11C73.0713 29.8 72.9512 29.44 72.9512 29.04V24.87H78.9412V29.01H78.9512ZM82.8512 32.4C83.5312 31.81 83.8712 30.97 83.8712 29.88V21.36C83.8712 21 83.8813 20.41 83.9113 20.09C83.9313 19.77 83.9412 19.43 83.9412 19.07C83.9412 18.29 83.8412 17.65 83.5212 17.07C83.2112 16.52 82.7112 16.21 82.0112 16.04C81.2812 15.87 80.6612 15.86 80.0112 15.92C79.3912 15.97 78.8912 16.05 78.2712 16.14C78.4912 16.67 78.6412 17.16 78.7712 17.78C78.9012 18.4 78.9712 19.13 78.9712 19.71V22.01H72.9812V20.55C72.9812 20.3 73.0513 19.29 73.0513 19.05C73.0813 18.27 72.9212 17.65 72.5812 17.18C72.2512 16.71 71.7413 16.38 71.0513 16.25C70.3613 16.11 69.7112 16.11 69.1012 16.18C68.4912 16.25 68.0012 16.33 67.3712 16.45C67.6212 17.07 67.7912 17.74 67.9012 18.44C68.0112 19.14 68.0712 19.77 68.0712 20.33V29.9C68.0712 30.99 68.4112 31.83 69.0912 32.42C69.7712 33.01 70.5812 33.3 71.5112 33.3H80.4512C81.3812 33.3 82.1912 33.01 82.8712 32.42" fill="#68813C"/>
</svg>
