<?xml version="1.0" encoding="UTF-8"?>
<svg id="Layer_2" data-name="Layer 2" xmlns="http://www.w3.org/2000/svg" viewBox="0 0 657.4 131.55">
  <defs>
    <style>
      .cls-1 {
        fill: #d1d1d1;
      }

      .cls-2 {
        fill: #e8340c;
      }

      .cls-3 {
        fill: #4f86c5;
      }

      .cls-4 {
        fill: #606060;
      }

      .cls-5 {
        fill: #8ec31f;
      }
    </style>
  </defs>
  <g id="Layer_1-2" data-name="Layer 1">
    <g>
      <path class="cls-2" d="M196.27,62s-8-11-16-15-18.36-15.3-7.09-25.11c.34-.3,.88-.02,.82,.43-.45,3.38-.15,12.68,14.27,20.69,0,0-11-8-10-16s16-15,16-27c0,0,7,5,6,12-.62,4.38-3.59,7.97-5.73,10.05-1.68,1.63-3.17,3.45-4.37,5.46l-.19,.31c-.17,.28,.12,.5,.43,.4,2.37-.72,12.37-3.72,16.87-17.22,0,0,6,5,3,11-2.12,4.23-6.72,8.46-9.25,10.59-.3,.25-.01,.73,.35,.58,4.06-1.7,12.86-5.86,15.89-11.17,0,0,5.06,6.94-3,15-9,9-18,3-18,25Z"/>
      <polygon class="cls-5" points="124.94 21 124.94 41 106.94 41 106.94 59 86.94 59 86.94 41 68.94 41 68.94 21 86.94 21 86.94 3 106.94 3 106.94 21 124.94 21"/>
      <rect class="cls-4" x="145.6" y="3.5" width="2" height="55"/>
      <rect class="cls-4" x="46.27" y="3.5" width="2" height="55"/>
      <rect class="cls-4" x="239.51" y="3.5" width="2" height="55"/>
      <path class="cls-3" d="M25.6,2.71V59.29H6.6V15.24H0V7.79c5.6,.5,15.6-5,15.6-5l10-.07Z"/>
      <g>
        <path class="cls-1" d="M268.77,8.42h7.59v14.56h9.48V8.42h7.38V49.94h-24.45V8.42Zm7.59,20.86v14.16h9.48v-14.16h-9.48Zm15.58-3.66h10.77v6.57h-10.77v-6.57Zm8.06-21.88h7.52V62.07h-7.52V3.75Zm12.6-1.15h7.65v62.32h-7.65V2.6Z"/>
        <path class="cls-1" d="M329.25,50.55h56.42v6.57h-56.42v-6.57Zm23.57-44.16h7.04v4.61c0,2.71-.4,5.32-1.19,7.82-.79,2.51-1.94,4.86-3.45,7.04-1.51,2.19-3.32,4.18-5.42,5.96-2.1,1.79-4.46,3.3-7.08,4.54s-5.42,2.18-8.4,2.81l-3.52-6.71c2.66-.5,5.12-1.24,7.38-2.23s4.29-2.2,6.1-3.62c1.8-1.42,3.35-2.98,4.64-4.67s2.26-3.48,2.91-5.35c.65-1.87,.98-3.74,.98-5.59V6.39Zm1.63,0h6.98v4.61c0,1.9,.34,3.78,1.02,5.66,.68,1.87,1.65,3.66,2.91,5.35,1.26,1.69,2.8,3.24,4.61,4.64,1.81,1.4,3.85,2.61,6.13,3.62,2.28,1.02,4.75,1.75,7.42,2.2l-3.52,6.71c-3.03-.63-5.84-1.57-8.43-2.81-2.6-1.24-4.94-2.74-7.04-4.5-2.1-1.76-3.91-3.74-5.42-5.93-1.51-2.19-2.67-4.55-3.46-7.08-.79-2.53-1.18-5.15-1.18-7.86V6.39Z"/>
        <path class="cls-1" d="M395.02,7.95h31.16v6.57h-23.16v31.7h-7.99V7.95Zm0,36.1h5.28c3.7,0,7.15-.03,10.33-.1,3.18-.07,6.3-.23,9.35-.47,3.05-.25,6.15-.62,9.31-1.12l.75,6.43c-3.25,.5-6.43,.88-9.55,1.15-3.12,.27-6.31,.45-9.58,.54-3.27,.09-6.81,.14-10.6,.14h-5.28v-6.57Zm6.16-18.76h22.49v6.37h-22.49v-6.37ZM435.12,2.66h8.13v62.32h-8.13V2.66Z"/>
        <path class="cls-1" d="M471.15,6.73c3.16,0,6.01,.68,8.54,2.03,2.53,1.35,4.54,3.21,6.03,5.55,1.49,2.35,2.24,5.06,2.24,8.13s-.75,5.72-2.24,8.09c-1.49,2.37-3.5,4.23-6.03,5.59-2.53,1.35-5.37,2.03-8.54,2.03s-5.94-.68-8.47-2.03c-2.53-1.35-4.54-3.22-6.03-5.59-1.49-2.37-2.24-5.07-2.24-8.09s.75-5.78,2.24-8.13c1.49-2.35,3.5-4.2,6.03-5.55,2.53-1.36,5.35-2.03,8.47-2.03Zm0,6.98c-1.62,0-3.12,.35-4.47,1.05-1.35,.7-2.43,1.71-3.22,3.01-.79,1.31-1.19,2.87-1.19,4.67s.4,3.35,1.19,4.64,1.86,2.28,3.22,2.98c1.35,.7,2.84,1.05,4.47,1.05,1.72,0,3.24-.35,4.57-1.05,1.33-.7,2.39-1.69,3.18-2.98s1.19-2.83,1.19-4.64-.4-3.36-1.19-4.67c-.79-1.31-1.85-2.31-3.18-3.01-1.33-.7-2.86-1.05-4.57-1.05Zm-8.26,29.67h8.06v16.8h-8.06v-16.8Zm0,13.95h42.13v6.43h-42.13v-6.43ZM494.59,2.66h8.06V48.11h-8.06V2.66Zm5.76,18.08h10.84v6.64h-10.84v-6.64Z"/>
        <path class="cls-1" d="M546.68,12.35h6.16v5.96c0,3.79-.25,7.44-.75,10.94-.5,3.5-1.3,6.75-2.41,9.75s-2.54,5.68-4.3,8.03-3.91,4.29-6.43,5.83l-4.88-6.16c3.07-1.81,5.52-4.15,7.35-7.04,1.83-2.89,3.16-6.16,4-9.82,.83-3.66,1.25-7.5,1.25-11.51v-5.96Zm-10.77-3.12h28.52v6.5h-28.52v-6.5Zm12.4,3.12h6.16v5.96c0,3.66,.43,7.18,1.29,10.57,.86,3.39,2.21,6.42,4.06,9.11,1.85,2.69,4.31,4.84,7.38,6.47l-4.61,6.1c-3.43-1.85-6.2-4.4-8.3-7.65-2.1-3.25-3.62-6.98-4.57-11.18-.95-4.2-1.42-8.67-1.42-13.41v-5.96Zm19.44-8.67h7.52V62.07h-7.52V3.68Zm5.35,23.17h10.77v6.57h-10.77v-6.57Zm8.06-24.25h7.72v62.32h-7.72V2.6Z"/>
        <path class="cls-1" d="M599.91,7.68h27.77v6.5h-19.78v20.05h-7.99V7.68Zm0,23.1h5.08c4.47,0,8.31-.06,11.51-.17,3.21-.11,6.1-.3,8.67-.58,2.57-.27,5.15-.68,7.72-1.22l.81,6.37c-2.62,.59-5.27,1.03-7.96,1.32-2.69,.29-5.68,.5-8.97,.61-3.3,.11-7.22,.17-11.79,.17h-5.08v-6.5Zm6.57,12.26h8.06v17.48h-8.06v-17.48Zm0,14.29h42.13v6.43h-42.13v-6.43Zm31.7-54.66h8.06V47.71h-8.06V2.66Zm5.76,17.34h10.84v6.64h-10.84v-6.64Z"/>
        <path class="cls-1" d="M274.8,85.65h5.2v7.69c0,3-.29,5.92-.87,8.75s-1.45,5.49-2.6,7.96c-1.16,2.47-2.59,4.66-4.31,6.56s-3.69,3.41-5.93,4.52l-3.9-5.15c2.02-.98,3.81-2.26,5.36-3.85,1.55-1.59,2.85-3.4,3.9-5.45,1.05-2.04,1.83-4.2,2.36-6.47,.52-2.28,.79-4.57,.79-6.88v-7.69Zm1.25,0h5.2v7.69c0,2.24,.24,4.44,.73,6.61,.49,2.17,1.24,4.23,2.25,6.18,1.01,1.95,2.26,3.69,3.74,5.23s3.18,2.79,5.09,3.77l-3.9,5.15c-2.17-1.12-4.06-2.6-5.69-4.44-1.62-1.84-2.99-3.96-4.09-6.34-1.1-2.38-1.93-4.95-2.49-7.69-.56-2.75-.84-5.56-.84-8.45v-7.69Zm19.67-3.96h6.45v49.85h-6.45v-49.85Zm5.04,19.4h8.89v5.42h-8.89v-5.42Z"/>
        <path class="cls-1" d="M314.25,122.93l-.81-5.26c3.07-.04,6.39-.07,9.97-.11s7.25-.16,11.03-.38c3.77-.22,7.41-.54,10.92-.97l.43,4.66c-3.65,.62-7.32,1.07-11.03,1.35-3.7,.29-7.3,.48-10.78,.57-3.49,.09-6.73,.14-9.73,.14Zm.16-35.6h30.07v5.09h-30.07v-5.09Zm15.06,7.26c2.42,0,4.55,.4,6.39,1.19,1.84,.79,3.29,1.88,4.33,3.25,1.05,1.37,1.57,3,1.57,4.88s-.52,3.47-1.57,4.88c-1.05,1.41-2.49,2.5-4.33,3.28-1.84,.78-3.97,1.17-6.39,1.17s-4.55-.39-6.39-1.17c-1.84-.78-3.29-1.87-4.33-3.28-1.05-1.41-1.57-3.03-1.57-4.88s.52-3.5,1.57-4.88c1.05-1.37,2.49-2.46,4.33-3.25,1.84-.79,3.97-1.19,6.39-1.19Zm0,4.88c-1.81,0-3.29,.4-4.44,1.19-1.16,.79-1.73,1.88-1.73,3.25s.58,2.5,1.73,3.28c1.16,.78,2.64,1.17,4.44,1.17s3.29-.39,4.44-1.17c1.16-.78,1.73-1.87,1.73-3.28s-.58-2.46-1.73-3.25c-1.16-.79-2.64-1.19-4.44-1.19Zm-3.25-17.66h6.5v8.4h-6.5v-8.4Zm0,30.07h6.45v8.13h-6.45v-8.13Zm21.84-30.18h6.45v49.85h-6.45v-49.85Z"/>
        <path class="cls-1" d="M363.02,106.57h45.08v5.2h-45.08v-5.2Zm4.98,9h34.62v15.98h-6.45v-10.84h-28.18v-5.15Zm.81-32.67h6.39v4.77h20.7v-4.77h6.39v19.07h-33.49v-19.07Zm6.39,9.59v4.44h20.7v-4.44h-20.7Zm7.1,7.48h6.39v7.86h-6.39v-7.86Z"/>
        <path class="cls-1" d="M425.22,89.34h5.15v6.29c0,2.82-.31,5.58-.92,8.29-.61,2.71-1.53,5.25-2.74,7.61-1.21,2.37-2.69,4.45-4.44,6.26s-3.75,3.25-5.99,4.33l-3.68-5.09c1.99-.94,3.77-2.18,5.34-3.71,1.57-1.54,2.9-3.27,3.98-5.2,1.08-1.93,1.9-3.96,2.46-6.1,.56-2.13,.84-4.26,.84-6.39v-6.29Zm-10.73-2.82h27.91v5.36h-27.91v-5.36Zm12.14,2.82h5.09v6.29c0,2.02,.28,4.06,.84,6.1,.56,2.04,1.38,3.96,2.46,5.77,1.08,1.81,2.4,3.42,3.96,4.85,1.55,1.43,3.34,2.57,5.36,3.44l-3.52,5.09c-2.28-1.01-4.3-2.38-6.07-4.09-1.77-1.71-3.26-3.69-4.47-5.93-1.21-2.24-2.12-4.66-2.74-7.26-.61-2.6-.92-5.26-.92-7.97v-6.29Zm20.97-7.64h6.5v49.85h-6.5v-49.85Z"/>
        <path class="cls-1" d="M474.2,85.65h5.2v7.69c0,3-.29,5.92-.87,8.75s-1.45,5.49-2.6,7.96c-1.16,2.47-2.59,4.66-4.31,6.56s-3.69,3.41-5.93,4.52l-3.9-5.15c2.02-.98,3.81-2.26,5.36-3.85,1.55-1.59,2.85-3.4,3.9-5.45,1.05-2.04,1.83-4.2,2.36-6.47,.52-2.28,.79-4.57,.79-6.88v-7.69Zm1.25,0h5.2v7.69c0,2.24,.24,4.44,.73,6.61,.49,2.17,1.24,4.23,2.25,6.18,1.01,1.95,2.26,3.69,3.74,5.23s3.18,2.79,5.09,3.77l-3.9,5.15c-2.17-1.12-4.06-2.6-5.69-4.44-1.62-1.84-2.99-3.96-4.09-6.34-1.1-2.38-1.93-4.95-2.49-7.69-.56-2.75-.84-5.56-.84-8.45v-7.69Zm19.67-3.96h6.45v49.85h-6.45v-49.85Zm5.04,19.4h8.89v5.42h-8.89v-5.42Z"/>
        <path class="cls-1" d="M526.27,83.81c2.49,0,4.73,.51,6.72,1.52,1.99,1.01,3.54,2.39,4.66,4.15,1.12,1.75,1.68,3.78,1.68,6.1s-.56,4.36-1.68,6.15c-1.12,1.79-2.67,3.18-4.66,4.17-1.99,.99-4.23,1.49-6.72,1.49s-4.72-.5-6.69-1.49-3.52-2.38-4.66-4.17c-1.14-1.79-1.71-3.84-1.71-6.15s.57-4.34,1.71-6.1c1.14-1.75,2.69-3.13,4.66-4.15,1.97-1.01,4.2-1.52,6.69-1.52Zm0,5.36c-1.34,0-2.52,.25-3.55,.76-1.03,.51-1.84,1.25-2.44,2.22-.6,.98-.89,2.13-.89,3.47s.3,2.43,.89,3.39c.6,.96,1.41,1.7,2.44,2.22,1.03,.52,2.21,.79,3.55,.79s2.53-.26,3.58-.79c1.05-.52,1.87-1.26,2.47-2.22,.6-.96,.89-2.09,.89-3.39s-.3-2.49-.89-3.47c-.6-.97-1.41-1.71-2.44-2.22-1.03-.5-2.23-.76-3.6-.76Zm-4.93,21.57h6.39v5.09h19.94v-5.09h6.45v20.21h-32.78v-20.21Zm6.39,10.08v4.98h19.94v-4.98h-19.94Zm9.97-27.91h12.79v5.2h-12.79v-5.2Zm9.92-11.22h6.5v26.77h-6.5v-26.77Z"/>
        <path class="cls-1" d="M562.41,108.25h45.08v5.15h-45.08v-5.15Zm5.58,8.34h6.39v10.73h-6.39v-10.73Zm0,8.83h34.46v5.15h-34.46v-5.15Zm.22-41.88h6.39v5.2h20.7v-5.2h6.39v20.21h-33.49v-20.21Zm6.39,10.24v4.88h20.7v-4.88h-20.7Zm7.1,7.21h6.39v9.43h-6.39v-9.43Z"/>
        <path class="cls-1" d="M612.26,110.58h45.14v5.15h-45.14v-5.15Zm5.31-26.98h6.39v5.96h21.62v-5.96h6.39v21.89h-34.41v-21.89Zm6.39,11.05v5.74h21.62v-5.74h-21.62Zm7.48,18.48h6.45v18.42h-6.45v-18.42Z"/>
      </g>
    </g>
  </g>
</svg>